<?xml version="1.0" standalone="no"?>
<!DOCTYPE svg PUBLIC "-//W3C//DTD SVG 20010904//EN"
 "http://www.w3.org/TR/2001/REC-SVG-20010904/DTD/svg10.dtd">
<svg version="1.0" xmlns="http://www.w3.org/2000/svg"
 width="88.499287pt" height="96.799850pt" viewBox="0 0 88.499287 96.799850"
 preserveAspectRatio="xMidYMid meet">
<metadata>
Created by potrace 1.12, written by Peter Selinger 2001-2015
</metadata>
<g transform="translate(-6.030199,98.266871) scale(0.100000,-0.100000)"
fill="#000000" stroke="none">
<path d="M745 962 c-8 -34 -24 -53 -39 -47 -6 3 -2 0 8 -7 55 -38 71 -57 59
-69 -7 -7 -13 -21 -13 -31 0 -10 -4 -18 -10 -18 -12 0 -51 75 -44 83 3 3 -5
12 -18 20 -66 43 -262 83 -300 62 -143 -77 -217 -129 -210 -148 1 -4 -9 -24
-23 -45 -14 -20 -25 -46 -26 -57 0 -14 -2 -16 -6 -5 -7 17 -23 30 -38 30 -5 0
-3 -5 5 -10 12 -8 10 -10 -9 -10 -22 0 -23 -3 -18 -42 2 -24 17 -70 32 -102
24 -51 30 -57 40 -43 18 24 25 21 24 -10 -1 -18 -3 -21 -6 -10 -2 9 -9 15 -14
12 -15 -10 -10 -24 11 -35 19 -10 20 -8 20 40 0 47 -1 50 -16 35 -12 -12 -19
-13 -30 -4 -15 13 -20 44 -5 35 22 -14 40 6 34 37 -5 25 -4 29 10 24 10 -4 17
-2 17 4 0 6 10 25 22 42 12 17 16 27 7 22 -12 -8 -12 -6 0 8 7 9 11 26 8 37
-3 11 -1 18 4 14 5 -3 9 -2 10 3 5 61 21 79 117 137 60 36 67 38 122 33 68 -8
136 -32 168 -60 29 -27 42 -77 41 -162 -1 -39 -1 -92 -1 -120 0 -91 -1 -104
-9 -99 -5 3 -9 0 -9 -5 0 -28 44 4 55 39 4 14 13 35 21 48 13 19 13 22 -1 22
-8 0 -15 4 -15 8 0 5 7 9 15 9 8 0 15 -5 15 -11 0 -6 4 -5 9 3 6 9 11 10 15 2
4 -6 2 -11 -5 -11 -9 0 -10 -3 -3 -10 8 -8 19 -7 39 0 15 6 30 9 32 6 5 -5
-24 -22 -42 -26 -5 -1 -9 -7 -7 -12 1 -6 -2 -16 -8 -23 -10 -11 -6 -12 19 -2
16 6 27 15 24 21 -4 5 1 7 10 3 10 -4 28 -2 42 3 19 7 24 15 21 37 -2 15 -1
20 1 10 7 -26 23 -10 23 24 0 29 -15 40 -22 17 -3 -8 -12 -6 -29 6 -13 11 -17
16 -7 13 22 -8 32 7 15 21 -31 26 -157 36 -142 11 3 -4 -1 -11 -9 -16 -8 -4
-14 -15 -13 -23 1 -8 -2 -15 -8 -15 -12 0 -7 55 6 71 5 6 6 13 4 16 -3 3 7 4
21 2 15 -1 37 4 48 12 22 15 72 19 80 6 3 -5 0 -9 -7 -10 -49 -4 -74 -22 -31
-22 16 0 37 -7 47 -15 11 -7 26 -11 35 -8 13 4 14 3 3 -5 -10 -7 -10 -11 -1
-17 12 -7 42 24 34 36 -2 4 -13 5 -24 2 -12 -3 -20 0 -20 7 0 7 -7 10 -16 6
-11 -4 -15 -2 -11 7 9 23 -6 35 -45 38 -25 2 -43 -2 -56 -14 -12 -11 -23 -14
-26 -9 -8 14 -36 9 -47 -9 -7 -11 -9 -11 -9 4 0 9 5 17 10 17 6 0 10 5 10 11
0 5 -5 7 -12 3 -8 -5 -9 -2 -5 9 3 9 2 19 -3 22 -6 4 -10 17 -10 31 0 34 16
22 31 -24 17 -53 38 -66 66 -40 12 11 25 18 30 15 4 -2 17 4 27 14 11 11 14
19 8 19 -8 0 -9 7 -2 25 8 21 5 28 -25 51 -19 14 -35 33 -35 41 0 8 -6 21 -14
28 -12 12 -15 11 -21 -13z m12 -277 c-12 -13 -24 -19 -26 -14 -1 6 5 17 15 24
29 22 35 17 11 -10z m76 9 c10 -11 -24 -38 -49 -39 -30 -1 -31 23 -1 35 27 11
42 12 50 4z m-133 -160 c-18 -21 -24 -10 -8 15 7 12 14 17 16 11 2 -6 -2 -17
-8 -26z"/>
<path d="M115 795 c-33 -11 -35 -14 -14 -14 14 -1 34 6 45 14 22 17 21 17 -31
0z"/>
<path d="M320 767 c-25 -12 -47 -25 -50 -28 -3 -3 -14 -5 -25 -3 -18 2 -19 2
-3 -10 13 -10 15 -15 6 -24 -9 -9 1 -11 42 -7 38 4 50 2 40 -5 -13 -8 -13 -11
1 -26 14 -13 21 -14 40 -4 24 13 65 50 54 50 -3 0 -1 10 6 22 10 18 9 20 -5
15 -10 -4 -15 -3 -12 1 5 9 -29 42 -42 41 -4 0 -27 -10 -52 -22z"/>
<path d="M480 768 c0 -9 7 -22 17 -29 15 -13 15 -12 3 11 -17 34 -20 36 -20
18z"/>
<path d="M538 739 c-2 -7 -18 -12 -36 -13 -27 -1 -31 -4 -27 -23 5 -31 11 -39
48 -64 l32 -23 -20 24 c-11 13 -14 20 -8 16 7 -4 29 -3 48 3 25 7 33 6 28 -1
-4 -7 0 -9 9 -5 9 3 21 0 27 -6 8 -8 11 -8 11 0 0 6 -7 16 -15 23 -8 7 -13 16
-10 20 8 12 -45 42 -62 36 -11 -4 -13 -2 -9 9 3 8 1 15 -3 15 -5 0 -11 -5 -13
-11z"/>
<path d="M320 565 c-7 -9 -23 -15 -34 -14 -12 2 -32 -3 -44 -10 -13 -7 -26
-10 -30 -7 -3 3 0 6 6 6 7 0 12 5 12 11 0 5 -4 8 -9 5 -5 -4 -12 0 -14 6 -3 7
-5 2 -5 -12 0 -14 6 -41 14 -60 12 -31 14 -32 10 -7 -2 15 0 27 3 28 51 7 70
14 90 34 14 14 22 27 19 30 -3 3 -11 -2 -18 -10z"/>
<path d="M357 531 c5 -18 8 -19 21 -9 12 10 14 10 8 1 -4 -7 -2 -13 3 -13 6 0
11 -9 11 -19 0 -11 8 -21 17 -23 9 -2 -27 -2 -80 -2 l-96 2 16 -25 c11 -17 19
-21 26 -14 16 16 27 13 27 -6 0 -33 13 -43 34 -27 18 13 18 14 -4 22 -14 5
-19 11 -13 15 6 4 24 2 39 -3 15 -6 60 -10 98 -9 39 2 79 -1 89 -5 10 -5 17
-4 17 2 0 11 -48 29 -92 35 -15 1 -31 6 -35 11 -4 4 -3 6 2 5 6 -2 25 11 44
29 29 28 31 32 13 32 -12 0 -24 -4 -27 -10 -3 -5 -12 -10 -18 -10 -8 0 -7 3 2
9 9 6 3 10 -20 14 -19 3 -46 9 -61 12 -24 6 -26 5 -21 -14z"/>
<path d="M530 540 c0 -5 18 -24 40 -41 22 -18 40 -39 40 -48 1 -12 30 42 30
54 0 2 -14 10 -31 19 -24 12 -28 12 -20 2 8 -9 8 -16 2 -20 -5 -3 -18 5 -29
19 -21 26 -32 32 -32 15z"/>
<path d="M707 490 c-21 -16 -43 -30 -48 -32 -6 -2 -11 -10 -13 -18 -1 -8 -8
-25 -14 -37 -14 -26 -1 -31 18 -8 7 8 9 15 5 15 -4 0 -2 6 4 13 6 8 9 16 6 18
-2 3 14 16 35 29 22 14 42 30 44 37 7 16 8 17 -37 -17z"/>
<path d="M196 343 c-4 -5 -14 -22 -21 -38 -9 -23 -23 -35 -54 -45 -23 -7 -46
-21 -52 -31 -15 -28 -10 -91 10 -133 15 -32 24 -39 50 -41 17 -2 31 -2 31 -1
0 0 -7 22 -14 48 -13 40 -13 47 0 52 8 3 14 12 14 21 0 8 4 15 9 15 5 0 7 10
3 22 l-5 21 21 -21 c12 -12 22 -26 22 -31 0 -6 5 -13 12 -17 7 -5 9 -2 4 7 -4
8 2 3 13 -11 20 -25 20 -25 16 -2 -2 13 0 20 6 17 5 -4 7 -10 5 -14 -8 -12 24
-52 35 -45 6 4 5 12 -3 22 -10 15 -10 15 2 4 8 -7 15 -18 15 -25 0 -7 8 -11
18 -9 9 2 25 -2 35 -7 15 -9 15 -10 -5 -11 -24 0 -150 -48 -157 -59 -3 -4 32
-7 77 -6 45 0 85 -4 88 -8 3 -5 9 -1 12 8 4 9 3 13 -3 10 -6 -3 -10 -1 -10 5
0 6 -4 9 -9 6 -5 -3 -13 0 -19 7 -15 18 153 16 193 -3 17 -7 51 -14 77 -14 37
-1 48 3 52 17 4 16 0 17 -25 12 -31 -7 -159 22 -159 35 0 19 61 84 85 90 6 2
16 16 24 32 8 16 19 27 25 25 7 -3 11 11 11 37 0 31 -5 42 -18 44 -11 2 -17
-3 -17 -14 0 -10 -15 -34 -32 -53 -18 -19 -25 -29 -15 -22 21 17 22 8 1 -25
-10 -14 -23 -23 -30 -20 -6 2 -22 -9 -35 -25 -26 -35 -42 -37 -37 -6 2 14 11
23 26 25 12 2 20 8 17 13 -4 5 -1 9 4 9 6 0 11 5 11 11 0 8 -4 9 -13 0 -8 -6
-18 -7 -22 -3 -5 4 -5 1 -1 -5 4 -7 3 -13 -3 -13 -5 0 -11 4 -13 9 -1 5 -28
11 -58 15 -32 3 -49 3 -42 -3 8 -4 12 -17 10 -27 -2 -14 4 -20 21 -22 19 -3
22 0 18 13 -4 9 -3 14 2 11 5 -3 11 -15 14 -26 4 -17 1 -20 -23 -18 -15 1 -35
-4 -43 -10 -12 -10 -17 -10 -23 -1 -4 7 -3 9 4 5 6 -3 13 -2 17 3 3 5 -3 14
-12 20 -10 6 -13 11 -8 11 6 0 -3 11 -20 25 -22 18 -25 24 -13 25 9 0 18 -6
21 -12 2 -7 8 -10 12 -6 9 8 -8 26 -50 52 -30 19 -30 19 -12 -1 20 -23 23 -37
5 -27 -7 4 -4 -2 6 -14 16 -19 17 -22 3 -22 -16 0 -57 74 -57 106 0 25 -14 46
-24 37z m118 -164 c-8 -14 -24 -10 -24 6 0 9 6 12 15 9 8 -4 12 -10 9 -15z"/>
<path d="M725 300 c-11 -5 -34 -6 -52 -3 l-32 5 11 -36 c8 -25 14 -33 20 -24
6 10 12 8 26 -7 9 -12 25 -24 34 -27 9 -4 29 -28 44 -55 16 -26 45 -65 65 -85
l38 -37 10 30 c5 16 15 29 21 29 6 0 9 4 6 9 -4 5 -1 11 6 13 6 2 12 25 12 53
l1 48 -65 33 c-35 18 -66 32 -68 29 -2 -2 -12 5 -23 16 -21 21 -25 22 -54 9z"/>
</g>
</svg>
