<?xml version="1.0" standalone="no"?>
<!DOCTYPE svg PUBLIC "-//W3C//DTD SVG 20010904//EN"
 "http://www.w3.org/TR/2001/REC-SVG-20010904/DTD/svg10.dtd">
<svg version="1.0" xmlns="http://www.w3.org/2000/svg"
 width="100.000000pt" height="100.000000pt" viewBox="0 0 100.000000 100.000000"
 preserveAspectRatio="xMidYMid meet">
<metadata>
Created by potrace 1.12, written by Peter Selinger 2001-2015
</metadata>
<g transform="translate(0.000000,100.000000) scale(0.100000,-0.100000)"
fill="#000000" stroke="none">
<path d="M310 971 c0 -28 -2 -29 -60 -36 -58 -7 -60 -8 -60 -36 0 -26 -4 -29
-30 -29 -27 0 -30 -3 -30 -30 0 -27 -3 -30 -30 -30 -27 0 -30 -3 -30 -30 l0
-30 60 0 60 0 0 -60 0 -60 30 0 c28 0 30 -3 30 -36 l0 -37 46 7 c26 3 53 6 60
6 10 0 14 13 14 44 0 24 3 64 6 90 l7 46 58 0 59 0 0 -250 0 -250 -59 0 -58 0
-7 46 c-3 26 -6 69 -6 95 l0 49 -44 0 c-24 0 -64 -3 -90 -6 l-46 -7 0 -88 0
-89 -60 0 -60 0 0 -30 c0 -27 3 -30 30 -30 27 0 30 -3 30 -30 0 -27 3 -30 30
-30 26 0 30 -3 30 -29 0 -28 2 -29 60 -36 58 -7 60 -8 60 -36 l0 -29 190 0
190 0 0 29 c0 28 2 29 60 36 58 7 60 8 60 36 0 26 4 29 30 29 27 0 30 3 30 30
0 26 3 30 29 30 26 0 29 3 35 46 10 73 9 74 -29 74 -32 0 -35 -2 -35 -30 l0
-30 -155 0 -155 0 0 250 0 250 160 0 160 0 0 -60 0 -60 -95 0 -95 0 0 -35 0
-35 90 0 90 0 0 -30 c0 -28 3 -30 35 -30 l35 0 0 -90 0 -90 30 0 30 0 0 185 0
185 -35 0 -35 0 0 60 0 60 -30 0 c-27 0 -30 3 -30 30 0 27 -3 30 -30 30 -26 0
-30 3 -30 29 0 28 -2 29 -60 36 -58 7 -60 8 -60 36 l0 29 -190 0 -190 0 0 -29z"/>
<path d="M0 500 l0 -190 30 0 30 0 1 78 c0 42 1 93 1 112 1 19 0 70 0 113 l-2
77 -30 0 -30 0 0 -190z"/>
<path d="M690 410 l0 -30 60 0 60 0 0 30 0 30 -60 0 -60 0 0 -30z"/>
</g>
</svg>
