<?xml version="1.0" standalone="no"?>
<!DOCTYPE svg PUBLIC "-//W3C//DTD SVG 20010904//EN"
 "http://www.w3.org/TR/2001/REC-SVG-20010904/DTD/svg10.dtd">
<svg version="1.0" xmlns="http://www.w3.org/2000/svg"
 width="232.606962pt" height="230.911737pt" viewBox="0 0 232.606962 230.911737"
 preserveAspectRatio="xMidYMid meet">
<metadata>
Created by potrace 1.12, written by Peter Selinger 2001-2015
</metadata>
<g transform="translate(-13.192038,243.396192) scale(0.100000,-0.100000)"
fill="#000000" stroke="none">
<path d="M1245 2433 c-70 -4 -209 -24 -245 -35 -377 -111 -653 -358 -790 -708
-171 -436 -56 -931 294 -1263 63 -60 223 -168 297 -201 71 -31 187 -70 264
-87 81 -19 379 -19 460 0 270 62 484 190 663 398 81 94 172 254 204 358 68
221 82 379 48 560 -29 158 -34 174 -79 277 -146 333 -425 572 -776 666 -82 22
-259 40 -340 35z m175 -88 c164 -15 372 -95 510 -198 132 -97 266 -258 332
-397 46 -97 56 -124 79 -205 20 -70 23 -103 24 -265 0 -184 -3 -205 -42 -335
-94 -308 -383 -598 -686 -691 -29 -9 -62 -20 -75 -25 -13 -5 -32 -9 -42 -9
-19 0 -20 8 -20 225 l0 225 69 0 c78 0 133 19 156 54 17 26 34 89 60 227 18
93 18 96 -1 134 -29 59 -70 75 -186 75 l-98 0 0 77 c0 66 3 81 25 108 34 45
98 60 224 52 113 -8 156 2 197 44 l29 30 0 202 c0 303 20 290 -436 285 -272
-3 -321 -6 -363 -22 -102 -37 -182 -118 -226 -225 -10 -25 -14 -98 -16 -280
-1 -135 -2 -252 -3 -258 -1 -10 -29 -13 -107 -13 -118 0 -160 -13 -191 -58
-16 -23 -18 -48 -17 -185 1 -180 6 -197 69 -227 33 -16 62 -20 143 -20 56 0
103 -3 103 -7 5 -31 7 -362 3 -375 -8 -26 -25 -23 -122 26 -246 123 -422 320
-531 591 -14 35 -29 88 -46 160 -22 96 -22 346 0 435 68 270 205 481 418 641
108 82 216 133 372 179 46 14 270 40 300 35 11 -2 54 -7 95 -10z m460 -490
c16 -20 17 -339 1 -359 -9 -10 -51 -15 -164 -17 -145 -4 -154 -5 -199 -32 -83
-48 -108 -105 -108 -239 0 -131 -3 -128 143 -128 162 0 164 -2 149 -101 -37
-233 -27 -219 -156 -219 -87 0 -105 -3 -119 -18 -14 -16 -17 -54 -19 -278 l-3
-259 -130 0 c-71 1 -152 5 -180 9 -88 15 -85 6 -85 281 0 174 -3 244 -12 253
-8 8 -55 12 -144 12 -168 0 -164 -4 -164 162 0 158 8 165 174 156 50 -3 102
-2 116 1 l25 7 6 279 c3 173 10 293 17 315 21 61 83 132 142 162 l55 28 321 0
c272 0 323 -2 334 -15z"/>
</g>
</svg>
