<svg version="1.0" xmlns="http://www.w3.org/2000/svg" width="32" height="32" viewBox="0 0 500 1000" preserveAspectRatio="xMidYMid meet">
  <g transform="translate(-19.2, 1015.7) scale(0.1, -0.1)" fill="#800020" stroke="none">
    <path d="M3375 10154 c-390 -37 -632 -102 -923 -248 -176 -89 -352 -213 -506 -356 -56 -53 -152 -172 -294 -364 -111 -150 -259 -486 -276 -626 -3 -25 -10 -81 -16 -125 -10 -74 -11 -920 -2 -1102 l4 -71 261 -4 c236 -4 268 -7 326 -26 184 -63 342 -224 408 -417 l28 -80 0 -435 c0 -482 -1 -493 -68 -630 -44 -90 -183 -228 -269 -268 -35 -16 -81 -38 -103 -48 -36 -17 -70 -19 -312 -22 l-273 -4 0 -310 0 -310 378 5 c444 5 453 7 538 91 79 80 86 109 94 416 6 216 10 265 28 322 31 102 69 165 155 255 63 65 96 91 167 127 49 26 108 49 132 52 24 3 275 6 558 7 l515 2 3 597 2 598 -53 62 c-29 35 -97 122 -151 193 -54 72 -111 144 -126 160 -15 17 -71 89 -125 160 -54 72 -114 148 -133 170 -19 22 -76 94 -126 161 -278 369 -464 603 -511 641 -31 26 -36 36 -41 89 -6 60 5 198 31 380 17 113 81 319 127 406 37 69 147 183 232 238 64 43 200 91 301 108 190 33 428 21 579 -27 133 -43 170 -61 287 -139 168 -113 278 -247 342 -417 36 -96 64 -260 46 -271 -5 -3 -57 15 -115 41 -135 61 -247 76 -410 56 -119 -15 -140 -20 -232 -62 -35 -16 -66 -29 -68 -29 -13 0 -135 -90 -183 -134 -100 -94 -144 -165 -194 -309 -29 -85 -32 -102 -32 -222 0 -113 4 -143 29 -230 54 -187 145 -330 269 -422 78 -57 203 -117 282 -134 85 -19 284 -16 370 5 198 48 427 213 540 390 120 188 172 420 163 729 -6 181 -26 286 -85 441 -83 216 -177 360 -338 515 -114 109 -277 227 -390 283 -88 43 -277 105 -375 123 -90 17 -372 28 -465 19z"/>
    <path d="M1360 6295 l0 -305 70 0 c101 0 164 27 233 99 64 66 79 108 80 217 0 60 -5 80 -29 125 -62 115 -152 169 -279 169 l-75 0 0 -305z"/>
    <path d="M3200 5312 c-67 -25 -141 -104 -167 -177 -28 -80 -32 -124 -34 -370 -2 -228 -6 -251 -74 -385 -42 -83 -187 -221 -278 -264 -124 -59 -124 -59 -729 -63 l-558 -4 0 -463 0 -462 80 -104 c45 -58 100 -127 124 -155 23 -27 100 -123 172 -213 71 -90 190 -240 264 -333 74 -93 182 -229 239 -302 58 -72 148 -183 200 -245 53 -63 101 -123 108 -134 11 -21 10 -163 -3 -278 -15 -134 -76 -399 -112 -486 -65 -159 -238 -325 -399 -381 -200 -71 -451 -90 -628 -48 -33 8 -81 19 -107 25 -103 25 -341 166 -431 257 -94 93 -196 294 -218 428 -10 65 -10 78 2 91 13 12 24 10 84 -21 76 -39 226 -75 310 -75 166 1 367 64 512 161 71 47 170 147 208 209 69 114 125 292 125 402 0 69 -35 233 -70 329 -54 147 -147 276 -259 357 -159 116 -243 144 -434 143 -312 -1 -524 -109 -739 -376 -98 -123 -170 -300 -190 -468 -13 -119 -4 -492 15 -572 60 -257 170 -464 345 -647 189 -198 385 -320 657 -409 112 -36 402 -72 525 -64 122 8 301 25 320 30 8 2 44 7 80 10 166 14 518 132 715 240 185 100 379 248 521 397 80 84 116 132 247 322 45 67 177 317 177 337 0 8 7 27 15 42 23 44 54 150 83 277 24 110 25 131 29 513 3 321 2 398 -9 402 -7 3 -107 6 -223 8 -197 3 -214 5 -277 29 -195 74 -333 216 -402 414 l-25 71 0 439 c1 485 1 484 66 619 65 137 206 264 352 318 49 18 83 21 289 25 l232 4 -2 306 -3 307 -340 2 c-297 1 -346 0 -385 -15z"/>
    <path d="M3875 4049 c-161 -30 -254 -154 -243 -325 2 -38 12 -85 22 -105 44 -92 144 -166 231 -172 l40 -2 3 299 c1 165 -1 303 -5 306 -5 4 -26 3 -48 -1z"/>
  </g>
</svg>