<?xml version="1.0" standalone="no"?>
<!DOCTYPE svg PUBLIC "-//W3C//DTD SVG 20010904//EN"
 "http://www.w3.org/TR/2001/REC-SVG-20010904/DTD/svg10.dtd">
<svg version="1.0" xmlns="http://www.w3.org/2000/svg"
 width="427.400763pt" height="378.011619pt" viewBox="0 0 427.400763 378.011619"
 preserveAspectRatio="xMidYMid meet">
<metadata>
Created by potrace 1.12, written by Peter Selinger 2001-2015
</metadata>
<g transform="translate(-10.000000,388.011619) scale(0.100000,-0.100000)"
fill="#000000" stroke="none">
<path d="M109 3868 c0 -7 0 -139 -1 -292 0 -257 1 -281 17 -293 15 -10 171
-13 776 -13 714 0 759 1 767 17 10 21 8 555 -2 571 -4 7 -35 12 -76 12 l-70 0
-2 -202 -3 -203 -305 0 -305 0 -6 175 c-3 96 -6 176 -7 178 -1 2 -35 2 -74 0
l-73 -3 -6 -175 c-3 -96 -6 -176 -7 -177 -1 -2 -105 -3 -231 -3 l-228 0 -7 38
c-3 20 -6 112 -6 203 0 190 6 179 -91 179 -40 0 -59 -4 -60 -12z"/>
<path d="M3605 3866 c-108 -21 -180 -52 -216 -93 -28 -33 -31 -41 -27 -85 10
-96 76 -130 202 -104 90 19 199 21 245 5 38 -13 51 -51 27 -78 -15 -17 -15
-21 4 -62 13 -29 20 -66 20 -106 l0 -63 46 0 c114 0 164 -126 83 -208 -37 -37
-65 -47 -117 -39 -87 14 -118 108 -66 204 22 41 25 58 22 119 -4 84 -33 137
-99 181 -53 35 -149 43 -213 19 -92 -35 -155 -127 -156 -227 0 -113 83 -212
189 -226 23 -3 41 -8 41 -12 0 -3 -14 -26 -30 -51 -61 -91 -33 -181 73 -234
52 -26 69 -29 145 -29 48 0 115 8 150 17 93 24 122 22 122 -8 0 -65 -270 -110
-425 -71 -196 50 -345 198 -390 386 -30 128 -13 270 47 381 17 32 29 60 27 61
-15 12 -78 47 -83 47 -12 0 -75 -142 -91 -205 -19 -76 -19 -231 0 -314 39
-164 170 -324 325 -399 97 -46 207 -72 310 -72 134 0 299 48 354 103 50 50 43
132 -16 182 -36 30 -82 32 -203 8 -168 -32 -306 24 -240 97 13 15 13 20 -2 51
-12 23 -18 57 -18 105 l0 70 -52 -4 c-47 -4 -55 -2 -82 26 -55 55 -53 134 4
188 43 41 87 49 133 27 79 -40 95 -105 48 -197 -25 -49 -28 -65 -24 -124 4
-84 35 -138 102 -177 188 -110 421 76 352 282 -26 80 -118 153 -191 153 -32 0
-32 14 1 61 77 112 11 232 -142 258 -74 13 -124 9 -233 -21 -54 -14 -76 -17
-84 -9 -21 21 7 45 77 69 203 69 428 18 576 -129 160 -161 197 -417 89 -630
-16 -34 -29 -62 -27 -63 2 -2 19 -12 40 -24 l36 -22 21 33 c82 133 107 328 64
501 -51 208 -231 386 -443 441 -88 23 -220 27 -305 11z"/>
<path d="M1896 3845 c-14 -15 -16 -74 -16 -575 0 -307 3 -565 6 -574 5 -13 22
-16 80 -16 68 0 74 2 79 23 3 12 4 276 3 587 l-3 565 -66 3 c-51 2 -71 -1 -83
-13z"/>
<path d="M2245 3838 c-3 -13 -4 -277 -3 -588 l3 -565 75 0 75 0 0 395 c0 217
-2 421 -5 452 -3 34 -1 58 5 59 6 1 23 -30 39 -67 16 -38 40 -92 53 -121 13
-28 23 -58 23 -65 0 -8 4 -18 9 -24 4 -5 23 -44 40 -88 18 -43 45 -102 60
-130 15 -28 69 -133 120 -233 l93 -183 73 0 c57 0 74 3 79 16 3 9 6 274 6 590
l0 575 -77 -3 -78 -3 0 -443 c0 -271 -4 -441 -9 -439 -5 2 -25 41 -43 88 -18
46 -38 93 -43 104 -5 11 -16 38 -25 60 -9 22 -26 63 -38 90 -29 66 -257 517
-270 533 -6 7 -36 12 -83 12 -68 0 -74 -2 -79 -22z"/>
<path d="M596 3089 c-277 -29 -430 -129 -472 -308 -16 -67 -22 -417 -7 -432
10 -10 1541 -14 1551 -4 3 3 5 88 5 188 -1 197 -9 238 -59 324 -55 94 -194
169 -389 208 -154 31 -453 43 -629 24z m562 -224 c131 -19 222 -49 274 -88 62
-47 79 -86 76 -177 l-3 -75 -615 0 -615 0 -3 92 c-2 84 0 96 22 132 41 64 99
96 215 117 99 18 529 17 649 -1z"/>
<path d="M1917 2523 c-79 -3 -89 -6 -103 -27 -13 -22 -15 -128 -11 -973 4
-1023 2 -990 58 -1137 53 -144 186 -243 368 -276 79 -15 331 -12 441 5 170 25
322 83 334 127 3 13 6 528 6 1144 0 994 -2 1123 -15 1134 -12 10 -53 11 -176
6 -88 -4 -166 -9 -173 -12 -35 -13 -36 -42 -36 -1044 l0 -989 -52 -17 c-29 -9
-84 -18 -123 -21 -63 -4 -76 -2 -125 24 -44 23 -59 37 -80 78 l-25 50 -5 965
-5 965 -95 1 c-52 0 -134 -1 -183 -3z"/>
<path d="M3240 2517 c-43 -22 -50 -51 -48 -196 l3 -135 337 3 c385 3 366 8
328 -82 -12 -29 -53 -131 -92 -227 -38 -96 -89 -222 -113 -280 -24 -58 -66
-163 -95 -235 -28 -71 -60 -150 -70 -175 -10 -25 -44 -108 -75 -185 -100 -245
-232 -579 -244 -614 -24 -74 -7 -234 28 -256 6 -3 254 -6 552 -6 493 1 544 2
560 17 17 15 19 34 19 181 0 89 -3 163 -8 163 -4 0 -22 -4 -41 -10 -24 -7
-524 -15 -683 -10 -10 0 -18 5 -18 12 0 9 104 271 140 353 5 11 50 121 100
245 50 124 95 234 100 245 5 11 46 110 90 220 83 206 236 582 272 669 28 69
48 150 48 195 0 47 -24 106 -45 115 -9 3 -242 6 -518 6 -383 0 -508 -3 -527
-13z"/>
<path d="M1605 2190 c-77 -20 -259 -72 -605 -170 -80 -23 -170 -48 -200 -56
-49 -13 -203 -56 -300 -84 -19 -5 -97 -28 -172 -50 -75 -22 -144 -40 -153 -40
-9 0 -29 -7 -45 -15 -28 -15 -30 -19 -30 -75 0 -64 13 -86 58 -96 15 -4 160
-44 322 -90 162 -45 331 -92 375 -104 156 -42 191 -51 315 -86 69 -19 157 -44
195 -55 39 -10 108 -30 155 -43 148 -41 148 -41 156 -11 7 30 1 151 -8 161 -4
3 -91 27 -193 53 -107 27 -190 53 -196 62 -14 23 -11 392 4 411 11 14 320 99
360 98 24 0 37 39 37 110 0 92 -6 98 -75 80z m-496 -352 c4 -13 6 -87 3 -165
-4 -114 -7 -143 -19 -143 -8 0 -85 18 -171 40 -183 46 -376 89 -446 98 -27 4
-51 12 -53 18 -5 16 36 30 157 53 58 11 191 42 295 69 105 27 198 50 208 51
10 0 21 -9 26 -21z"/>
<path d="M109 1035 c-1 -19 -1 -132 0 -145 1 -6 16 -17 34 -25 42 -18 615
-204 737 -239 105 -30 126 -39 123 -52 -2 -14 -4 -14 -353 -128 -179 -59 -341
-113 -360 -121 -19 -8 -67 -24 -107 -36 -39 -12 -74 -26 -76 -33 -2 -6 -2 -44
1 -83 l4 -73 779 0 779 0 1 23 c4 63 -4 133 -15 142 -20 16 -791 1 -965 -19
-137 -16 -179 -12 -149 11 7 5 56 22 108 37 176 51 264 79 415 132 83 28 174
60 202 69 29 10 53 22 54 29 0 6 2 25 4 41 2 17 1 36 -3 42 -12 19 -466 180
-657 234 -109 31 -135 42 -122 56 4 3 132 -1 285 -10 355 -21 829 -30 838 -15
9 14 8 153 -1 167 -4 8 -241 11 -781 11 -681 0 -774 -2 -775 -15z"/>
</g>
</svg>
