<?xml version="1.0" standalone="no"?>
<!DOCTYPE svg PUBLIC "-//W3C//DTD SVG 20010904//EN"
 "http://www.w3.org/TR/2001/REC-SVG-20010904/DTD/svg10.dtd">
<svg version="1.0" xmlns="http://www.w3.org/2000/svg"
 width="285.389606pt" height="327.405426pt" viewBox="0 0 285.389606 327.405426"
 preserveAspectRatio="xMidYMid meet">
<metadata>
Created by potrace 1.12, written by Peter Selinger 2001-2015
</metadata>
<g transform="translate(-12.500000,339.637044) scale(0.100000,-0.100000)"
fill="#000000" stroke="none">
<path d="M1455 3394 c-141 -19 -192 -30 -275 -56 -117 -38 -248 -102 -361
-178 l-86 -58 -194 -4 c-194 -3 -194 -3 -248 -33 -61 -34 -110 -89 -143 -161
l-23 -49 0 -1080 c0 -1022 1 -1083 18 -1133 26 -72 83 -141 148 -177 l54 -30
199 -3 199 -4 91 -65 c352 -255 770 -310 1162 -153 102 40 179 84 283 159 l84
61 182 0 c140 0 192 4 229 16 64 22 147 100 177 166 l24 53 3 1075 c2 1067 2
1076 -19 1144 -17 58 -30 78 -77 126 -82 81 -113 90 -333 90 l-178 0 -95 64
c-152 104 -345 185 -511 215 -66 12 -263 22 -310 15z m120 -164 c0 -18 -6 -26
-23 -28 -24 -4 -38 18 -28 44 3 9 15 14 28 12 17 -2 23 -10 23 -28z m115 -24
c-13 -13 -35 7 -25 24 5 8 11 8 21 -1 10 -8 12 -15 4 -23z m-395 3 c-3 -5 1
-6 9 -3 18 7 19 3 10 -20 -3 -9 -17 -16 -30 -16 -19 0 -24 5 -24 24 0 13 6 26
13 29 16 6 29 -2 22 -14z m136 6 c-1 -15 -24 -12 -29 3 -3 9 2 13 12 10 10 -1
17 -7 17 -13z m407 -23 c-4 -22 -46 -28 -54 -8 -4 9 -1 23 6 31 16 19 53 1 48
-23z m-668 -46 c-13 -13 -35 7 -25 24 5 8 11 8 21 -1 10 -8 12 -15 4 -23z
m780 8 c0 -16 -16 -19 -25 -4 -8 13 4 32 16 25 5 -4 9 -13 9 -21z m-902 -23
c20 -12 10 -46 -14 -49 -25 -4 -40 24 -23 44 13 16 19 17 37 5z m1040 -17 c2
-15 -3 -23 -17 -27 -25 -6 -44 14 -35 37 9 24 48 16 52 -10z m-353 -5 c319
-52 612 -254 759 -521 40 -71 107 -250 79 -208 -32 49 -159 165 -215 198 -132
78 -314 111 -451 82 -126 -26 -272 -123 -449 -300 -152 -151 -247 -211 -368
-232 -124 -21 -229 12 -327 104 -112 106 -146 268 -89 426 56 156 272 323 531
410 172 57 347 71 530 41z m-802 -64 c1 -5 -6 -11 -15 -13 -11 -2 -18 3 -18
13 0 17 30 18 33 0z m1265 3 c-3 -7 -11 -13 -18 -13 -7 0 -15 6 -17 13 -3 7 4
12 17 12 13 0 20 -5 18 -12z m-1638 -58 c27 -8 25 -9 -42 -30 -46 -14 -85 -59
-93 -108 -12 -68 -26 -101 -52 -122 -34 -27 -66 -25 -100 4 -23 20 -28 32 -27
66 4 120 184 230 314 190z m268 -7 c13 -26 4 -43 -24 -43 -39 0 -32 55 8 59 4
1 11 -7 16 -16z m1902 -21 c115 -58 161 -195 79 -238 -60 -30 -110 9 -129 102
-18 85 -79 142 -157 145 -25 1 -24 2 12 15 55 18 128 9 195 -24z m-430 13 c0
-8 -7 -15 -15 -15 -8 0 -15 7 -15 15 0 8 7 15 15 15 8 0 15 -7 15 -15z m117
-81 c3 -8 -2 -23 -11 -32 -15 -15 -17 -15 -32 0 -21 21 -11 48 16 48 11 0 23
-7 27 -16z m-1697 -19 c0 -8 -7 -15 -15 -15 -8 0 -15 7 -15 15 0 8 7 15 15 15
8 0 15 -7 15 -15z m1765 -95 c-5 -8 -11 -8 -17 -2 -6 6 -7 16 -3 22 5 8 11 8
17 2 6 -6 7 -16 3 -22z m-1837 -16 c4 -26 -20 -37 -44 -20 -24 18 -11 48 18
44 14 -2 24 -11 26 -24z m1932 -59 c0 -29 -41 -48 -55 -25 -3 6 -1 10 4 10 6
0 11 5 11 11 0 5 -4 7 -10 4 -5 -3 -10 -2 -10 4 0 14 23 19 43 9 9 -5 17 -10
17 -13z m-2000 -71 c0 -16 -16 -19 -25 -4 -8 13 4 32 16 25 5 -4 9 -13 9 -21z
m-290 1 c17 -20 5 -45 -20 -45 -11 0 -23 7 -26 15 -6 15 11 45 26 45 4 0 13
-7 20 -15z m2565 -20 c0 -22 -31 -33 -47 -17 -17 17 -1 44 24 40 15 -2 23 -10
23 -23z m-235 -20 c0 -8 -7 -15 -15 -15 -8 0 -15 7 -15 15 0 8 7 15 15 15 8 0
15 -7 15 -15z m-532 -21 c4 -26 -20 -37 -44 -20 -24 18 -11 48 18 44 14 -2 24
-11 26 -24z m-132 5 c10 -17 -13 -36 -27 -22 -12 12 -4 33 11 33 5 0 12 -5 16
-11z m240 -20 c3 -6 1 -16 -5 -22 -9 -9 -14 -8 -21 3 -9 15 -4 30 10 30 5 0
12 -5 16 -11z m-361 -20 c10 -15 -1 -23 -20 -15 -9 3 -13 10 -10 16 8 13 22
13 30 -1z m-1266 -18 c8 -14 7 -22 -3 -30 -20 -17 -46 -2 -46 25 0 30 34 33
49 5z m1739 -18 c-4 -22 -22 -20 -26 1 -2 10 3 16 13 16 10 0 15 -7 13 -17z
m-2030 -20 c5 -18 -28 -29 -38 -12 -5 7 -6 17 -3 22 7 12 35 5 41 -10z m1463
7 c16 -9 17 -15 8 -31 -15 -28 -53 -22 -57 10 -3 19 0 22 13 18 9 -4 14 -3 10
3 -8 13 1 13 26 0z m1127 -7 c5 -17 -26 -29 -40 -15 -6 6 -7 15 -3 22 9 14 37
9 43 -7z m-201 -84 c2 -15 -2 -20 -14 -17 -9 2 -17 11 -19 21 -1 9 2 15 7 11
5 -3 9 0 9 7 0 19 13 1 17 -22z m-641 -38 c3 -11 10 -9 27 8 35 32 45 25 12
-9 l-29 -30 37 0 c20 0 37 -4 37 -10 0 -5 -17 -10 -37 -10 l-36 0 21 -23 c29
-31 28 -46 -1 -19 -26 25 -37 20 -37 -15 0 -12 -4 -23 -10 -23 -5 0 -10 14
-10 32 l0 31 -23 -21 c-33 -31 -42 -27 -17 8 l21 30 -30 0 c-17 0 -31 5 -31
10 0 6 14 10 32 10 l31 0 -23 25 c-31 32 -17 46 15 15 l25 -23 0 30 c0 37 14
54 18 21 2 -12 5 -29 8 -37z m-1446 30 c0 -14 -18 -23 -30 -16 -6 4 -8 11 -5
16 8 12 35 12 35 0z m1060 -6 c0 -8 -6 -15 -14 -15 -17 0 -28 14 -19 24 12 12
33 6 33 -9z m-89 -80 c-1 -15 -24 -12 -29 3 -3 9 2 13 12 10 10 -1 17 -7 17
-13z m862 -17 c7 -20 -12 -48 -31 -48 -39 0 -57 51 -25 69 19 10 48 -1 56 -21z
m-1785 3 c22 -13 10 -46 -16 -47 -25 -1 -38 17 -28 41 6 17 24 19 44 6z m850
-65 c5 -25 -12 -39 -37 -31 -25 8 -26 18 -5 40 19 19 38 15 42 -9z m-786 -68
c-15 -15 -26 -4 -18 18 5 13 9 15 18 6 9 -9 9 -15 0 -24z m681 -13 c1 -5 -6
-11 -15 -13 -11 -2 -18 3 -18 13 0 17 30 18 33 0z m-568 -50 c0 -14 -8 -21
-26 -23 -22 -3 -26 1 -24 20 3 31 2 30 28 26 14 -2 22 -10 22 -23z m473 6 c20
-12 10 -46 -15 -49 -14 -2 -23 3 -28 17 -11 35 12 52 43 32z m-368 -56 c0 -8
-6 -15 -14 -15 -17 0 -28 14 -19 24 12 12 33 6 33 -9z m235 -15 c-5 -8 -11 -8
-17 -2 -6 6 -7 16 -3 22 5 8 11 8 17 2 6 -6 7 -16 3 -22z m-105 -4 c0 -20 -16
-36 -36 -36 -8 0 -22 44 -17 53 2 4 15 7 29 7 19 0 24 -5 24 -24z m-400 -201
c30 -52 57 -95 60 -95 3 0 30 43 60 95 51 90 56 95 87 95 l33 0 0 -165 0 -165
-35 0 -34 0 -3 96 -3 96 -44 -77 c-55 -97 -69 -97 -126 0 l-40 70 -3 -93 -3
-93 -37 3 -37 3 -3 163 -2 162 37 0 c37 0 39 -2 93 -95z m570 -65 c39 -85 70
-158 70 -162 0 -5 -18 -8 -39 -8 -36 0 -41 3 -52 35 l-13 35 -76 0 -76 0 -17
-35 c-14 -30 -21 -35 -52 -35 -19 0 -35 3 -35 7 0 4 30 78 68 165 l67 159 43
-3 43 -3 69 -155z m350 139 c55 -31 83 -87 78 -155 -5 -62 -28 -99 -79 -129
-28 -17 -52 -20 -139 -20 l-105 0 -3 163 -2 162 106 0 c90 0 112 -3 144 -21z
m380 -9 l0 -30 -85 0 -85 0 0 -35 0 -35 75 0 75 0 0 -30 0 -30 -75 0 -75 0 0
-35 0 -34 88 -3 87 -3 3 -33 3 -33 -128 3 -128 3 -2 163 -2 162 125 0 124 0 0
-30z m278 -132 l-3 -163 -38 -3 -37 -3 0 165 0 166 41 0 41 0 -4 -162z m214
70 l73 -92 3 92 3 92 39 0 40 0 0 -165 0 -165 -33 0 c-29 0 -40 10 -107 95
l-75 95 -5 -92 -5 -93 -37 -3 -38 -3 0 165 0 166 34 0 c31 0 41 -8 108 -92z
m-2070 -439 c3 -102 5 -113 27 -130 30 -24 46 -24 71 1 18 18 20 33 20 130 l0
110 30 0 30 0 0 -115 c0 -131 -11 -165 -62 -191 -38 -20 -101 -14 -130 13 -37
32 -48 76 -48 188 l0 105 29 0 29 0 4 -111z m448 85 c0 -15 -27 -64 -70 -124
-38 -54 -70 -101 -70 -103 0 -3 24 -5 53 -5 98 1 99 1 95 -29 l-3 -28 -115 2
c-103 2 -115 4 -118 21 -2 10 27 60 64 112 36 52 68 100 71 107 4 10 -11 13
-61 13 l-66 0 0 30 0 30 110 0 110 0 0 -26z m248 3 c27 -25 34 -66 16 -101
-13 -26 -12 -31 3 -48 26 -29 23 -95 -5 -118 -25 -20 -143 -36 -191 -25 l-31
7 0 155 0 155 94 -4 c73 -2 98 -7 114 -21z m282 -7 l0 -30 -70 0 -70 0 0 -35
0 -35 64 0 c65 0 65 0 62 -27 -3 -27 -5 -28 -62 -28 l-59 0 0 -35 0 -35 70 0
70 0 0 -30 0 -30 -100 0 -100 0 -3 158 -3 157 101 0 100 0 0 -30z m120 -37 l1
-68 22 26 c12 14 38 44 57 68 30 37 40 42 67 39 l33 -3 -55 -69 -55 -68 55
-78 c30 -43 55 -83 55 -89 0 -6 -14 -11 -30 -11 -25 0 -36 9 -63 46 -17 26
-37 54 -43 62 -19 27 -42 -2 -46 -56 -3 -45 -4 -47 -33 -47 l-30 0 -3 145 c-1
79 0 150 2 157 3 7 19 13 36 13 l30 0 0 -67z m280 -94 l0 -160 -32 3 c-27 2
-33 7 -32 26 0 12 1 83 2 157 l2 135 30 0 30 0 0 -161z m225 149 c19 -9 24
-16 19 -32 -8 -26 -26 -38 -38 -26 -12 12 -66 13 -84 1 -28 -17 -8 -44 48 -62
30 -10 63 -28 72 -39 26 -32 23 -83 -6 -117 -22 -25 -30 -28 -89 -28 -79 0
-113 22 -95 60 10 22 12 22 44 9 43 -18 78 -18 94 1 17 21 -2 42 -50 55 -64
17 -90 45 -90 95 0 36 5 48 31 69 34 29 98 35 144 14z m283 -20 c3 -27 2 -28
-42 -28 l-46 0 0 -130 0 -130 -30 0 -29 0 -3 128 -3 127 -42 3 c-37 3 -43 6
-43 26 0 12 3 26 7 30 4 3 57 5 117 4 l111 -3 3 -27z m218 -118 c30 -80 56
-149 57 -155 1 -5 -10 -11 -25 -13 -23 -3 -31 3 -45 32 -16 35 -18 36 -75 36
-57 0 -58 -1 -72 -35 -12 -27 -21 -35 -40 -35 -14 0 -27 3 -29 8 -3 4 17 66
44 137 71 188 64 177 100 173 30 -3 32 -7 85 -148z m205 58 l64 -93 3 93 3 92
29 0 30 0 0 -160 0 -160 -25 0 c-19 0 -37 18 -87 91 l-63 91 -5 -89 -5 -88
-30 0 -30 0 -3 158 -3 157 30 0 c25 0 37 -12 92 -92z m-1471 -358 c41 -23 95
-61 120 -84 l45 -42 103 6 103 5 39 -35 c33 -29 40 -42 40 -73 0 -25 5 -37 14
-37 8 0 19 -13 25 -30 9 -28 14 -30 56 -30 38 0 48 -4 52 -20 6 -21 43 -28 43
-8 0 14 60 78 73 78 5 0 22 11 39 25 16 14 39 25 50 25 18 0 15 -5 -18 -35
-34 -30 -36 -34 -17 -35 12 0 25 -4 28 -10 9 -15 45 -12 51 5 5 12 12 10 36
-10 16 -14 41 -25 56 -25 31 0 23 -9 -33 -41 -28 -15 -54 -21 -85 -20 -53 3
-57 5 -40 27 20 23 -8 39 -32 17 -10 -9 -26 -13 -38 -10 -16 4 -20 0 -20 -19
0 -18 -5 -24 -21 -24 -14 0 -19 -5 -16 -13 9 -24 -10 -40 -49 -41 -42 -1 -57
-22 -24 -34 13 -5 28 -24 35 -46 11 -32 11 -43 -3 -76 -19 -44 -44 -55 -84
-37 -20 8 -28 19 -28 37 0 24 -34 50 -67 50 -11 0 -75 34 -133 71 -85 54 -100
68 -124 117 l-26 52 -49 0 c-46 0 -74 15 -70 36 4 23 -15 54 -33 54 -11 0 -31
9 -45 19 -27 22 -50 18 -71 -11 -7 -10 -21 -18 -31 -18 -27 0 -43 -24 -35 -54
7 -28 -6 -32 -53 -20 -23 6 -23 9 -23 158 l0 153 88 25 c48 13 89 24 92 23 3
-1 39 -21 80 -45z m-923 14 c8 -20 -17 -36 -34 -22 -10 8 -10 14 -2 24 15 18
28 18 36 -2z m2582 2 c8 -10 8 -16 -3 -25 -10 -9 -16 -8 -26 3 -12 15 -6 36 9
36 5 0 14 -6 20 -14z m-2569 -132 c11 -12 10 -18 -3 -32 -16 -15 -18 -15 -33
0 -19 18 -12 48 9 48 8 0 20 -7 27 -16z m2567 0 c3 -8 -2 -23 -11 -32 -15 -15
-17 -15 -32 0 -21 21 -11 48 16 48 11 0 23 -7 27 -16z m-2478 -132 c20 -19 30
-43 35 -77 14 -90 45 -127 128 -155 l53 -18 -48 -7 c-101 -16 -186 13 -250 84
-62 69 -69 147 -15 185 33 24 66 20 97 -12z m2439 12 c54 -37 48 -110 -14
-182 -20 -24 -54 -52 -77 -63 -48 -25 -138 -35 -187 -21 l-35 9 30 7 c97 24
129 56 149 151 21 101 75 141 134 99z m-2072 -155 c10 -17 -13 -36 -27 -22
-12 12 -4 33 11 33 5 0 12 -5 16 -11z m1642 -7 c2 -7 -6 -12 -17 -12 -21 0
-27 11 -14 24 9 9 26 2 31 -12z m-1550 -88 c4 -27 -26 -40 -46 -20 -21 20 -8
48 20 44 14 -2 24 -11 26 -24z m1471 13 c15 -19 -9 -50 -32 -41 -17 6 -23 35
-10 47 10 11 30 8 42 -6z m-1394 -86 c7 -12 -12 -24 -25 -16 -11 7 -4 25 10
25 5 0 11 -4 15 -9z m1295 -6 c0 -8 -7 -15 -15 -15 -8 0 -15 7 -15 15 0 8 7
15 15 15 8 0 15 -7 15 -15z m-1210 -61 c0 -16 -16 -19 -25 -4 -8 13 4 32 16
25 5 -4 9 -13 9 -21z m1130 6 c0 -5 -5 -12 -11 -16 -14 -8 -33 11 -25 25 7 11
36 4 36 -9z m-1013 -46 c4 -11 -1 -22 -12 -31 -16 -11 -21 -11 -33 1 -8 8 -12
22 -9 30 8 21 46 21 54 0z m917 -1 c9 -21 -16 -46 -37 -37 -17 6 -23 35 -10
47 12 13 41 7 47 -10z m-829 -63 c-5 -8 -11 -8 -17 -2 -6 6 -7 16 -3 22 5 8
11 8 17 2 6 -6 7 -16 3 -22z m711 19 c10 -17 -13 -36 -27 -22 -12 12 -4 33 11
33 5 0 12 -5 16 -11z m-582 -36 c8 -20 -1 -33 -24 -33 -22 0 -34 28 -19 46 12
15 35 9 43 -13z m470 12 c18 -19 11 -45 -13 -45 -27 0 -42 20 -30 42 12 22 23
23 43 3z m-230 -28 c13 -21 -15 -53 -38 -44 -19 8 -21 38 -4 55 15 15 28 11
42 -11z m-134 -1 c0 -8 -4 -17 -9 -21 -12 -7 -24 12 -16 25 9 15 25 12 25 -4z
m246 3 c10 -17 -13 -36 -27 -22 -12 12 -4 33 11 33 5 0 12 -5 16 -11z"/>
<path d="M1410 3044 c-310 -56 -565 -207 -658 -389 -18 -36 -27 -71 -30 -126
-6 -102 14 -162 79 -233 107 -117 265 -135 415 -45 31 19 124 99 208 178 168
160 244 218 338 260 161 72 310 76 490 15 37 -12 68 -20 68 -17 0 22 -54 83
-123 138 -102 82 -251 156 -382 191 -81 21 -127 27 -240 29 -77 2 -151 1 -165
-1z m179 -69 c111 -57 116 -211 10 -265 -145 -75 -285 85 -195 223 34 52 126
73 185 42z m261 -27 c107 -35 150 -54 150 -68 0 -5 -24 0 -52 11 -53 22 -137
48 -215 69 -51 13 -59 35 -10 25 17 -3 75 -20 127 -37z m-480 23 c0 -4 -28
-16 -62 -26 -273 -75 -489 -250 -513 -415 -19 -136 92 -260 235 -260 100 0
166 41 360 224 58 54 123 111 144 127 65 48 71 33 9 -20 -32 -27 -110 -97
-173 -157 -138 -128 -212 -179 -286 -194 -196 -41 -363 147 -300 336 46 139
233 286 461 363 93 32 125 37 125 22z m-20 -82 c0 -6 -9 -13 -20 -16 -11 -3
-20 -8 -20 -12 0 -3 29 -51 64 -106 53 -84 67 -99 86 -97 12 2 21 0 19 -5 -8
-18 -238 -223 -250 -223 -7 0 6 19 29 43 l42 42 -81 125 c-44 69 -85 129 -90
134 -5 6 -31 -6 -64 -28 -31 -20 -62 -35 -68 -33 -28 9 173 127 288 168 61 21
65 22 65 8z m628 -34 c35 -11 26 -28 -10 -21 -18 3 -84 9 -145 12 -63 4 -113
11 -113 17 0 11 228 4 268 -8z m112 -2 c0 -12 3 -14 8 -7 5 9 11 8 20 -2 10
-11 10 -14 0 -15 -10 0 -10 -2 0 -6 6 -2 12 -9 12 -15 0 -6 -7 -8 -14 -5 -11
4 -13 1 -9 -10 4 -10 2 -14 -4 -10 -6 4 -14 1 -17 -5 -5 -10 -7 -10 -12 -1 -3
7 -12 9 -20 6 -10 -4 -12 0 -8 11 4 10 1 16 -7 16 -11 0 -11 3 1 10 11 7 11
10 2 10 -10 0 -10 3 0 14 7 8 16 12 21 9 4 -2 7 1 7 6 0 6 5 11 10 11 6 0 10
-8 10 -17z m-90 -51 c0 -4 -36 -13 -80 -20 -44 -6 -113 -25 -152 -42 -79 -33
-93 -36 -82 -19 10 16 108 58 173 74 63 15 141 19 141 7z m218 -31 c35 -18 83
-61 68 -61 -14 0 -116 62 -116 71 0 13 6 11 48 -10z m-1127 -83 c87 -30 134
-102 127 -193 -13 -150 -185 -224 -299 -128 -64 54 -85 143 -50 218 43 93 132
134 222 103z"/>
<path d="M1449 2947 c-105 -71 -52 -237 76 -237 57 0 106 34 124 87 13 37 13
45 -3 88 -32 82 -124 111 -197 62z m154 -38 c72 -77 -8 -202 -109 -169 -92 31
-100 149 -14 193 45 22 87 14 123 -24z"/>
<path d="M1471 2904 c-25 -21 -31 -34 -31 -64 0 -45 17 -61 37 -35 14 21 18
39 5 31 -4 -2 -14 -1 -22 5 -11 6 -8 9 14 9 28 0 28 0 12 25 -9 14 -12 25 -7
25 5 0 13 -4 16 -10 10 -17 25 -11 25 10 0 11 5 20 10 20 6 0 10 -12 10 -27 0
-26 0 -26 21 -7 19 17 19 19 3 31 -27 20 -60 15 -93 -13z"/>
<path d="M1570 2875 l-23 -25 31 0 c32 0 40 12 24 38 -6 9 -14 6 -32 -13z"/>
<path d="M1567 2831 c-17 -6 -16 -8 6 -29 21 -20 25 -21 31 -7 15 41 4 53 -37
36z"/>
<path d="M1486 2791 c-17 -19 -17 -20 3 -30 11 -6 27 -11 36 -11 9 0 25 5 36
11 20 10 20 11 3 30 -22 24 -34 24 -27 0 3 -10 0 -22 -6 -25 -7 -5 -11 3 -11
18 0 31 -11 33 -34 7z"/>
<path d="M1241 2841 c-11 -7 2 -34 64 -130 75 -114 80 -119 97 -104 10 9 18
20 18 25 0 4 -30 55 -66 113 -65 103 -81 116 -113 96z"/>
<path d="M1175 2808 c-11 -6 -21 -12 -23 -13 -5 -4 160 -255 168 -255 4 0 15
9 25 20 17 19 15 23 -60 140 -42 66 -80 120 -83 120 -4 0 -16 -6 -27 -12z"/>
<path d="M984 2669 c-48 -14 -101 -79 -109 -133 -6 -37 -3 -55 16 -93 31 -63
77 -93 141 -93 148 0 221 161 121 270 -47 53 -101 69 -169 49z m124 -49 c89
-55 72 -201 -28 -231 -88 -27 -170 29 -170 117 0 84 45 133 125 134 23 0 54
-9 73 -20z"/>
<path d="M978 2604 c-15 -8 -32 -23 -38 -34 -14 -26 -13 -93 3 -114 11 -16 15
-15 42 14 l29 30 -37 0 c-20 0 -37 5 -37 10 0 6 17 10 38 10 l37 0 -30 24
c-16 13 -27 28 -22 32 4 4 18 -3 32 -16 l25 -23 0 31 c0 17 5 34 10 37 6 3 10
-3 10 -14 0 -45 10 -52 36 -23 13 15 24 22 24 15 0 -6 -4 -15 -10 -18 -5 -3
-10 -11 -10 -18 0 -8 3 -8 12 1 7 7 16 12 21 12 14 0 -4 -21 -27 -30 -17 -7
-13 -9 21 -9 l42 -1 -11 30 c-22 63 -97 89 -160 54z"/>
<path d="M1070 2501 c0 -3 10 -15 22 -28 28 -30 18 -39 -15 -13 l-26 20 -3
-32 c-4 -39 -24 -35 -22 4 2 23 -1 26 -15 18 -10 -5 -24 -16 -31 -26 -22 -26
13 -47 70 -41 50 6 90 42 90 82 0 21 -4 24 -35 22 -19 -1 -35 -4 -35 -6z"/>
<path d="M405 2968 c-76 -27 -145 -111 -145 -176 0 -31 38 -72 66 -72 33 0 65
46 83 120 10 41 18 84 16 97 -1 12 2 20 7 17 5 -3 7 -13 3 -22 -4 -11 3 -8 22
8 15 14 32 28 38 32 13 12 -55 8 -90 -4z m-11 -45 c-3 -16 -5 -33 -6 -40 -2
-16 -28 -4 -28 14 0 19 19 53 29 53 5 0 7 -12 5 -27z m-68 -32 c-16 -16 -25
-34 -22 -40 4 -6 2 -19 -4 -28 -9 -15 -10 -14 -4 6 4 16 3 21 -5 17 -6 -4 -11
-5 -11 -2 0 8 61 76 68 76 3 0 -7 -13 -22 -29z m27 -79 c14 -15 15 -21 4 -36
-17 -24 -61 -18 -65 9 -2 18 -2 18 8 3 13 -21 31 -23 48 -6 12 12 -1 38 -20
38 -6 0 -6 -6 1 -14 7 -8 8 -17 3 -20 -11 -6 -23 29 -14 38 9 10 18 7 35 -12z"/>
<path d="M2611 2957 c45 -31 77 -79 85 -133 9 -61 37 -94 79 -94 71 0 85 87
27 159 -41 51 -102 82 -169 87 l-56 4 34 -23z m57 -17 c17 -27 10 -25 -19 6
-13 14 -17 23 -9 19 9 -3 21 -14 28 -25z m78 -24 c-3 -22 -18 -37 -32 -32 -8
3 -11 0 -7 -10 5 -14 16 -18 41 -15 19 3 14 -5 -15 -25 -24 -15 -26 -15 -14
-1 11 15 11 17 -2 17 -19 0 -29 25 -21 56 4 17 11 23 22 19 13 -5 13 -3 1 11
-13 16 -12 16 7 4 12 -7 21 -18 20 -24z m59 -49 c14 -24 25 -54 25 -67 0 -47
-51 -75 -90 -50 -12 7 -12 10 -1 10 8 0 11 6 7 16 -5 14 -4 15 9 4 8 -7 23 -9
32 -6 12 5 14 4 8 -2 -5 -6 -19 -12 -30 -15 -16 -4 -15 -5 6 -6 32 -1 49 16
49 49 0 27 -27 73 -38 66 -4 -2 -8 7 -8 20 -1 13 0 24 2 24 2 0 15 -20 29 -43z
m-5 -44 c0 -5 -13 -8 -30 -8 -16 0 -30 3 -30 8 0 4 14 7 30 7 17 0 30 -3 30
-7z"/>
<path d="M2375 2890 c-8 -13 3 -30 18 -29 9 0 9 2 0 6 -7 2 -13 9 -13 15 0 6
7 8 15 4 8 -3 15 -1 15 4 0 13 -27 13 -35 0z"/>
<path d="M2362 2279 c2 -6 8 -10 13 -10 5 0 11 4 13 10 2 6 -4 11 -13 11 -9 0
-15 -5 -13 -11z"/>
<path d="M1077 1798 c-8 -24 -18 -51 -22 -60 -6 -16 -1 -18 39 -18 33 0 46 4
46 14 0 16 -37 106 -44 106 -2 0 -11 -19 -19 -42z"/>
<path d="M1390 1761 l0 -101 56 0 c48 0 59 4 85 29 38 38 40 97 6 137 -20 23
-34 28 -85 32 l-62 4 0 -101z"/>
<path d="M920 1405 c0 -33 2 -35 34 -35 49 0 66 9 66 35 0 26 -17 35 -66 35
-32 0 -34 -2 -34 -35z"/>
<path d="M920 1280 l0 -40 44 0 c48 0 79 20 69 46 -8 21 -37 34 -77 34 -35 0
-36 -1 -36 -40z"/>
<path d="M2361 1379 c-7 -22 -15 -47 -18 -55 -4 -11 5 -14 35 -14 l41 0 -16
48 c-22 66 -28 69 -42 21z"/>
<path d="M286 799 c-30 -24 -35 -73 -12 -117 30 -57 119 -122 168 -122 22 0
22 0 -5 27 -21 21 -29 25 -39 15 -17 -17 -29 -15 -22 3 4 8 12 15 20 15 11 0
11 6 -1 33 -15 34 -28 36 -60 9 -19 -16 -19 -16 -5 2 14 18 13 19 -2 13 -26
-9 -22 -2 8 18 15 9 23 12 20 6 -4 -6 -2 -11 4 -11 6 0 15 10 20 23 9 19 10
20 8 2 -3 -35 39 -113 72 -134 21 -12 27 -21 18 -24 -8 -4 -9 -6 -1 -6 25 -2
22 18 -7 39 -39 28 -59 67 -70 138 -14 86 -59 114 -114 71z m75 -9 c23 -19 23
-21 7 -34 -10 -7 -18 -18 -18 -23 0 -6 -7 -17 -17 -24 -15 -13 -15 -12 -2 9
12 20 12 24 -1 33 -13 9 -12 10 3 5 9 -3 17 -1 17 5 0 6 5 7 10 4 6 -3 10 -2
10 4 0 6 -9 15 -19 21 -21 11 -65 0 -74 -20 -3 -6 -4 -5 -3 2 2 12 42 37 57
38 4 0 17 -9 30 -20z m-2 -139 c-22 -18 -22 -20 -6 -26 9 -4 17 -12 17 -18 0
-5 -9 -2 -20 8 -19 17 -19 19 -4 37 10 10 21 18 27 18 5 0 -1 -9 -14 -19z"/>
<path d="M2742 810 c-25 -10 -42 -47 -42 -89 0 -41 -41 -113 -78 -138 -30 -19
-31 -22 -13 -28 79 -25 231 97 231 183 0 43 -7 55 -37 71 -25 13 -30 13 -61 1z
m66 -16 c12 -8 22 -23 21 -32 0 -14 -2 -14 -6 -2 -7 19 -33 40 -50 40 -7 0
-22 -9 -33 -20 -11 -11 -20 -16 -20 -11 0 12 40 41 55 41 6 0 21 -7 33 -16z
m-24 -67 c-9 -25 -33 -2 -27 26 4 18 3 19 -6 7 -6 -8 -11 -10 -11 -4 0 21 14
24 32 6 12 -11 16 -25 12 -35z m28 -44 c-6 -10 -20 -27 -33 -38 -12 -11 -19
-14 -15 -7 5 8 1 12 -11 13 -12 0 -14 2 -5 6 10 4 5 11 -15 25 -16 11 -19 17
-8 12 11 -4 30 -8 42 -8 16 -1 19 -4 11 -14 -6 -7 -8 -15 -5 -19 4 -3 14 8 24
25 19 32 32 37 15 5z m-133 -78 c-13 -19 -28 -35 -32 -35 -5 0 3 14 17 31 14
17 26 35 26 41 0 6 3 8 6 5 4 -4 -4 -22 -17 -42z"/>
</g>
</svg>
