<?xml version="1.0" standalone="no"?>
<!DOCTYPE svg PUBLIC "-//W3C//DTD SVG 20010904//EN"
 "http://www.w3.org/TR/2001/REC-SVG-20010904/DTD/svg10.dtd">
<svg version="1.0" xmlns="http://www.w3.org/2000/svg"
 width="100.000000pt" height="67.640320pt" viewBox="0 0 100.000000 67.640320"
 preserveAspectRatio="xMidYMid meet">
<metadata>
Created by potrace 1.12, written by Peter Selinger 2001-2015
</metadata>
<g transform="translate(0.000000,80.640320) scale(0.100000,-0.100000)"
fill="#000000" stroke="none">
<path d="M413 803 c-12 -2 -25 -13 -28 -24 -4 -12 -20 -25 -36 -31 -27 -9 -29
-14 -29 -59 0 -42 -4 -51 -29 -70 -21 -15 -30 -32 -34 -62 -4 -30 -14 -49 -36
-67 -23 -19 -31 -35 -33 -65 -2 -32 -8 -42 -30 -53 -23 -11 -28 -19 -28 -52 0
-47 -8 -70 -25 -70 -7 0 -25 -16 -39 -35 -15 -19 -36 -35 -47 -35 -14 0 -19
-7 -19 -25 l0 -25 500 0 500 0 0 55 0 55 -201 0 c-119 0 -208 4 -220 10 -29
16 -23 47 11 65 25 13 30 22 30 51 0 42 15 74 35 74 8 0 21 13 30 30 9 17 20
30 25 30 21 0 40 34 40 70 0 34 4 42 30 55 17 9 30 22 30 30 0 7 14 24 31 38
27 21 30 29 27 68 l-3 44 -215 1 c-118 1 -225 0 -237 -3z"/>
</g>
</svg>
