<?xml version="1.0" encoding="UTF-8"?>
<!DOCTYPE svg PUBLIC "-//W3C//DTD SVG 1.1//EN" "http://www.w3.org/Graphics/SVG/1.1/DTD/svg11.dtd">
<svg xmlns="http://www.w3.org/2000/svg" version="1.1" width="322px" height="322px" style="shape-rendering:geometricPrecision; text-rendering:geometricPrecision; image-rendering:optimizeQuality; fill-rule:evenodd; clip-rule:evenodd" xmlns:xlink="http://www.w3.org/1999/xlink">
<g><path style="opacity:1" fill="#444444" d="M 155.5,10.5 C 156.609,11.29 157.942,11.79 159.5,12C 152.256,14.4019 144.922,14.9019 137.5,13.5C 137.5,12.5 137.5,11.5 137.5,10.5C 143.5,10.5 149.5,10.5 155.5,10.5 Z"/></g>
<g><path style="opacity:1" fill="#4d4d4d" d="M 167.5,10.5 C 172.167,10.5 176.833,10.5 181.5,10.5C 181.5,11.5 181.5,12.5 181.5,13.5C 176.244,15.1892 171.244,14.6892 166.5,12C 167.056,11.6174 167.389,11.1174 167.5,10.5 Z"/></g>
<g><path style="opacity:1" fill="#4f4f4f" d="M 132.5,13.5 C 132.5,14.5 132.5,15.5 132.5,16.5C 129.721,16.7214 127.054,16.388 124.5,15.5C 124.611,14.8826 124.944,14.3826 125.5,14C 127.81,13.5034 130.143,13.3367 132.5,13.5 Z"/></g>
<g><path style="opacity:1" fill="#030303" d="M 155.5,10.5 C 159.5,10.5 163.5,10.5 167.5,10.5C 167.389,11.1174 167.056,11.6174 166.5,12C 171.244,14.6892 176.244,15.1892 181.5,13.5C 182.833,13.5 184.167,13.5 185.5,13.5C 185.574,15.4109 186.574,16.5776 188.5,17C 192.373,17.2381 196.04,18.0714 199.5,19.5C 200.925,19.3767 202.258,19.0434 203.5,18.5C 204.833,18.5 206.167,18.5 207.5,18.5C 207.5,19.5 207.5,20.5 207.5,21.5C 209.5,21.5 211.5,21.5 213.5,21.5C 213.5,22.5 213.5,23.5 213.5,24.5C 216.14,24.5533 218.64,25.22 221,26.5C 222.07,26.472 222.903,26.1386 223.5,25.5C 225.167,25.5 226.833,25.5 228.5,25.5C 228.5,26.5 228.5,27.5 228.5,28.5C 230.886,28.2587 232.886,28.9254 234.5,30.5C 234.5,31.8333 234.5,33.1667 234.5,34.5C 237.719,35.6922 240.885,37.0256 244,38.5C 244.765,38.4301 245.265,38.0967 245.5,37.5C 247.099,37.2322 248.432,37.5655 249.5,38.5C 245.5,39.1667 245.5,39.8333 249.5,40.5C 250.308,44.1539 252.475,46.8205 256,48.5C 256.765,48.4301 257.265,48.0967 257.5,47.5C 258.5,47.5 259.5,47.5 260.5,47.5C 260.285,49.1788 260.952,50.1788 262.5,50.5C 263.922,57.9027 267.922,63.2361 274.5,66.5C 274.5,67.5 274.5,68.5 274.5,69.5C 277.442,70.7854 280.109,72.452 282.5,74.5C 283.167,74.5 283.5,74.8333 283.5,75.5C 282.903,75.7352 282.57,76.2352 282.5,77C 284.543,79.9133 285.876,83.0799 286.5,86.5C 287.5,86.5 288.5,86.5 289.5,86.5C 289.928,89.5641 290.594,92.5641 291.5,95.5C 292.5,95.5 293.5,95.5 294.5,95.5C 294.338,97.5273 294.505,99.5273 295,101.5C 297.631,105.54 298.465,109.874 297.5,114.5C 298.325,115.386 299.325,115.719 300.5,115.5C 301.787,120.125 303.12,124.792 304.5,129.5C 305.417,130.127 306.417,130.461 307.5,130.5C 307.821,132.048 308.821,132.715 310.5,132.5C 310.5,133.5 310.5,134.5 310.5,135.5C 307.795,134.858 306.462,136.192 306.5,139.5C 306.202,142.603 307.535,144.27 310.5,144.5C 310.5,155.167 310.5,165.833 310.5,176.5C 308.588,174.128 307.422,174.795 307,178.5C 306.466,182.859 306.632,187.192 307.5,191.5C 307.5,191.833 307.5,192.167 307.5,192.5C 306.167,192.5 304.833,192.5 303.5,192.5C 303.807,196.734 303.14,200.734 301.5,204.5C 301.623,205.925 301.957,207.258 302.5,208.5C 302.5,208.833 302.5,209.167 302.5,209.5C 301.167,209.5 299.833,209.5 298.5,209.5C 296.704,217.22 294.704,224.887 292.5,232.5C 291.5,232.5 290.5,232.5 289.5,232.5C 289.5,233.5 289.5,234.5 289.5,235.5C 290.5,235.5 291.5,235.5 292.5,235.5C 291.833,236.167 291.167,236.833 290.5,237.5C 289.167,237.5 287.833,237.5 286.5,237.5C 285.551,239.737 284.884,242.071 284.5,244.5C 283.5,244.5 282.5,244.5 281.5,244.5C 280.799,246.908 279.799,249.242 278.5,251.5C 276.025,253.77 274.025,256.437 272.5,259.5C 272.624,260.107 272.957,260.44 273.5,260.5C 269.812,265.521 265.479,269.854 260.5,273.5C 254.989,274.401 251.322,277.401 249.5,282.5C 250.5,282.5 251.5,282.5 252.5,282.5C 251.432,283.434 250.099,283.768 248.5,283.5C 244.615,282.354 242.615,284.021 242.5,288.5C 241.833,288.5 241.167,288.5 240.5,288.5C 240.265,287.903 239.765,287.57 239,287.5C 234.066,289.388 229.233,291.388 224.5,293.5C 224.5,294.833 224.5,296.167 224.5,297.5C 224.167,297.5 223.833,297.5 223.5,297.5C 221.958,296.699 220.292,296.366 218.5,296.5C 218.5,297.5 218.5,298.5 218.5,299.5C 216.5,299.5 214.5,299.5 212.5,299.5C 212.5,300.5 212.5,301.5 212.5,302.5C 212.167,302.5 211.833,302.5 211.5,302.5C 209.565,301.85 207.565,301.517 205.5,301.5C 205.5,302.833 205.5,304.167 205.5,305.5C 204.833,305.5 204.167,305.5 203.5,305.5C 201.735,304.539 199.735,304.205 197.5,304.5C 197.5,305.5 197.5,306.5 197.5,307.5C 196.167,307.5 194.833,307.5 193.5,307.5C 191.283,306.631 188.95,306.298 186.5,306.5C 186.5,307.833 186.5,309.167 186.5,310.5C 184.833,310.5 183.167,310.5 181.5,310.5C 167.493,309.185 153.493,309.185 139.5,310.5C 137.833,310.5 136.167,310.5 134.5,310.5C 135.706,309.12 135.373,307.953 133.5,307C 130.833,306.667 128.167,306.333 125.5,306C 123.685,303.73 121.352,303.064 118.5,304C 117.663,305.011 117.33,306.178 117.5,307.5C 116.222,307.218 115.222,306.551 114.5,305.5C 114.67,304.178 114.337,303.011 113.5,302C 110.782,301.347 108.116,300.513 105.5,299.5C 104.274,299.52 103.274,299.853 102.5,300.5C 102.167,300.5 101.833,300.5 101.5,300.5C 101.5,299.167 101.5,297.833 101.5,296.5C 97.13,295.751 92.9633,294.417 89,292.5C 88.2352,292.57 87.7352,292.903 87.5,293.5C 85.901,293.768 84.5676,293.434 83.5,292.5C 84.5,292.5 85.5,292.5 86.5,292.5C 86.5,291.167 86.5,289.833 86.5,288.5C 81.3549,286.997 76.6883,284.663 72.5,281.5C 72.5,280.5 72.5,279.5 72.5,278.5C 69.9591,277.897 67.6257,277.897 65.5,278.5C 63.9699,277.789 62.6366,276.789 61.5,275.5C 60.2647,272.041 58.2647,269.041 55.5,266.5C 52.7106,264.809 50.3773,262.642 48.5,260C 47.552,259.517 46.552,259.351 45.5,259.5C 44.1938,258.533 43.5271,257.199 43.5,255.5C 43.2363,252.243 41.5696,250.243 38.5,249.5C 38.5983,246.752 37.5983,246.086 35.5,247.5C 35.5,246.833 35.5,246.167 35.5,245.5C 36.1239,245.083 36.4573,244.416 36.5,243.5C 33.7614,238.895 31.4281,234.228 29.5,229.5C 28.1667,229.5 26.8333,229.5 25.5,229.5C 25.5,229.167 25.5,228.833 25.5,228.5C 26.1386,227.903 26.472,227.07 26.5,226C 24.7166,221.544 23.3833,217.044 22.5,212.5C 21.1667,212.5 19.8333,212.5 18.5,212.5C 18.5,212.167 18.5,211.833 18.5,211.5C 19.3686,209.283 19.702,206.95 19.5,204.5C 18.0413,204.433 16.7079,204.766 15.5,205.5C 15.5,204.833 15.5,204.167 15.5,203.5C 16.6225,201.712 16.7891,199.712 16,197.5C 15.3292,196.748 14.4959,196.414 13.5,196.5C 13.5,195.5 13.5,194.5 13.5,193.5C 14.3287,190.531 14.4954,187.531 14,184.5C 13.1841,183.177 12.0174,182.511 10.5,182.5C 10.5,179.833 10.5,177.167 10.5,174.5C 11.4672,166.586 11.8005,158.586 11.5,150.5C 10.5,150.5 9.5,150.5 8.5,150.5C 10.017,147.413 10.6837,144.079 10.5,140.5C 11.8804,141.706 13.0471,141.373 14,139.5C 14.5832,134.792 15.4165,130.125 16.5,125.5C 16.4274,123.41 16.094,121.41 15.5,119.5C 15.5,117.167 15.5,114.833 15.5,112.5C 17.1788,112.715 18.1788,112.048 18.5,110.5C 19.5,110.5 20.5,110.5 21.5,110.5C 21.4855,107.373 22.4855,104.707 24.5,102.5C 24.315,101.416 23.9817,100.416 23.5,99.5C 24.8333,99.5 26.1667,99.5 27.5,99.5C 28.8333,95.1667 30.1667,90.8333 31.5,86.5C 32.5,86.5 33.5,86.5 34.5,86.5C 35.1392,82.2138 36.6392,78.2138 39,74.5C 40.5059,72.8258 42.3393,71.8258 44.5,71.5C 45.3784,66.6803 47.7117,62.6803 51.5,59.5C 57.3663,53.2826 64.0329,48.2826 71.5,44.5C 71.5,43.5 71.5,42.5 71.5,41.5C 74.1667,40.8333 76.8333,40.1667 79.5,39.5C 80.1667,37.5 80.8333,35.5 81.5,33.5C 80.5,33.5 79.5,33.5 78.5,33.5C 79.5676,32.5655 80.901,32.2322 82.5,32.5C 83.287,34.1042 84.6203,34.7709 86.5,34.5C 86.5,33.5 86.5,32.5 86.5,31.5C 89.5641,31.0725 92.5641,30.4058 95.5,29.5C 95.5,28.5 95.5,27.5 95.5,26.5C 97.5,26.5 99.5,26.5 101.5,26.5C 101.5,25.5 101.5,24.5 101.5,23.5C 101.833,23.5 102.167,23.5 102.5,23.5C 103.265,23.9234 104.098,24.2568 105,24.5C 107.547,22.8225 110.38,22.1559 113.5,22.5C 113.5,21.1667 113.5,19.8333 113.5,18.5C 113.833,18.5 114.167,18.5 114.5,18.5C 116.717,19.3686 119.05,19.702 121.5,19.5C 121.5,18.1667 121.5,16.8333 121.5,15.5C 122.5,15.5 123.5,15.5 124.5,15.5C 127.054,16.388 129.721,16.7214 132.5,16.5C 132.5,15.5 132.5,14.5 132.5,13.5C 134.167,13.5 135.833,13.5 137.5,13.5C 144.922,14.9019 152.256,14.4019 159.5,12C 157.942,11.79 156.609,11.29 155.5,10.5 Z M 146.5,23.5 C 163.671,23.1074 180.671,24.6074 197.5,28C 206.189,31.2311 214.855,34.3978 223.5,37.5C 223.5,38.5 223.5,39.5 223.5,40.5C 226.394,40.5564 229.061,41.3897 231.5,43C 234.35,44.9271 237.017,47.0938 239.5,49.5C 241.758,50.799 244.092,51.799 246.5,52.5C 248.167,55.1667 249.833,57.8333 251.5,60.5C 256.211,63.2228 260.211,66.8895 263.5,71.5C 264.325,72.3857 265.325,72.719 266.5,72.5C 270.415,79.4198 274.749,86.0865 279.5,92.5C 280.452,94.0453 280.785,95.712 280.5,97.5C 281.5,97.5 282.5,97.5 283.5,97.5C 286.551,105.474 289.717,113.474 293,121.5C 294.135,129.324 295.802,136.99 298,144.5C 298.667,155.5 298.667,166.5 298,177.5C 296.121,182.939 294.954,188.606 294.5,194.5C 290.623,205.083 286.957,215.749 283.5,226.5C 282.5,226.5 281.5,226.5 280.5,226.5C 280.798,230.171 279.298,232.837 276,234.5C 274.014,239.22 271.514,243.553 268.5,247.5C 258.282,258.592 247.282,268.759 235.5,278C 225.312,283.26 214.979,288.26 204.5,293C 198.038,294.291 191.705,295.957 185.5,298C 176.905,298.386 168.405,299.22 160,300.5C 151.595,299.22 143.095,298.386 134.5,298C 123.665,295.148 112.998,291.981 102.5,288.5C 102.5,287.5 102.5,286.5 102.5,285.5C 99.0173,285.309 95.6839,284.643 92.5,283.5C 92.5,282.5 92.5,281.5 92.5,280.5C 89.8333,279.833 87.1667,279.167 84.5,278.5C 84.5,277.5 84.5,276.5 84.5,275.5C 82.1667,274.833 79.8333,274.167 77.5,273.5C 77.5,272.5 77.5,271.5 77.5,270.5C 73.6544,268.519 69.9877,266.186 66.5,263.5C 65.6143,262.675 65.281,261.675 65.5,260.5C 62.5,260.167 60.8333,258.5 60.5,255.5C 59.5,255.5 58.5,255.5 57.5,255.5C 57.6495,254.448 57.4828,253.448 57,252.5C 51.5541,247.396 46.8874,241.729 43,235.5C 39.4749,229.25 36.1415,222.917 33,216.5C 28.2561,204.141 24.7561,191.308 22.5,178C 22.5,166.333 22.5,154.667 22.5,143C 24.7143,135.263 26.5476,127.43 28,119.5C 28.6667,118.833 29.3333,118.167 30,117.5C 31.6074,111.293 33.774,105.293 36.5,99.5C 37.4272,96.6484 39.0938,94.315 41.5,92.5C 42.4519,90.9547 42.7852,89.288 42.5,87.5C 43.5,87.5 44.5,87.5 45.5,87.5C 46.0488,85.0987 46.8822,82.7654 48,80.5C 51.6398,76.3518 55.1398,72.0185 58.5,67.5C 59.5237,66.1468 60.857,65.4802 62.5,65.5C 62.8333,62.5 64.5,60.8333 67.5,60.5C 67.5,59.5 67.5,58.5 67.5,57.5C 69.8333,56.8333 72.1667,56.1667 74.5,55.5C 75.2429,52.4304 77.2429,50.7637 80.5,50.5C 80.5,49.5 80.5,48.5 80.5,47.5C 89.9626,42.9352 99.2959,38.1019 108.5,33C 112.661,31.4221 116.994,30.2555 121.5,29.5C 121.709,28.914 122.043,28.414 122.5,28C 130.708,26.5754 138.708,25.0754 146.5,23.5 Z M 85.5,89.5 C 90.8131,90.7766 94.8131,93.9433 97.5,99C 94.1994,108.066 88.5328,109.9 80.5,104.5C 79.1667,101.167 79.1667,97.8333 80.5,94.5C 82.6288,93.2064 84.2955,91.5397 85.5,89.5 Z M 223.5,230.5 C 223.5,202.167 223.5,173.833 223.5,145.5C 222.14,142.38 221.307,139.047 221,135.5C 217.761,132.221 214.594,128.888 211.5,125.5C 209.204,123.448 206.537,122.448 203.5,122.5C 203.5,121.5 203.5,120.5 203.5,119.5C 191.814,119.168 180.148,119.501 168.5,120.5C 165.911,122.625 162.911,123.959 159.5,124.5C 159.167,127.5 157.5,129.167 154.5,129.5C 153.273,132.582 151.773,135.582 150,138.5C 149.61,142.514 149.11,146.514 148.5,150.5C 149.344,175.074 149.677,199.741 149.5,224.5C 148.533,226.762 147.866,229.095 147.5,231.5C 144.945,232.413 142.279,233.08 139.5,233.5C 136.721,233.08 134.055,232.413 131.5,231.5C 131.688,229.897 131.188,228.563 130,227.5C 129.569,183.438 129.402,139.605 129.5,96C 131.344,93.6571 133.344,91.4904 135.5,89.5C 138.744,90.2872 141.911,90.6205 145,90.5C 146,91.8333 147,93.1667 148,94.5C 148.728,98.5357 149.561,102.536 150.5,106.5C 152,106.833 153.5,107.167 155,107.5C 158.615,105.631 162.448,104.131 166.5,103C 179.846,102.167 193.179,102.334 206.5,103.5C 210.946,105.886 215.613,108.053 220.5,110C 223.966,113.034 227.299,116.2 230.5,119.5C 232.514,124.205 235.014,128.538 238,132.5C 238.139,135.825 239.139,138.825 241,141.5C 241.5,171.498 241.667,201.498 241.5,231.5C 235.188,234.33 229.188,233.997 223.5,230.5 Z M 82.5,141.5 C 85.8499,141.335 89.1832,141.502 92.5,142C 94.1757,143.177 95.5091,144.677 96.5,146.5C 96.8333,160.167 97.1667,173.833 97.5,187.5C 97.4502,202.281 96.7836,216.948 95.5,231.5C 92.9453,232.413 90.2786,233.08 87.5,233.5C 84.7214,233.08 82.0547,232.413 79.5,231.5C 79.3334,202.498 79.5,173.498 80,144.5C 80.6979,143.309 81.5313,142.309 82.5,141.5 Z"/></g>
<g><path style="opacity:1" fill="#303030" d="M 185.5,13.5 C 191.535,13.9076 197.535,14.5743 203.5,15.5C 203.5,16.5 203.5,17.5 203.5,18.5C 202.258,19.0434 200.925,19.3767 199.5,19.5C 196.04,18.0714 192.373,17.2381 188.5,17C 186.574,16.5776 185.574,15.4109 185.5,13.5 Z"/></g>
<g><path style="opacity:1" fill="#4e4e4e" d="M 121.5,15.5 C 121.5,16.8333 121.5,18.1667 121.5,19.5C 119.05,19.702 116.717,19.3686 114.5,18.5C 116.03,15.9791 118.364,14.9791 121.5,15.5 Z"/></g>
<g><path style="opacity:1" fill="#444444" d="M 207.5,18.5 C 211.212,18.9608 214.879,19.6275 218.5,20.5C 218.5,21.5 218.5,22.5 218.5,23.5C 220.781,23.0773 222.448,23.744 223.5,25.5C 222.903,26.1386 222.07,26.472 221,26.5C 218.64,25.22 216.14,24.5533 213.5,24.5C 213.5,23.5 213.5,22.5 213.5,21.5C 211.5,21.5 209.5,21.5 207.5,21.5C 207.5,20.5 207.5,19.5 207.5,18.5 Z"/></g>
<g><path style="opacity:1" fill="#3c3c3c" d="M 113.5,18.5 C 113.5,19.8333 113.5,21.1667 113.5,22.5C 110.38,22.1559 107.547,22.8225 105,24.5C 104.098,24.2568 103.265,23.9234 102.5,23.5C 102.5,22.5 102.5,21.5 102.5,20.5C 106.121,19.6275 109.788,18.9608 113.5,18.5 Z"/></g>
<g><path style="opacity:1" fill="#3d3d3d" d="M 101.5,23.5 C 101.5,24.5 101.5,25.5 101.5,26.5C 99.5,26.5 97.5,26.5 95.5,26.5C 95.5,27.5 95.5,28.5 95.5,29.5C 92.5641,30.4058 89.5641,31.0725 86.5,31.5C 86.5,32.5 86.5,33.5 86.5,34.5C 84.6203,34.7709 83.287,34.1042 82.5,32.5C 84.7664,30.0264 87.433,28.0264 90.5,26.5C 93.9679,24.6759 97.6346,23.6759 101.5,23.5 Z"/></g>
<g><path style="opacity:1" fill="#434343" d="M 234.5,30.5 C 239.307,31.1944 242.974,33.5277 245.5,37.5C 245.265,38.0967 244.765,38.4301 244,38.5C 240.885,37.0256 237.719,35.6922 234.5,34.5C 234.5,33.1667 234.5,31.8333 234.5,30.5 Z"/></g>
<g><path style="opacity:1" fill="#474747" d="M 249.5,38.5 C 250.964,40.6297 252.964,41.963 255.5,42.5C 255.831,44.3224 256.498,45.9891 257.5,47.5C 257.265,48.0967 256.765,48.4301 256,48.5C 252.475,46.8205 250.308,44.1539 249.5,40.5C 245.5,39.8333 245.5,39.1667 249.5,38.5 Z"/></g>
<g><path style="opacity:1" fill="#3b3b3b" d="M 78.5,33.5 C 79.5,33.5 80.5,33.5 81.5,33.5C 80.8333,35.5 80.1667,37.5 79.5,39.5C 76.8333,40.1667 74.1667,40.8333 71.5,41.5C 71.5,42.5 71.5,43.5 71.5,44.5C 64.0329,48.2826 57.3663,53.2826 51.5,59.5C 47.7117,62.6803 45.3784,66.6803 44.5,71.5C 42.3393,71.8258 40.5059,72.8258 39,74.5C 36.6392,78.2138 35.1392,82.2138 34.5,86.5C 33.5,86.5 32.5,86.5 31.5,86.5C 30.1667,90.8333 28.8333,95.1667 27.5,99.5C 26.1667,99.5 24.8333,99.5 23.5,99.5C 25.5621,93.0098 27.8954,86.6765 30.5,80.5C 31.5,80.5 32.5,80.5 33.5,80.5C 34.64,77.9752 35.3067,75.3085 35.5,72.5C 38.5,72.1667 40.1667,70.5 40.5,67.5C 41.675,67.719 42.675,67.3857 43.5,66.5C 42.6744,65.549 42.5078,64.549 43,63.5C 49.1642,58.169 54.9976,52.5024 60.5,46.5C 62.0453,45.5481 63.712,45.2148 65.5,45.5C 65.5,44.5 65.5,43.5 65.5,42.5C 68.5,42.1667 70.1667,40.5 70.5,37.5C 73.9968,37.7055 76.6635,36.3722 78.5,33.5 Z"/></g>
<g><path style="opacity:1" fill="#343434" d="M 262.5,50.5 C 263.675,50.281 264.675,50.6143 265.5,51.5C 268.613,53.7337 270.613,56.7337 271.5,60.5C 272.524,61.8532 273.857,62.5198 275.5,62.5C 275.833,65.5 277.5,67.1667 280.5,67.5C 280.5,68.5 280.5,69.5 280.5,70.5C 281.5,70.5 282.5,70.5 283.5,70.5C 283.567,71.9587 283.234,73.2921 282.5,74.5C 280.109,72.452 277.442,70.7854 274.5,69.5C 274.5,68.5 274.5,67.5 274.5,66.5C 267.922,63.2361 263.922,57.9027 262.5,50.5 Z"/></g>
<g><path style="opacity:1" fill="#070707" d="M 79.5,77.5 C 84.8437,77.334 90.1771,77.5006 95.5,78C 98.0554,80.4284 101.055,81.9284 104.5,82.5C 105.626,85.1407 106.959,87.8074 108.5,90.5C 112.184,105.426 107.184,115.926 93.5,122C 89.4589,122.827 85.4589,122.66 81.5,121.5C 79.8507,120.012 77.8507,119.012 75.5,118.5C 73.1768,116.011 70.6768,113.678 68,111.5C 64.8458,103.63 64.6791,95.6303 67.5,87.5C 68.675,87.719 69.675,87.3857 70.5,86.5C 73.4479,83.3318 76.4479,80.3318 79.5,77.5 Z M 85.5,89.5 C 84.2955,91.5397 82.6288,93.2064 80.5,94.5C 79.1667,97.8333 79.1667,101.167 80.5,104.5C 88.5328,109.9 94.1994,108.066 97.5,99C 94.8131,93.9433 90.8131,90.7766 85.5,89.5 Z"/></g>
<g><path style="opacity:1" fill="#030303" d="M 172.5,87.5 C 172.414,88.4959 172.748,89.3292 173.5,90C 181.5,90.6667 189.5,90.6667 197.5,90C 198.252,89.3292 198.586,88.4959 198.5,87.5C 202.971,88.3696 207.304,89.3696 211.5,90.5C 208.5,90.5 205.5,90.5 202.5,90.5C 202.33,91.8221 202.663,92.9887 203.5,94C 209.835,95.302 216.169,96.802 222.5,98.5C 222.5,99.5 222.5,100.5 222.5,101.5C 224.677,101.586 226.677,102.253 228.5,103.5C 231.105,106.902 234.105,109.902 237.5,112.5C 240.429,117.025 242.763,121.692 244.5,126.5C 246.199,126.473 247.533,125.806 248.5,124.5C 249.933,127.038 251.266,129.705 252.5,132.5C 253.058,136.977 253.891,141.311 255,145.5C 255.667,174.167 255.667,202.833 255,231.5C 253.798,233.677 253.298,236.011 253.5,238.5C 250.417,241.539 246.75,243.873 242.5,245.5C 242.5,244.5 242.5,243.5 242.5,242.5C 235.825,242.334 229.158,242.5 222.5,243C 221.944,243.383 221.611,243.883 221.5,244.5C 219.805,243.989 218.139,243.322 216.5,242.5C 215.5,240.833 214.167,239.5 212.5,238.5C 211.833,208.833 211.167,179.167 210.5,149.5C 207.139,136.84 198.805,131.173 185.5,132.5C 178.99,132.131 172.99,133.631 167.5,137C 165.848,140.314 164.014,143.481 162,146.5C 161.833,176.172 161.333,205.839 160.5,235.5C 159.493,238.457 158.159,241.124 156.5,243.5C 153.549,243.287 150.882,243.954 148.5,245.5C 148.423,244.25 147.756,243.417 146.5,243C 141.5,242.333 136.5,242.333 131.5,243C 130.748,243.671 130.414,244.504 130.5,245.5C 127.975,244.36 125.308,243.693 122.5,243.5C 122.5,242.5 122.5,241.5 122.5,240.5C 121.5,240.5 120.5,240.5 119.5,240.5C 118.833,237.5 118.167,234.5 117.5,231.5C 118.496,231.586 119.329,231.252 120,230.5C 120.667,184.5 120.667,138.5 120,92.5C 119.329,91.7476 118.496,91.4142 117.5,91.5C 118.406,88.5641 119.072,85.5641 119.5,82.5C 122.475,81.6795 125.141,80.3461 127.5,78.5C 135.5,77.1667 143.5,77.1667 151.5,78.5C 153.758,79.9719 156.092,81.4719 158.5,83C 159.013,86.8465 161.18,89.0132 165,89.5C 167.49,88.6643 169.99,87.9976 172.5,87.5 Z M 223.5,230.5 C 223.5,202.167 223.5,173.833 223.5,145.5C 222.14,142.38 221.307,139.047 221,135.5C 217.761,132.221 214.594,128.888 211.5,125.5C 209.204,123.448 206.537,122.448 203.5,122.5C 203.5,121.5 203.5,120.5 203.5,119.5C 191.814,119.168 180.148,119.501 168.5,120.5C 165.911,122.625 162.911,123.959 159.5,124.5C 159.167,127.5 157.5,129.167 154.5,129.5C 153.273,132.582 151.773,135.582 150,138.5C 149.61,142.514 149.11,146.514 148.5,150.5C 149.344,175.074 149.677,199.741 149.5,224.5C 148.533,226.762 147.866,229.095 147.5,231.5C 144.945,232.413 142.279,233.08 139.5,233.5C 136.721,233.08 134.055,232.413 131.5,231.5C 131.688,229.897 131.188,228.563 130,227.5C 129.569,183.438 129.402,139.605 129.5,96C 131.344,93.6571 133.344,91.4904 135.5,89.5C 138.744,90.2872 141.911,90.6205 145,90.5C 146,91.8333 147,93.1667 148,94.5C 148.728,98.5357 149.561,102.536 150.5,106.5C 152,106.833 153.5,107.167 155,107.5C 158.615,105.631 162.448,104.131 166.5,103C 179.846,102.167 193.179,102.334 206.5,103.5C 210.946,105.886 215.613,108.053 220.5,110C 223.966,113.034 227.299,116.2 230.5,119.5C 232.514,124.205 235.014,128.538 238,132.5C 238.139,135.825 239.139,138.825 241,141.5C 241.5,171.498 241.667,201.498 241.5,231.5C 235.188,234.33 229.188,233.997 223.5,230.5 Z"/></g>
<g><path style="opacity:1" fill="#3e3e3e" d="M 172.5,87.5 C 181.167,87.5 189.833,87.5 198.5,87.5C 198.586,88.4959 198.252,89.3292 197.5,90C 189.5,90.6667 181.5,90.6667 173.5,90C 172.748,89.3292 172.414,88.4959 172.5,87.5 Z"/></g>
<g><path style="opacity:1" fill="#1b1b1b" d="M 211.5,90.5 C 218.117,93.0574 224.45,96.0574 230.5,99.5C 230.5,100.5 230.5,101.5 230.5,102.5C 231.675,102.281 232.675,102.614 233.5,103.5C 235.167,105.833 237.167,107.833 239.5,109.5C 240.386,110.325 240.719,111.325 240.5,112.5C 241.5,112.5 242.5,112.5 243.5,112.5C 243.78,115.839 245.28,118.506 248,120.5C 248.49,121.793 248.657,123.127 248.5,124.5C 247.533,125.806 246.199,126.473 244.5,126.5C 242.763,121.692 240.429,117.025 237.5,112.5C 234.105,109.902 231.105,106.902 228.5,103.5C 226.677,102.253 224.677,101.586 222.5,101.5C 222.5,100.5 222.5,99.5 222.5,98.5C 216.169,96.802 209.835,95.302 203.5,94C 202.663,92.9887 202.33,91.8221 202.5,90.5C 205.5,90.5 208.5,90.5 211.5,90.5 Z"/></g>
<g><path style="opacity:1" fill="#232323" d="M 117.5,91.5 C 118.496,91.4142 119.329,91.7476 120,92.5C 120.667,138.5 120.667,184.5 120,230.5C 119.329,231.252 118.496,231.586 117.5,231.5C 117.5,184.833 117.5,138.167 117.5,91.5 Z"/></g>
<g><path style="opacity:1" fill="#333333" d="M 23.5,99.5 C 23.9817,100.416 24.315,101.416 24.5,102.5C 22.4855,104.707 21.4855,107.373 21.5,110.5C 20.5,110.5 19.5,110.5 18.5,110.5C 18.6101,107 19.4434,103.666 21,100.5C 21.6708,99.7476 22.5041,99.4142 23.5,99.5 Z"/></g>
<g><path style="opacity:1" fill="#2c2c2c" d="M 283.5,75.5 C 285.1,76.252 286.6,77.252 288,78.5C 288.492,79.549 288.326,80.549 287.5,81.5C 288.325,82.3857 289.325,82.719 290.5,82.5C 293.665,88.4446 296.832,94.4446 300,100.5C 301.157,105.127 301.99,109.793 302.5,114.5C 303.5,114.5 304.5,114.5 305.5,114.5C 306.167,119.833 306.833,125.167 307.5,130.5C 306.417,130.461 305.417,130.127 304.5,129.5C 303.12,124.792 301.787,120.125 300.5,115.5C 299.325,115.719 298.325,115.386 297.5,114.5C 298.465,109.874 297.631,105.54 295,101.5C 294.505,99.5273 294.338,97.5273 294.5,95.5C 293.5,95.5 292.5,95.5 291.5,95.5C 290.594,92.5641 289.928,89.5641 289.5,86.5C 288.5,86.5 287.5,86.5 286.5,86.5C 285.876,83.0799 284.543,79.9133 282.5,77C 282.57,76.2352 282.903,75.7352 283.5,75.5 Z"/></g>
<g><path style="opacity:1" fill="#2c2c2c" d="M 15.5,119.5 C 16.094,121.41 16.4274,123.41 16.5,125.5C 15.4165,130.125 14.5832,134.792 14,139.5C 13.0471,141.373 11.8804,141.706 10.5,140.5C 10.5,136.833 10.5,133.167 10.5,129.5C 11.5,129.5 12.5,129.5 13.5,129.5C 12.931,125.671 13.5977,122.337 15.5,119.5 Z"/></g>
<g><path style="opacity:1" fill="#020202" d="M 96.5,245.5 C 96.5858,244.504 96.2524,243.671 95.5,243C 89.8431,242.501 84.1764,242.334 78.5,242.5C 78.5,243.5 78.5,244.5 78.5,245.5C 71.8547,243.521 67.5214,239.188 65.5,232.5C 66.5,232.5 67.5,232.5 68.5,232.5C 68.5,202.833 68.5,173.167 68.5,143.5C 67.5,143.5 66.5,143.5 65.5,143.5C 66.0271,140.769 66.8604,138.102 68,135.5C 70.4899,133.682 72.9899,132.015 75.5,130.5C 83.8333,129.167 92.1667,129.167 100.5,130.5C 102.623,132.31 104.957,133.643 107.5,134.5C 107.231,136.429 107.731,138.095 109,139.5C 109.667,171.5 109.667,203.5 109,235.5C 107.731,236.905 107.231,238.571 107.5,240.5C 106.5,240.5 105.5,240.5 104.5,240.5C 104.5,241.5 104.5,242.5 104.5,243.5C 101.692,243.693 99.0248,244.36 96.5,245.5 Z M 82.5,141.5 C 81.5313,142.309 80.6979,143.309 80,144.5C 79.5,173.498 79.3334,202.498 79.5,231.5C 82.0547,232.413 84.7214,233.08 87.5,233.5C 90.2786,233.08 92.9453,232.413 95.5,231.5C 96.7836,216.948 97.4502,202.281 97.5,187.5C 97.1667,173.833 96.8333,160.167 96.5,146.5C 95.5091,144.677 94.1757,143.177 92.5,142C 89.1832,141.502 85.8499,141.335 82.5,141.5 Z"/></g>
<g><path style="opacity:1" fill="#464646" d="M 310.5,135.5 C 310.5,138.5 310.5,141.5 310.5,144.5C 307.535,144.27 306.202,142.603 306.5,139.5C 306.462,136.192 307.795,134.858 310.5,135.5 Z"/></g>
<g><path style="opacity:1" fill="#191919" d="M 223.5,145.5 C 223.5,173.833 223.5,202.167 223.5,230.5C 221.278,230.441 220.278,229.275 220.5,227C 220.726,199.871 220.726,172.704 220.5,145.5C 221.5,145.5 222.5,145.5 223.5,145.5 Z"/></g>
<g><path style="opacity:1" fill="#474747" d="M 8.5,150.5 C 9.5,150.5 10.5,150.5 11.5,150.5C 11.8005,158.586 11.4672,166.586 10.5,174.5C 8.53316,166.903 7.8665,158.903 8.5,150.5 Z"/></g>
<g><path style="opacity:1" fill="#373737" d="M 65.5,143.5 C 66.5,143.5 67.5,143.5 68.5,143.5C 68.5,173.167 68.5,202.833 68.5,232.5C 67.5,232.5 66.5,232.5 65.5,232.5C 65.5,202.833 65.5,173.167 65.5,143.5 Z"/></g>
<g><path style="opacity:1" fill="#414141" d="M 310.5,176.5 C 310.5,181.5 310.5,186.5 310.5,191.5C 309.5,191.5 308.5,191.5 307.5,191.5C 306.632,187.192 306.466,182.859 307,178.5C 307.422,174.795 308.588,174.128 310.5,176.5 Z"/></g>
<g><path style="opacity:1" fill="#414141" d="M 10.5,182.5 C 12.0174,182.511 13.1841,183.177 14,184.5C 14.4954,187.531 14.3287,190.531 13.5,193.5C 12.5,193.5 11.5,193.5 10.5,193.5C 10.5,189.833 10.5,186.167 10.5,182.5 Z"/></g>
<g><path style="opacity:1" fill="#474747" d="M 13.5,196.5 C 14.4959,196.414 15.3292,196.748 16,197.5C 16.7891,199.712 16.6225,201.712 15.5,203.5C 13.6565,201.721 12.9898,199.388 13.5,196.5 Z"/></g>
<g><path style="opacity:1" fill="#2c2c2c" d="M 307.5,192.5 C 307.119,197.877 306.453,203.21 305.5,208.5C 304.5,208.5 303.5,208.5 302.5,208.5C 301.957,207.258 301.623,205.925 301.5,204.5C 303.14,200.734 303.807,196.734 303.5,192.5C 304.833,192.5 306.167,192.5 307.5,192.5 Z"/></g>
<g><path style="opacity:1" fill="#3f3f3f" d="M 18.5,211.5 C 17.5,211.5 16.5,211.5 15.5,211.5C 15.5,209.5 15.5,207.5 15.5,205.5C 16.7079,204.766 18.0413,204.433 19.5,204.5C 19.702,206.95 19.3686,209.283 18.5,211.5 Z"/></g>
<g><path style="opacity:1" fill="#393939" d="M 18.5,212.5 C 19.8333,212.5 21.1667,212.5 22.5,212.5C 23.3833,217.044 24.7166,221.544 26.5,226C 26.472,227.07 26.1386,227.903 25.5,228.5C 23.744,227.448 23.0773,225.781 23.5,223.5C 22.5,223.5 21.5,223.5 20.5,223.5C 19.6275,219.879 18.9608,216.212 18.5,212.5 Z"/></g>
<g><path style="opacity:1" fill="#313131" d="M 302.5,209.5 C 301.833,214.167 301.167,218.833 300.5,223.5C 299.5,223.5 298.5,223.5 297.5,223.5C 296.833,226.833 296.167,230.167 295.5,233.5C 293.821,233.285 292.821,233.952 292.5,235.5C 291.5,235.5 290.5,235.5 289.5,235.5C 289.5,234.5 289.5,233.5 289.5,232.5C 290.5,232.5 291.5,232.5 292.5,232.5C 294.704,224.887 296.704,217.22 298.5,209.5C 299.833,209.5 301.167,209.5 302.5,209.5 Z"/></g>
<g><path style="opacity:1" fill="#313131" d="M 25.5,229.5 C 26.8333,229.5 28.1667,229.5 29.5,229.5C 31.4281,234.228 33.7614,238.895 36.5,243.5C 36.4573,244.416 36.1239,245.083 35.5,245.5C 33.9891,244.498 32.3224,243.831 30.5,243.5C 29.8333,240.167 29.1667,236.833 28.5,233.5C 27.5,233.5 26.5,233.5 25.5,233.5C 25.5,232.167 25.5,230.833 25.5,229.5 Z"/></g>
<g><path style="opacity:1" fill="#313131" d="M 96.5,245.5 C 90.5,245.5 84.5,245.5 78.5,245.5C 78.5,244.5 78.5,243.5 78.5,242.5C 84.1764,242.334 89.8431,242.501 95.5,243C 96.2524,243.671 96.5858,244.504 96.5,245.5 Z"/></g>
<g><path style="opacity:1" fill="#313131" d="M 148.5,245.5 C 142.5,245.5 136.5,245.5 130.5,245.5C 130.414,244.504 130.748,243.671 131.5,243C 136.5,242.333 141.5,242.333 146.5,243C 147.756,243.417 148.423,244.25 148.5,245.5 Z"/></g>
<g><path style="opacity:1" fill="#2a2a2a" d="M 242.5,245.5 C 235.313,245.825 228.313,245.491 221.5,244.5C 221.611,243.883 221.944,243.383 222.5,243C 229.158,242.5 235.825,242.334 242.5,242.5C 242.5,243.5 242.5,244.5 242.5,245.5 Z"/></g>
<g><path style="opacity:1" fill="#383838" d="M 290.5,237.5 C 288.614,241.194 286.947,244.86 285.5,248.5C 284.325,248.281 283.325,248.614 282.5,249.5C 283.326,250.451 283.492,251.451 283,252.5C 279.623,255.054 276.456,257.721 273.5,260.5C 272.957,260.44 272.624,260.107 272.5,259.5C 274.025,256.437 276.025,253.77 278.5,251.5C 279.799,249.242 280.799,246.908 281.5,244.5C 282.5,244.5 283.5,244.5 284.5,244.5C 284.884,242.071 285.551,239.737 286.5,237.5C 287.833,237.5 289.167,237.5 290.5,237.5 Z"/></g>
<g><path style="opacity:1" fill="#444444" d="M 43.5,255.5 C 40.5,255.167 38.8333,253.5 38.5,250.5C 37.5,250.5 36.5,250.5 35.5,250.5C 35.5,249.5 35.5,248.5 35.5,247.5C 37.5983,246.086 38.5983,246.752 38.5,249.5C 41.5696,250.243 43.2363,252.243 43.5,255.5 Z"/></g>
<g><path style="opacity:1" fill="#484848" d="M 45.5,259.5 C 46.552,259.351 47.552,259.517 48.5,260C 50.3773,262.642 52.7106,264.809 55.5,266.5C 58.2647,269.041 60.2647,272.041 61.5,275.5C 59.5,274.833 57.5,274.167 55.5,273.5C 55.1667,270.5 53.5,268.833 50.5,268.5C 50.1667,265.5 48.5,263.833 45.5,263.5C 45.5,262.167 45.5,260.833 45.5,259.5 Z"/></g>
<g><path style="opacity:1" fill="#414141" d="M 260.5,273.5 C 258.227,276.777 255.56,279.777 252.5,282.5C 251.5,282.5 250.5,282.5 249.5,282.5C 251.322,277.401 254.989,274.401 260.5,273.5 Z"/></g>
<g><path style="opacity:1" fill="#454545" d="M 248.5,283.5 C 248.179,285.048 247.179,285.715 245.5,285.5C 245.5,286.5 245.5,287.5 245.5,288.5C 244.5,288.5 243.5,288.5 242.5,288.5C 242.615,284.021 244.615,282.354 248.5,283.5 Z"/></g>
<g><path style="opacity:1" fill="#343434" d="M 83.5,292.5 C 81.1314,290.649 78.4647,289.316 75.5,288.5C 75.5,287.5 75.5,286.5 75.5,285.5C 70.7758,285.103 67.4425,282.77 65.5,278.5C 67.6257,277.897 69.9591,277.897 72.5,278.5C 72.5,279.5 72.5,280.5 72.5,281.5C 76.6883,284.663 81.3549,286.997 86.5,288.5C 86.5,289.833 86.5,291.167 86.5,292.5C 85.5,292.5 84.5,292.5 83.5,292.5 Z"/></g>
<g><path style="opacity:1" fill="#303030" d="M 240.5,288.5 C 239.934,290.078 238.934,291.412 237.5,292.5C 233.36,294.756 229.027,296.423 224.5,297.5C 224.5,296.167 224.5,294.833 224.5,293.5C 229.233,291.388 234.066,289.388 239,287.5C 239.765,287.57 240.265,287.903 240.5,288.5 Z"/></g>
<g><path style="opacity:1" fill="#343434" d="M 101.5,300.5 C 99.396,300.799 97.396,300.466 95.5,299.5C 92.433,297.974 89.7664,295.974 87.5,293.5C 87.7352,292.903 88.2352,292.57 89,292.5C 92.9633,294.417 97.13,295.751 101.5,296.5C 101.5,297.833 101.5,299.167 101.5,300.5 Z"/></g>
<g><path style="opacity:1" fill="#363636" d="M 114.5,305.5 C 112.167,305.5 109.833,305.5 107.5,305.5C 107.5,304.5 107.5,303.5 107.5,302.5C 105.219,302.923 103.552,302.256 102.5,300.5C 103.274,299.853 104.274,299.52 105.5,299.5C 108.116,300.513 110.782,301.347 113.5,302C 114.337,303.011 114.67,304.178 114.5,305.5 Z"/></g>
<g><path style="opacity:1" fill="#393939" d="M 223.5,297.5 C 223.5,298.5 223.5,299.5 223.5,300.5C 219.879,301.373 216.212,302.039 212.5,302.5C 212.5,301.5 212.5,300.5 212.5,299.5C 214.5,299.5 216.5,299.5 218.5,299.5C 218.5,298.5 218.5,297.5 218.5,296.5C 220.292,296.366 221.958,296.699 223.5,297.5 Z"/></g>
<g><path style="opacity:1" fill="#4a4a4a" d="M 211.5,302.5 C 210.32,304.913 208.32,305.913 205.5,305.5C 205.5,304.167 205.5,302.833 205.5,301.5C 207.565,301.517 209.565,301.85 211.5,302.5 Z"/></g>
<g><path style="opacity:1" fill="#2f2f2f" d="M 134.5,310.5 C 128.512,310.235 122.846,309.235 117.5,307.5C 117.33,306.178 117.663,305.011 118.5,304C 121.352,303.064 123.685,303.73 125.5,306C 128.167,306.333 130.833,306.667 133.5,307C 135.373,307.953 135.706,309.12 134.5,310.5 Z"/></g>
<g><path style="opacity:1" fill="#3e3e3e" d="M 203.5,305.5 C 202.082,307.308 200.082,307.975 197.5,307.5C 197.5,306.5 197.5,305.5 197.5,304.5C 199.735,304.205 201.735,304.539 203.5,305.5 Z"/></g>
<g><path style="opacity:1" fill="#464646" d="M 193.5,307.5 C 193.5,308.5 193.5,309.5 193.5,310.5C 191.167,310.5 188.833,310.5 186.5,310.5C 186.5,309.167 186.5,307.833 186.5,306.5C 188.95,306.298 191.283,306.631 193.5,307.5 Z"/></g>
<g><path style="opacity:1" fill="#404040" d="M 181.5,310.5 C 181.389,311.117 181.056,311.617 180.5,312C 167.167,312.667 153.833,312.667 140.5,312C 139.944,311.617 139.611,311.117 139.5,310.5C 153.493,309.185 167.493,309.185 181.5,310.5 Z"/></g>
<g><path style="opacity:1" fill="#f9faf9" d="M 321.5,312.5 C 321.5,315.5 321.5,318.5 321.5,321.5C 259.167,321.5 196.833,321.5 134.5,321.5C 134.5,320.167 134.5,318.833 134.5,317.5C 195.834,316.918 257.168,316.251 318.5,315.5C 318.5,314.5 318.5,313.5 318.5,312.5C 319.5,312.5 320.5,312.5 321.5,312.5 Z"/></g>
</svg>
