<?xml version="1.0" standalone="no"?>
<!DOCTYPE svg PUBLIC "-//W3C//DTD SVG 20010904//EN"
 "http://www.w3.org/TR/2001/REC-SVG-20010904/DTD/svg10.dtd">
<svg version="1.0" xmlns="http://www.w3.org/2000/svg"
 width="969.542168pt" height="969.161863pt" viewBox="0 0 969.542168 969.161863"
 preserveAspectRatio="xMidYMid meet">
<metadata>
Created by potrace 1.12, written by Peter Selinger 2001-2015
</metadata>
<g transform="translate(-28.479702,991.781283) scale(0.100000,-0.100000)"
fill="#000000" stroke="none">
<path d="M4675 9909 c-223 -12 -484 -44 -690 -83 -215 -42 -290 -59 -475 -113
-47 -14 -94 -27 -105 -30 -96 -24 -332 -106 -445 -155 -442 -191 -662 -387
-760 -680 -86 -257 -72 -495 42 -722 98 -195 282 -358 501 -445 145 -58 242
-75 432 -75 190 0 253 10 730 124 107 25 277 56 460 82 204 29 743 32 900 5
384 -66 570 -156 645 -312 19 -41 24 -66 24 -135 0 -128 -35 -193 -177 -331
-80 -78 -80 -73 -5 -188 27 -42 74 -127 104 -189 178 -372 224 -755 140 -1166
-14 -65 -22 -125 -19 -133 6 -16 35 -14 103 5 19 6 62 18 95 27 45 13 101 18
220 18 148 1 166 -1 250 -27 160 -50 293 -133 402 -250 93 -101 123 -150 203
-331 48 -110 62 -406 25 -540 -50 -184 -135 -332 -270 -469 -144 -146 -273
-225 -465 -284 -97 -30 -300 -40 -420 -22 -279 44 -535 223 -659 460 -118 226
-143 496 -68 720 24 73 94 211 172 340 115 192 181 369 221 590 23 129 23 418
0 550 -16 90 -26 126 -75 295 -27 92 -129 300 -193 395 -260 383 -662 647
-1128 741 -100 20 -144 23 -345 23 -208 0 -243 -3 -361 -26 -274 -55 -511
-154 -729 -306 -366 -253 -622 -602 -739 -1006 -85 -292 -96 -629 -32 -922 66
-298 226 -593 440 -808 124 -126 170 -163 298 -245 280 -177 572 -275 865
-288 74 -4 127 -11 133 -17 25 -31 -42 -186 -132 -308 -153 -206 -196 -269
-242 -360 -29 -57 -63 -143 -76 -193 -22 -79 -25 -110 -25 -260 1 -146 4 -181
23 -250 102 -358 335 -631 689 -808 203 -102 444 -178 673 -212 58 -8 130 -20
160 -26 84 -16 575 -23 720 -10 221 20 304 29 370 41 36 6 90 15 120 20 146
25 515 114 700 170 322 96 479 83 568 -46 23 -34 26 -50 27 -114 0 -67 -3 -80
-29 -118 -29 -43 -94 -91 -166 -124 -273 -124 -368 -160 -600 -227 -117 -33
-334 -86 -395 -96 -22 -3 -60 -10 -85 -15 -306 -61 -556 -84 -915 -84 -332 -1
-529 16 -880 75 -207 35 -599 148 -825 240 -142 57 -300 127 -345 153 -22 13
-78 43 -125 67 -86 44 -171 96 -357 220 -91 60 -150 106 -352 270 -31 25 -137
129 -236 230 -505 517 -831 1116 -1009 1849 -21 85 -60 330 -82 505 -25 193
-24 683 0 870 36 275 65 430 116 630 111 432 286 817 543 1200 l47 70 -25 20
c-14 12 -84 57 -155 100 -72 44 -150 92 -173 106 -23 14 -102 63 -176 108
-158 95 -142 98 -229 -46 -30 -48 -72 -117 -94 -153 -74 -119 -328 -641 -328
-673 0 -7 -4 -17 -9 -23 -27 -29 -149 -432 -205 -679 -52 -228 -53 -234 -75
-400 -33 -255 -40 -343 -45 -550 -11 -537 47 -1053 164 -1450 5 -16 23 -79 40
-140 31 -107 82 -260 99 -300 5 -11 35 -81 67 -155 226 -528 545 -999 959
-1416 265 -267 349 -336 733 -611 29 -21 69 -48 90 -59 20 -12 96 -56 167 -99
221 -130 533 -281 710 -342 39 -13 79 -28 90 -33 28 -12 178 -64 255 -89 289
-91 485 -132 970 -201 194 -28 326 -35 660 -34 485 2 799 36 1284 138 163 35
511 134 581 166 11 5 40 16 65 24 244 82 514 214 680 332 195 137 328 326 381
539 31 124 31 314 0 434 -100 394 -383 651 -810 737 -67 13 -118 15 -250 11
-91 -3 -184 -10 -206 -15 -22 -6 -85 -20 -140 -32 -55 -12 -134 -31 -175 -42
-174 -46 -428 -94 -660 -124 -185 -24 -629 -25 -815 0 -311 41 -544 110 -683
204 -125 85 -176 174 -175 303 0 104 40 179 158 299 52 53 95 104 95 114 0 9
-22 49 -48 89 -110 164 -187 362 -231 587 -50 257 -33 618 40 854 7 23 5 34
-7 48 -23 24 -49 23 -136 -6 -129 -43 -240 -59 -373 -53 -205 9 -369 69 -522
192 -195 156 -300 359 -324 628 -30 329 62 594 286 820 179 181 381 281 631
312 224 28 435 -24 627 -154 77 -52 193 -167 246 -245 43 -62 114 -214 137
-296 27 -92 27 -356 0 -450 -25 -86 -79 -202 -169 -363 -151 -267 -198 -385
-238 -589 -18 -92 -22 -150 -23 -313 0 -191 3 -223 36 -380 11 -50 58 -203 81
-260 32 -80 120 -243 182 -336 97 -146 284 -332 430 -429 187 -124 419 -223
633 -270 311 -69 765 -36 1027 74 22 9 58 24 80 34 71 29 248 123 317 168 145
93 317 243 413 359 269 324 391 617 436 1046 29 275 -42 627 -184 919 -121
248 -346 500 -583 653 -142 91 -376 199 -504 230 -165 41 -205 48 -347 59 -87
7 -154 17 -157 23 -2 6 5 43 15 82 19 76 21 80 196 335 56 81 117 173 137 205
44 72 89 201 111 318 32 166 4 420 -65 591 -33 83 -122 238 -172 299 -86 105
-263 256 -366 312 -20 11 -59 32 -85 47 -135 76 -354 148 -562 185 -66 12
-145 26 -175 32 -82 16 -583 23 -735 10 -180 -16 -285 -28 -385 -46 -160 -29
-467 -105 -635 -157 -55 -17 -134 -41 -175 -54 -136 -41 -201 -54 -278 -54
-137 1 -232 60 -232 144 0 46 51 146 94 184 54 48 190 112 392 187 99 36 190
70 204 75 28 11 187 57 240 71 324 83 797 138 1175 139 263 0 594 -31 890 -84
346 -62 833 -231 1145 -398 203 -109 489 -291 595 -380 11 -10 47 -39 81 -65
157 -124 373 -332 491 -473 230 -273 380 -493 535 -788 47 -88 67 -133 145
-322 19 -47 39 -94 44 -105 39 -89 112 -342 169 -590 9 -36 36 -213 60 -385
49 -353 32 -850 -44 -1265 -14 -76 -86 -367 -106 -430 -6 -16 -21 -64 -34
-106 -24 -73 -65 -183 -91 -244 -7 -16 -25 -58 -39 -92 -29 -69 -140 -296
-175 -358 -27 -47 -114 -190 -176 -290 -49 -79 -50 -77 33 -120 21 -11 55 -31
77 -46 22 -14 74 -44 115 -66 97 -52 302 -172 315 -184 22 -22 54 -8 85 35 16
25 30 47 30 51 0 3 17 32 38 63 113 167 279 497 377 748 26 66 55 139 65 164
42 105 148 481 172 610 5 30 14 75 19 100 15 76 49 300 60 390 47 403 37 918
-25 1330 -25 163 -75 408 -99 488 -8 26 -27 92 -42 147 -75 273 -175 526 -327
830 -92 184 -133 255 -256 441 -153 231 -245 350 -418 544 -439 490 -927 846
-1579 1151 -178 83 -443 180 -675 245 -47 13 -101 29 -120 34 -166 49 -551
120 -757 141 -272 27 -690 35 -978 18z"/>
</g>
</svg>
