<?xml version="1.0" standalone="no"?>
<!DOCTYPE svg PUBLIC "-//W3C//DTD SVG 20010904//EN"
 "http://www.w3.org/TR/2001/REC-SVG-20010904/DTD/svg10.dtd">
<svg version="1.0" xmlns="http://www.w3.org/2000/svg"
 width="499.385032pt" height="434.466793pt" viewBox="0 0 499.385032 434.466793"
 preserveAspectRatio="xMidYMid meet">
<metadata>
Created by potrace 1.12, written by Peter Selinger 2001-2015
</metadata>
<g transform="translate(-6.511177,473.196158) scale(0.100000,-0.100000)"
fill="#000000" stroke="none">
<path d="M2400 4728 c-339 -16 -696 -94 -1025 -225 -716 -284 -1163 -746
-1291 -1333 -15 -68 -19 -127 -19 -300 0 -201 2 -222 27 -322 86 -338 278
-644 555 -881 53 -45 108 -93 123 -107 l27 -25 -138 -495 c-76 -272 -138 -514
-139 -537 0 -75 71 -130 145 -112 17 3 361 149 765 322 l735 315 80 -9 c113
-14 490 -14 615 0 644 72 1216 303 1627 655 321 275 513 615 564 993 17 126 6
413 -20 524 -128 556 -553 1003 -1221 1287 -441 187 -927 273 -1410 250z m555
-268 c316 -47 624 -140 880 -264 259 -125 416 -234 590 -410 201 -202 316
-411 371 -676 22 -105 25 -350 5 -460 -87 -482 -454 -883 -1046 -1145 -445
-196 -997 -289 -1450 -245 -193 19 -126 40 -828 -260 -350 -151 -639 -271
-643 -268 -3 3 47 193 110 423 64 229 116 427 116 440 0 46 -25 77 -119 148
-355 265 -572 597 -626 954 -36 240 3 496 111 720 118 246 361 495 655 671
339 204 799 349 1242 392 146 14 472 4 632 -20z"/>
<path d="M2207 3593 c-24 -21 -306 -283 -625 -582 -436 -408 -584 -553 -593
-578 -14 -44 2 -94 42 -128 56 -46 17 -56 887 230 l193 63 87 -110 c237 -302
243 -309 280 -325 28 -12 44 -13 72 -4 20 6 148 99 300 218 146 115 474 372
730 572 256 201 477 376 492 389 49 45 49 115 2 171 -48 58 -34 60 -741 -153
-357 -108 -654 -196 -659 -196 -5 0 -72 100 -149 221 -148 233 -163 249 -233
249 -31 0 -49 -8 -85 -37z m191 -469 c67 -104 130 -198 141 -208 43 -39 76
-33 474 87 208 63 373 109 365 102 -26 -26 -822 -647 -832 -650 -6 -2 -76 81
-156 185 -80 103 -157 195 -172 204 -14 9 -41 16 -60 16 -18 0 -150 -38 -293
-84 -143 -47 -260 -84 -261 -83 -1 1 149 143 333 315 184 172 336 312 338 310
1 -2 57 -89 123 -194z"/>
</g>
</svg>
