<?xml version="1.0" standalone="no"?>
<!DOCTYPE svg PUBLIC "-//W3C//DTD SVG 20010904//EN"
 "http://www.w3.org/TR/2001/REC-SVG-20010904/DTD/svg10.dtd">
<svg version="1.0" xmlns="http://www.w3.org/2000/svg"
 width="100.000000pt" height="100.000000pt" viewBox="0 0 100.000000 100.000000"
 preserveAspectRatio="xMidYMid meet">
<metadata>
Created by potrace 1.12, written by Peter Selinger 2001-2015
</metadata>
<g transform="translate(0.000000,100.000000) scale(0.100000,-0.100000)"
fill="#000000" stroke="none">
<path d="M0 975 c0 -20 5 -25 25 -25 20 0 25 5 25 25 0 20 -5 25 -25 25 -20 0
-25 -5 -25 -25z"/>
<path d="M132 978 c2 -15 11 -24 26 -26 18 -3 22 1 22 22 0 21 -5 26 -26 26
-21 0 -25 -4 -22 -22z"/>
<path d="M260 974 c0 -21 4 -25 23 -22 14 2 23 11 25 26 3 18 -1 22 -22 22
-21 0 -26 -5 -26 -26z"/>
<path d="M570 896 c0 -118 4 -136 32 -136 12 0 23 -10 29 -29 6 -18 20 -32 35
-35 14 -4 26 -16 30 -31 4 -15 16 -28 30 -31 14 -4 27 -16 30 -30 4 -15 16
-27 31 -30 15 -4 29 -18 35 -35 6 -19 17 -29 29 -29 13 0 24 -10 30 -29 6 -18
20 -32 35 -35 14 -4 26 -16 30 -31 4 -18 13 -25 30 -25 l24 0 0 305 0 305
-215 0 -215 0 0 -104z"/>
<path d="M72 908 c2 -15 10 -23 23 -23 30 0 27 39 -3 43 -20 3 -23 0 -20 -20z"/>
<path d="M200 905 c0 -18 5 -25 20 -25 15 0 20 7 20 25 0 18 -5 25 -20 25 -15
0 -20 -7 -20 -25z"/>
<path d="M322 908 c2 -15 11 -24 26 -26 20 -3 23 0 20 20 -2 15 -11 24 -26 26
-20 3 -23 0 -20 -20z"/>
<path d="M0 846 c0 -21 5 -26 26 -26 21 0 25 4 22 23 -2 14 -11 23 -25 25 -19
3 -23 -1 -23 -22z"/>
<path d="M134 855 c-4 -9 -2 -21 4 -27 15 -15 44 -1 40 19 -4 23 -36 29 -44 8z"/>
<path d="M267 863 c-4 -3 -7 -15 -7 -25 0 -21 36 -25 43 -5 9 27 -17 50 -36
30z"/>
<path d="M384 856 c-8 -21 3 -36 27 -36 15 0 20 6 17 22 -4 27 -35 37 -44 14z"/>
<path d="M450 786 c0 -20 5 -26 21 -26 15 0 20 5 17 22 -5 34 -38 37 -38 4z"/>
<path d="M70 780 c0 -15 7 -20 25 -20 18 0 25 5 25 20 0 15 -7 20 -25 20 -18
0 -25 -5 -25 -20z"/>
<path d="M200 780 c0 -13 7 -20 20 -20 13 0 20 7 20 20 0 13 -7 20 -20 20 -13
0 -20 -7 -20 -20z"/>
<path d="M320 780 c0 -15 7 -20 25 -20 18 0 25 5 25 20 0 15 -7 20 -25 20 -18
0 -25 -5 -25 -20z"/>
<path d="M0 714 c0 -21 4 -25 23 -22 14 2 23 11 25 26 3 18 -1 22 -22 22 -21
0 -26 -5 -26 -26z"/>
<path d="M133 724 c-7 -18 14 -35 34 -27 7 3 13 14 13 24 0 24 -38 26 -47 3z"/>
<path d="M260 721 c0 -26 17 -36 35 -21 18 15 8 40 -16 40 -12 0 -19 -7 -19
-19z"/>
<path d="M383 724 c-7 -18 14 -35 34 -27 7 3 13 14 13 24 0 24 -38 26 -47 3z"/>
<path d="M510 721 c0 -27 19 -36 37 -18 18 18 9 37 -18 37 -12 0 -19 -7 -19
-19z"/>
<path d="M74 665 c-4 -9 -2 -21 4 -27 15 -15 44 -1 40 19 -4 23 -36 29 -44 8z"/>
<path d="M200 655 c0 -18 5 -25 20 -25 15 0 20 7 20 25 0 18 -5 25 -20 25 -15
0 -20 -7 -20 -25z"/>
<path d="M324 665 c-4 -9 -2 -21 4 -27 15 -15 44 -1 40 19 -4 23 -36 29 -44 8z"/>
<path d="M450 655 c0 -18 5 -25 20 -25 15 0 20 7 20 25 0 18 -5 25 -20 25 -15
0 -20 -7 -20 -25z"/>
<path d="M574 665 c-4 -9 -2 -21 4 -27 15 -15 44 -1 40 19 -4 23 -36 29 -44 8z"/>
<path d="M134 605 c-4 -9 -2 -21 4 -27 15 -15 44 -1 40 19 -4 23 -36 29 -44 8z"/>
<path d="M267 613 c-4 -3 -7 -15 -7 -25 0 -21 36 -25 43 -5 9 27 -17 50 -36
30z"/>
<path d="M384 605 c-4 -9 -2 -21 4 -27 15 -15 44 -1 40 19 -4 23 -36 29 -44 8z"/>
<path d="M517 613 c-4 -3 -7 -15 -7 -25 0 -21 36 -25 43 -5 9 27 -17 50 -36
30z"/>
<path d="M634 605 c-4 -9 -2 -21 4 -27 15 -15 44 -1 40 19 -4 23 -36 29 -44 8z"/>
<path d="M0 305 l0 -305 215 0 216 0 -3 118 c-3 114 -4 117 -26 120 -16 2 -27
14 -34 33 -6 19 -17 29 -30 29 -13 0 -24 10 -31 29 -6 17 -21 32 -34 36 -13 3
-25 16 -29 30 -4 15 -16 28 -29 31 -13 3 -29 19 -35 35 -8 18 -20 29 -32 29
-12 0 -23 11 -29 30 -7 20 -18 30 -31 30 -13 0 -24 11 -31 30 -8 21 -18 30
-34 30 l-23 0 0 -305z"/>
<path d="M200 530 c0 -13 7 -20 20 -20 13 0 20 7 20 20 0 13 -7 20 -20 20 -13
0 -20 -7 -20 -20z"/>
<path d="M320 530 c0 -15 7 -20 25 -20 18 0 25 5 25 20 0 15 -7 20 -25 20 -18
0 -25 -5 -25 -20z"/>
<path d="M450 530 c0 -13 7 -20 20 -20 13 0 20 7 20 20 0 13 -7 20 -20 20 -13
0 -20 -7 -20 -20z"/>
<path d="M570 530 c0 -15 7 -20 25 -20 18 0 25 5 25 20 0 15 -7 20 -25 20 -18
0 -25 -5 -25 -20z"/>
<path d="M700 530 c0 -13 7 -20 20 -20 13 0 20 7 20 20 0 13 -7 20 -20 20 -13
0 -20 -7 -20 -20z"/>
<path d="M260 471 c0 -22 23 -34 38 -19 15 15 3 38 -19 38 -12 0 -19 -7 -19
-19z"/>
<path d="M383 474 c-7 -18 14 -35 34 -27 7 3 13 14 13 24 0 24 -38 26 -47 3z"/>
<path d="M510 471 c0 -26 17 -36 35 -21 18 15 8 40 -16 40 -12 0 -19 -7 -19
-19z"/>
<path d="M633 474 c-7 -18 14 -35 34 -27 7 3 13 14 13 24 0 24 -38 26 -47 3z"/>
<path d="M760 471 c0 -26 17 -36 35 -21 18 15 8 40 -16 40 -12 0 -19 -7 -19
-19z"/>
<path d="M324 415 c-4 -9 -2 -21 4 -27 15 -15 44 -1 40 19 -4 23 -36 29 -44 8z"/>
<path d="M450 405 c0 -18 5 -25 20 -25 15 0 20 7 20 25 0 18 -5 25 -20 25 -15
0 -20 -7 -20 -25z"/>
<path d="M574 415 c-4 -9 -2 -21 4 -27 15 -15 44 -1 40 19 -4 23 -36 29 -44 8z"/>
<path d="M700 405 c0 -18 5 -25 20 -25 15 0 20 7 20 25 0 18 -5 25 -20 25 -15
0 -20 -7 -20 -25z"/>
<path d="M824 415 c-4 -9 -2 -21 4 -27 15 -15 44 -1 40 19 -4 23 -36 29 -44 8z"/>
<path d="M384 355 c-4 -9 -2 -21 4 -27 15 -15 44 -1 40 19 -4 23 -36 29 -44 8z"/>
<path d="M517 363 c-4 -3 -7 -15 -7 -25 0 -21 36 -25 43 -5 9 27 -17 50 -36
30z"/>
<path d="M634 355 c-4 -9 -2 -21 4 -27 15 -15 44 -1 40 19 -4 23 -36 29 -44 8z"/>
<path d="M767 363 c-4 -3 -7 -15 -7 -25 0 -21 36 -25 43 -5 9 27 -17 50 -36
30z"/>
<path d="M884 356 c-8 -21 3 -36 27 -36 15 0 20 6 17 22 -4 27 -35 37 -44 14z"/>
<path d="M452 278 c2 -13 10 -23 18 -23 8 0 16 10 18 23 3 17 -2 22 -18 22
-16 0 -21 -5 -18 -22z"/>
<path d="M570 280 c0 -15 7 -20 25 -20 18 0 25 5 25 20 0 15 -7 20 -25 20 -18
0 -25 -5 -25 -20z"/>
<path d="M700 280 c0 -13 7 -20 20 -20 13 0 20 7 20 20 0 13 -7 20 -20 20 -13
0 -20 -7 -20 -20z"/>
<path d="M820 280 c0 -15 7 -20 25 -20 18 0 25 5 25 20 0 15 -7 20 -25 20 -18
0 -25 -5 -25 -20z"/>
<path d="M950 280 c0 -15 7 -20 25 -20 18 0 25 5 25 20 0 15 -7 20 -25 20 -18
0 -25 -5 -25 -20z"/>
<path d="M512 218 c4 -27 33 -36 42 -13 8 22 -1 35 -25 35 -15 0 -20 -6 -17
-22z"/>
<path d="M633 224 c-7 -18 14 -35 34 -27 7 3 13 14 13 24 0 24 -38 26 -47 3z"/>
<path d="M760 221 c0 -26 17 -36 35 -21 18 15 8 40 -16 40 -12 0 -19 -7 -19
-19z"/>
<path d="M883 224 c-6 -17 14 -36 32 -31 6 2 11 13 13 25 3 17 -2 22 -18 22
-11 0 -23 -7 -27 -16z"/>
<path d="M572 158 c2 -15 11 -24 26 -26 20 -3 23 0 20 20 -2 15 -11 24 -26 26
-20 3 -23 0 -20 -20z"/>
<path d="M700 155 c0 -18 5 -25 20 -25 15 0 20 7 20 25 0 18 -5 25 -20 25 -15
0 -20 -7 -20 -25z"/>
<path d="M824 165 c-4 -9 -2 -21 4 -27 15 -15 44 -1 40 19 -4 23 -36 29 -44 8z"/>
<path d="M954 165 c-8 -20 4 -35 27 -35 14 0 19 7 19 25 0 18 -5 25 -20 25
-11 0 -23 -7 -26 -15z"/>
<path d="M634 106 c-8 -21 3 -36 27 -36 15 0 20 6 17 22 -4 27 -35 37 -44 14z"/>
<path d="M767 113 c-15 -14 -7 -43 12 -43 24 0 33 13 25 34 -6 16 -25 21 -37
9z"/>
<path d="M884 106 c-8 -21 3 -36 27 -36 15 0 20 6 17 22 -4 27 -35 37 -44 14z"/>
<path d="M697 43 c-4 -3 -7 -15 -7 -25 0 -13 7 -18 25 -18 20 0 25 5 25 25 0
18 -5 25 -18 25 -10 0 -22 -3 -25 -7z"/>
<path d="M827 44 c-4 -4 -7 -16 -7 -26 0 -13 7 -18 26 -18 21 0 25 4 22 22 -3
23 -27 35 -41 22z"/>
<path d="M950 25 c0 -20 5 -25 25 -25 20 0 25 5 25 25 0 20 -5 25 -25 25 -20
0 -25 -5 -25 -25z"/>
</g>
</svg>
