<?xml version="1.0" standalone="no"?>
<!DOCTYPE svg PUBLIC "-//W3C//DTD SVG 20010904//EN"
 "http://www.w3.org/TR/2001/REC-SVG-20010904/DTD/svg10.dtd">
<svg version="1.0" xmlns="http://www.w3.org/2000/svg"
 width="886.184888pt" height="347.209038pt" viewBox="0 0 886.184888 347.209038"
 preserveAspectRatio="xMidYMid meet">
<metadata>
Created by potrace 1.12, written by Peter Selinger 2001-2015
</metadata>
<g transform="translate(-65.815112,411.104519) scale(0.100000,-0.100000)"
fill="#000000" stroke="none">
<path d="M5110 2375 l0 -1736 53 3 52 3 0 1730 0 1730 -52 3 -53 3 0 -1736z"/>
<path d="M1225 3266 c-249 -66 -437 -250 -524 -511 -50 -151 -57 -360 -17
-515 25 -98 95 -236 165 -323 187 -231 493 -318 752 -213 236 95 408 310 463
578 20 99 21 284 1 379 -59 280 -244 502 -491 590 -75 27 -273 35 -349 15z
m290 -297 c28 -10 73 -38 100 -63 176 -155 228 -476 115 -715 -39 -81 -134
-181 -203 -213 -44 -19 -68 -23 -157 -23 -94 0 -111 3 -161 27 -67 33 -156
124 -193 195 -71 142 -87 334 -40 485 59 187 171 301 323 328 61 11 155 2 216
-21z"/>
<path d="M4057 3265 c-332 -84 -560 -407 -559 -790 0 -156 25 -266 92 -400 51
-103 138 -214 215 -276 54 -43 185 -105 265 -125 140 -35 334 -4 478 77 112
64 285 268 249 297 -6 5 -60 39 -119 76 l-108 66 -19 -38 c-34 -67 -98 -129
-169 -164 -62 -31 -73 -33 -172 -33 -95 0 -111 3 -162 28 -110 54 -208 190
-243 338 -19 82 -19 226 0 308 23 96 72 188 137 253 75 78 128 101 244 106
134 6 206 -19 288 -102 34 -34 67 -75 75 -93 l13 -31 105 81 c58 45 108 87
110 95 3 7 -11 38 -31 68 -74 111 -175 187 -318 239 -61 23 -93 28 -193 31
-83 3 -138 -1 -178 -11z"/>
<path d="M9424 3226 c-32 -14 -54 -56 -54 -103 0 -16 -7 -27 -20 -30 -11 -3
-20 -12 -20 -19 0 -8 9 -14 20 -14 19 0 20 -7 20 -145 0 -138 1 -145 20 -145
19 0 20 7 20 145 l0 145 45 0 c33 0 45 4 45 15 0 11 -11 15 -40 15 -45 0 -56
14 -46 54 10 41 34 57 72 50 27 -5 34 -3 34 10 0 9 -12 21 -26 26 -31 12 -32
12 -70 -4z"/>
<path d="M5970 3001 l0 -231 35 0 c29 0 35 4 35 20 0 20 0 20 29 -1 38 -28
103 -29 139 -2 41 30 67 89 66 153 -2 129 -106 207 -193 142 l-30 -22 -3 82
-3 83 -37 3 -38 3 0 -230z m193 11 c24 -27 37 -69 31 -101 -13 -66 -78 -92
-122 -51 -33 31 -31 112 3 145 28 29 65 32 88 7z"/>
<path d="M5666 3205 c-119 -42 -172 -193 -111 -322 61 -133 231 -154 315 -40
39 53 54 108 47 173 -9 90 -56 158 -129 189 -45 18 -71 18 -122 0z m129 -98
c59 -59 58 -178 -2 -233 -36 -33 -100 -33 -137 1 -90 83 -41 265 71 265 26 0
43 -8 68 -33z"/>
<path d="M7817 3203 c-4 -3 -7 -28 -7 -55 0 -41 -3 -48 -20 -48 -15 0 -20 -7
-20 -29 0 -20 6 -30 20 -34 18 -5 20 -14 20 -114 0 -96 2 -112 20 -131 34 -37
140 -28 140 12 0 32 -12 44 -45 48 l-30 3 0 90 0 90 28 3 c23 3 27 8 27 33 0
26 -3 29 -30 29 -30 0 -30 1 -30 55 l0 55 -33 0 c-19 0 -37 -3 -40 -7z"/>
<path d="M2370 3052 l0 -119 438 2 437 2 3 116 3 117 -441 0 -440 0 0 -118z"/>
<path d="M6393 3099 c-43 -13 -73 -53 -73 -99 0 -45 16 -61 90 -90 71 -27 88
-43 70 -64 -17 -22 -63 -20 -109 3 l-38 20 -13 -24 c-18 -33 -1 -51 66 -71 96
-28 174 15 174 96 0 46 -28 74 -96 96 -79 27 -97 54 -50 76 20 9 33 7 66 -10
l40 -20 15 21 c20 29 19 34 -13 51 -39 20 -92 26 -129 15z"/>
<path d="M6683 3091 c-50 -23 -80 -67 -89 -129 -18 -120 85 -223 193 -193 38
11 93 56 93 77 0 21 -52 24 -79 3 -27 -22 -50 -24 -84 -8 -25 11 -51 52 -40
63 4 3 56 6 116 6 l110 0 -5 50 c-5 51 -40 110 -77 130 -39 20 -95 21 -138 1z
m116 -77 c12 -15 21 -31 21 -35 0 -5 -34 -9 -75 -9 -41 0 -75 4 -75 9 0 4 9
20 21 35 15 19 30 26 54 26 24 0 39 -7 54 -26z"/>
<path d="M7540 3097 c-65 -23 -73 -30 -59 -60 7 -15 15 -26 18 -24 69 39 122
42 141 7 22 -40 13 -48 -50 -47 -68 0 -105 -19 -129 -68 -18 -36 0 -99 34
-121 35 -23 102 -20 136 5 28 21 28 21 39 1 8 -14 21 -20 45 -20 33 0 35 2 35
34 0 19 -4 38 -10 41 -5 3 -10 40 -10 81 0 84 -17 135 -52 158 -33 21 -97 27
-138 13z m91 -177 c42 -23 5 -90 -49 -90 -34 0 -52 16 -52 46 0 41 58 66 101
44z"/>
<path d="M8097 3096 c-71 -26 -107 -80 -107 -160 0 -97 69 -170 159 -170 56 0
82 14 118 60 39 51 44 142 11 198 -42 72 -109 98 -181 72z m102 -92 c43 -55
14 -164 -44 -164 -37 0 -55 10 -70 41 -19 36 -19 72 0 109 25 48 82 55 114 14z"/>
<path d="M6950 2934 l0 -165 38 3 37 3 3 104 c1 58 8 111 14 118 5 7 28 18 49
23 36 10 39 14 39 45 0 31 -3 35 -27 35 -16 0 -39 -11 -55 -27 l-28 -27 0 27
c0 24 -4 27 -35 27 l-35 0 0 -166z"/>
<path d="M7140 3091 c0 -5 24 -78 54 -162 l54 -154 42 0 43 0 53 155 c29 85
53 158 53 163 1 4 -16 7 -36 7 l-38 0 -34 -115 c-19 -63 -37 -115 -41 -115 -3
0 -11 21 -18 48 -7 26 -22 77 -33 115 l-20 67 -39 0 c-22 0 -40 -4 -40 -9z"/>
<path d="M8350 2935 l0 -165 40 0 40 0 0 104 c0 101 1 105 27 125 14 12 37 24
50 27 18 5 23 13 23 40 0 30 -3 34 -25 34 -14 0 -37 -11 -51 -25 -14 -14 -27
-25 -29 -25 -3 0 -5 11 -5 25 0 22 -4 25 -35 25 l-35 0 0 -165z"/>
<path d="M8540 3096 c0 -3 25 -74 56 -158 42 -116 54 -161 49 -185 -6 -32 -32
-56 -57 -51 -9 2 -13 -9 -13 -32 0 -33 2 -35 36 -38 27 -2 44 3 67 23 26 22
40 55 96 229 36 112 66 207 66 211 0 3 -16 5 -37 3 l-36 -3 -30 -105 c-16 -58
-33 -109 -37 -113 -4 -5 -17 24 -29 65 -49 163 -43 153 -89 156 -23 2 -42 1
-42 -2z"/>
<path d="M9079 3084 c-112 -72 -96 -263 26 -310 43 -16 47 -16 91 1 109 41
135 190 50 282 -28 31 -40 37 -87 40 -38 3 -61 -1 -80 -13z m140 -59 c26 -30
31 -44 31 -88 0 -63 -25 -108 -68 -126 -27 -11 -36 -11 -69 5 -79 39 -95 150
-32 214 45 44 96 42 138 -5z"/>
<path d="M7750 2660 l0 -40 40 0 40 0 0 40 0 40 -40 0 -40 0 0 -40z"/>
<path d="M5554 2676 c-2 -6 -3 -106 -2 -221 l3 -210 138 -3 137 -3 0 41 0 40
-100 0 -100 0 0 55 0 55 85 0 85 0 0 40 0 40 -85 0 -85 0 0 50 0 50 101 0 100
0 -3 35 -3 35 -133 4 c-97 3 -135 1 -138 -8z"/>
<path d="M2370 2480 l0 -110 330 0 330 0 0 110 0 110 -330 0 -330 0 0 -110z"/>
<path d="M5961 2567 c-19 -7 -48 -29 -65 -50 -28 -35 -31 -46 -31 -107 0 -76
16 -107 75 -147 61 -42 168 -22 200 37 13 25 14 24 -25 37 -25 9 -35 7 -54 -8
-34 -28 -65 -24 -95 12 -37 44 -36 101 3 140 35 34 50 36 84 9 22 -18 29 -18
62 -7 l36 13 -22 28 c-40 51 -101 66 -168 43z"/>
<path d="M6264 2560 c-56 -28 -84 -81 -84 -156 0 -100 59 -164 151 -164 151 0
213 219 88 313 -40 29 -106 32 -155 7z m112 -72 c42 -33 40 -124 -3 -158 -34
-26 -59 -25 -88 5 -20 19 -25 34 -25 72 1 83 62 125 116 81z"/>
<path d="M6646 2555 c-34 -23 -36 -23 -36 -5 0 16 -7 20 -35 20 l-35 0 2 -162
3 -163 35 0 35 0 3 105 c2 91 6 108 24 127 27 29 73 30 88 4 5 -11 10 -66 10
-124 0 -57 2 -106 5 -108 2 -3 20 -3 40 -1 l35 4 0 112 c0 126 -11 179 -43
201 -33 23 -89 19 -131 -10z"/>
<path d="M6951 2558 c-56 -30 -81 -75 -81 -148 0 -103 59 -170 150 -170 93 0
167 86 156 183 -14 126 -121 191 -225 135z m122 -80 c25 -30 31 -65 18 -108
-23 -77 -112 -76 -138 2 -32 96 59 176 120 106z"/>
<path d="M7343 2564 c-18 -9 -33 -20 -33 -25 0 -5 -4 -9 -9 -9 -5 0 -7 9 -4
20 5 17 0 20 -31 20 l-36 0 0 -166 0 -165 33 3 32 3 5 100 c5 107 20 148 59
158 44 11 54 -12 59 -136 l4 -115 29 -4 c16 -3 32 -2 37 1 5 3 8 52 8 107 -1
87 2 105 18 123 11 12 29 21 41 21 40 0 50 -25 54 -147 l3 -113 27 0 c52 0 54
7 47 141 -8 140 -17 172 -52 188 -39 17 -68 13 -109 -15 l-39 -26 -16 22 c-22
29 -85 36 -127 14z"/>
<path d="M7964 2560 c-115 -57 -112 -252 5 -305 59 -26 123 -17 167 26 19 18
34 36 34 39 0 4 -16 12 -36 18 -31 9 -38 8 -55 -9 -22 -22 -38 -24 -72 -8 -30
14 -47 48 -47 95 0 47 13 69 50 84 28 12 34 11 60 -8 24 -18 33 -20 59 -11 37
13 39 28 9 57 -49 45 -110 53 -174 22z"/>
<path d="M7752 2408 l3 -163 35 0 35 0 3 163 2 162 -40 0 -40 0 2 -162z"/>
<path d="M7155 2043 c-7 -130 -2 -262 11 -296 10 -28 74 -40 122 -22 6 2 12
18 12 35 0 26 -3 30 -29 30 -17 0 -31 6 -35 16 -3 9 -6 96 -6 195 l0 179 -34
0 -34 0 -7 -137z"/>
<path d="M7970 2134 l0 -45 38 3 c36 3 37 4 40 46 l3 42 -40 0 -41 0 0 -46z"/>
<path d="M5690 2161 c-104 -32 -160 -106 -160 -212 0 -28 6 -70 12 -92 17 -56
82 -122 133 -135 69 -18 166 12 199 62 22 34 21 41 -11 57 -16 7 -31 15 -35
17 -3 2 -9 -6 -13 -18 -8 -24 -54 -50 -90 -50 -87 0 -145 136 -97 230 24 48
81 76 124 61 18 -6 42 -21 55 -33 21 -20 24 -20 48 -4 14 9 25 23 25 30 0 22
-66 74 -107 85 -43 12 -48 12 -83 2z"/>
<path d="M8130 2101 c0 -40 -3 -50 -20 -54 -15 -4 -20 -14 -20 -36 0 -24 4
-31 20 -31 19 0 20 -7 20 -108 0 -118 9 -145 55 -156 14 -4 44 -2 65 4 31 8
40 16 40 33 0 33 -12 44 -45 43 l-30 -1 -3 93 -3 92 31 0 c28 0 30 3 30 35 0
32 -2 35 -30 35 -29 0 -30 1 -30 50 l0 50 -40 0 -40 0 0 -49z"/>
<path d="M5990 2028 c-47 -32 -70 -82 -70 -149 0 -123 106 -198 213 -151 108
48 127 194 37 284 -34 35 -42 38 -92 38 -41 0 -64 -6 -88 -22z m131 -74 c19
-20 24 -36 24 -76 0 -42 -4 -53 -28 -74 -36 -31 -52 -30 -88 5 -24 24 -29 38
-29 76 0 83 70 123 121 69z"/>
<path d="M6278 2043 c-1 -4 -2 -79 0 -165 l3 -158 34 0 33 0 4 106 c3 102 4
107 32 130 60 52 86 13 86 -134 l0 -103 36 3 36 3 3 105 c3 99 4 106 30 127
32 28 40 28 65 3 18 -18 20 -33 20 -130 l0 -110 42 0 41 0 -6 130 c-6 133 -20
181 -52 194 -36 14 -84 6 -114 -19 l-30 -26 -25 26 c-35 35 -102 35 -140 0
-33 -31 -38 -31 -34 -2 2 18 -2 23 -29 25 -17 2 -33 -1 -35 -5z"/>
<path d="M6800 1821 l0 -231 40 0 40 0 0 85 0 86 31 -23 c58 -43 140 -23 176
45 24 44 23 151 0 195 -38 70 -143 97 -192 48 -24 -24 -24 -24 -27 -2 -2 16
-11 22 -35 24 l-33 3 0 -230z m193 139 c65 -52 21 -198 -53 -172 -41 14 -60
45 -60 98 0 45 4 56 26 73 33 26 54 26 87 1z"/>
<path d="M7390 2027 c-51 -33 -73 -79 -73 -147 0 -76 24 -118 86 -149 66 -32
127 -23 176 27 l36 35 -29 10 c-22 7 -35 6 -56 -7 -29 -17 -77 -21 -96 -8 -13
8 -34 46 -34 61 0 6 44 11 112 13 l113 3 -3 40 c-10 118 -139 186 -232 122z
m131 -67 c17 -16 28 -34 24 -40 -3 -5 -37 -10 -76 -10 -61 0 -69 2 -69 19 0
23 45 61 72 61 11 0 33 -13 49 -30z"/>
<path d="M7640 2044 c0 -4 21 -40 46 -81 25 -41 43 -80 40 -89 -3 -8 -23 -40
-44 -72 -21 -31 -42 -63 -46 -69 -5 -10 4 -13 37 -13 42 0 45 2 71 50 15 28
31 50 35 50 4 0 20 -22 36 -50 28 -48 31 -50 73 -50 32 0 41 3 36 13 -4 6 -27
42 -51 80 -24 37 -43 69 -43 72 0 2 20 36 45 74 25 38 45 74 45 80 0 6 -16 11
-35 11 -32 0 -39 -5 -67 -50 -17 -27 -34 -50 -37 -50 -3 0 -19 22 -36 48 -26
41 -35 47 -67 50 -21 2 -38 0 -38 -4z"/>
<path d="M7970 1886 l0 -166 40 0 40 0 -2 163 -3 162 -37 3 -38 3 0 -165z"/>
<path d="M8307 2043 c-2 -4 20 -73 49 -153 29 -80 53 -156 54 -170 0 -37 -27
-70 -56 -70 -22 0 -25 -4 -22 -32 3 -31 6 -33 45 -36 68 -5 81 16 157 245 36
110 66 205 66 212 0 8 -13 11 -37 9 l-36 -3 -29 -100 c-15 -55 -31 -107 -34
-115 -4 -9 -22 32 -44 100 l-38 115 -35 3 c-19 2 -37 -1 -40 -5z"/>
<path d="M2370 1895 l0 -115 400 0 400 0 0 115 0 115 -400 0 -400 0 0 -115z"/>
</g>
</svg>
