<?xml version="1.0" standalone="no"?>
<!DOCTYPE svg PUBLIC "-//W3C//DTD SVG 20010904//EN"
 "http://www.w3.org/TR/2001/REC-SVG-20010904/DTD/svg10.dtd">
<svg version="1.0" xmlns="http://www.w3.org/2000/svg"
 width="129.484310pt" height="273.771233pt" viewBox="0 0 129.484310 273.771233"
 preserveAspectRatio="xMidYMid meet">
<metadata>
Created by potrace 1.12, written by Peter Selinger 2001-2015
</metadata>
<g transform="translate(-18.515690,304.000000) scale(0.100000,-0.100000)"
fill="#000000" stroke="none">
<path d="M880 3033 c-100 -17 -191 -64 -272 -141 -115 -109 -160 -216 -160
-377 0 -146 33 -234 138 -362 l26 -32 -42 -48 c-59 -66 -106 -171 -119 -263
-36 -263 110 -498 359 -579 20 -6 79 -15 131 -20 114 -11 160 -31 218 -97 46
-53 61 -94 61 -175 0 -99 -60 -188 -157 -231 -36 -16 -64 -18 -200 -16 l-158
3 -3 57 c-2 32 -5 58 -8 58 -2 0 -118 -57 -256 -126 l-253 -126 255 -128 255
-128 5 62 5 61 190 5 c165 5 197 9 246 28 79 32 139 73 206 146 94 100 133
201 133 347 0 135 -39 242 -125 337 l-47 52 45 49 c84 90 127 205 127 340 0
147 -39 247 -134 348 -110 119 -193 159 -351 174 -116 11 -190 41 -230 93 -83
109 -76 263 16 355 72 72 90 76 412 79 l287 3 0 130 0 129 -287 -1 c-159 -1
-299 -4 -313 -6z m198 -1069 c99 -49 147 -135 140 -248 -5 -79 -22 -118 -69
-165 -126 -127 -343 -93 -419 64 -27 55 -30 162 -8 216 58 136 225 198 356
133z"/>
</g>
</svg>
