<?xml version="1.0" standalone="no"?>
<!DOCTYPE svg PUBLIC "-//W3C//DTD SVG 20010904//EN"
 "http://www.w3.org/TR/2001/REC-SVG-20010904/DTD/svg10.dtd">
<svg version="1.0" xmlns="http://www.w3.org/2000/svg"
 width="233.741643pt" height="235.010538pt" viewBox="0 0 233.741643 235.010538"
 preserveAspectRatio="xMidYMid meet">
<metadata>
Created by potrace 1.12, written by Peter Selinger 2001-2015
</metadata>
<g transform="translate(-34.485515,294.000000) scale(0.100000,-0.100000)"
fill="#000000" stroke="none">
<path d="M755 2928 c-117 -22 -263 -126 -333 -236 -74 -115 -98 -293 -58 -427
91 -305 433 -458 721 -321 165 78 295 264 295 422 l0 44 65 0 c37 0 65 4 65
10 0 13 -248 510 -255 510 -7 0 -255 -497 -255 -510 0 -6 26 -10 60 -10 59 0
60 -1 60 -27 0 -44 -43 -125 -85 -162 -53 -46 -99 -63 -172 -63 -149 -1 -256
107 -256 257 -1 133 83 229 226 259 l27 6 0 130 0 130 -27 -1 c-16 -1 -50 -6
-78 -11z"/>
<path d="M1892 2911 c-9 -15 -215 -427 -456 -914 l-439 -886 -66 -3 -66 -3 -3
-253 c-1 -138 1 -252 5 -252 5 0 123 115 263 255 l255 255 -63 0 c-34 0 -62 2
-62 4 0 2 202 410 450 907 247 497 450 907 450 912 0 4 -56 7 -125 7 l-125 0
-18 -29z"/>
<path d="M2036 1614 c-200 -48 -364 -233 -384 -434 l-7 -65 -62 -3 c-35 -2
-63 -6 -62 -10 0 -4 57 -121 127 -260 l127 -252 128 255 c70 140 127 257 127
260 0 3 -27 5 -60 5 l-60 0 0 33 c0 53 47 134 99 172 171 125 412 9 413 -199
1 -75 -17 -126 -59 -175 -39 -47 -120 -91 -165 -91 l-28 0 0 -130 0 -130 44 0
c102 0 250 72 331 161 97 107 138 214 137 359 0 160 -45 262 -165 377 -130
125 -301 171 -481 127z"/>
</g>
</svg>
