<?xml version="1.0" standalone="no"?>
<!DOCTYPE svg PUBLIC "-//W3C//DTD SVG 20010904//EN"
 "http://www.w3.org/TR/2001/REC-SVG-20010904/DTD/svg10.dtd">
<svg version="1.0" xmlns="http://www.w3.org/2000/svg"
 width="180.944611pt" height="375.832389pt" viewBox="0 0 180.944611 375.832389"
 preserveAspectRatio="xMidYMid meet">
<metadata>
Created by potrace 1.12, written by Peter Selinger 2001-2015
</metadata>
<g transform="translate(-41.531063,413.847623) scale(0.100000,-0.100000)"
fill="#000000" stroke="none">
<path d="M1270 4133 c-154 -24 -268 -68 -375 -148 -178 -131 -264 -322 -230
-510 26 -142 90 -255 224 -394 39 -41 71 -78 71 -82 0 -5 -24 -21 -52 -35 -77
-39 -196 -125 -265 -191 -101 -99 -169 -206 -214 -338 -18 -53 -18 -247 0
-300 81 -238 258 -408 772 -742 388 -252 509 -389 509 -574 0 -113 -54 -196
-185 -281 -83 -55 -150 -72 -270 -71 -117 0 -200 26 -252 78 -44 44 -49 86
-24 179 41 151 16 241 -83 293 -49 25 -136 21 -189 -10 -68 -40 -92 -85 -91
-174 1 -102 39 -177 138 -271 129 -122 289 -182 489 -182 176 0 320 39 450
122 257 164 348 441 230 698 -33 73 -128 196 -204 264 -28 25 -48 50 -44 56 4
6 28 21 54 35 336 170 541 497 487 777 -48 248 -266 471 -766 782 -290 181
-407 279 -470 394 -30 53 -32 64 -33 162 -2 99 0 108 28 159 40 73 131 153
213 188 61 25 78 27 182 27 134 -1 187 -19 244 -86 40 -46 49 -93 35 -168 -6
-30 -13 -85 -16 -121 -5 -64 -4 -67 27 -103 49 -56 84 -70 172 -70 70 -1 79 1
114 30 51 41 78 97 78 159 -1 174 -154 339 -389 420 -78 27 -277 42 -365 28z
m-171 -1232 c20 -15 133 -92 251 -171 315 -210 432 -305 516 -420 190 -260
108 -510 -230 -699 -49 -28 -71 -26 -115 8 -20 16 -124 86 -231 156 -249 164
-326 221 -429 320 -139 133 -191 234 -191 371 0 117 58 231 169 329 57 50 191
134 215 135 4 0 25 -13 45 -29z"/>
</g>
</svg>
