<?xml version="1.0" standalone="no"?>
<!DOCTYPE svg PUBLIC "-//W3C//DTD SVG 20010904//EN"
 "http://www.w3.org/TR/2001/REC-SVG-20010904/DTD/svg10.dtd">
<svg version="1.0" xmlns="http://www.w3.org/2000/svg"
 width="199.936703pt" height="200.000000pt" viewBox="0 0 199.936703 200.000000"
 preserveAspectRatio="xMidYMid meet">
<metadata>
Created by potrace 1.12, written by Peter Selinger 2001-2015
</metadata>
<g transform="translate(0.033534,200.000000) scale(0.100000,-0.100000)"
fill="#000000" stroke="none">
<path d="M10 1996 c0 -6 238 -347 254 -364 10 -10 21 -3 54 40 l41 52 -45 64
c-24 34 -44 65 -44 67 0 3 60 5 133 5 l133 0 195 -277 194 -278 2 45 c2 25 7
68 13 96 l11 52 -176 251 -176 251 -295 0 c-162 0 -294 -2 -294 -4z"/>
<path d="M1596 1843 c-75 -87 -136 -160 -136 -163 1 -3 20 -17 44 -33 38 -23
48 -26 69 -16 21 10 296 315 320 355 6 11 -8 14 -77 14 l-84 0 -136 -157z"/>
<path d="M1177 1646 c-76 -31 -123 -68 -158 -125 -41 -64 -52 -114 -45 -195
l6 -69 -50 7 c-101 13 -283 92 -425 184 -90 57 -123 85 -157 129 l-27 36 -13
-29 c-8 -18 -13 -70 -13 -134 0 -92 4 -112 26 -160 14 -31 41 -73 59 -94 l33
-37 -29 7 c-16 4 -44 13 -63 20 -18 8 -35 14 -37 14 -2 0 -4 -17 -4 -38 0 -78
85 -202 182 -264 l51 -33 -61 -3 -60 -3 8 -28 c20 -70 96 -133 217 -181 32
-13 60 -25 62 -27 15 -11 -114 -81 -184 -99 -59 -16 -176 -18 -224 -4 -19 5
-36 8 -38 6 -7 -7 128 -99 192 -131 108 -53 189 -68 325 -62 130 6 189 21 308
80 303 149 522 481 548 829 7 89 8 92 42 122 40 35 125 146 118 154 -3 3 -27
-4 -53 -16 -26 -11 -64 -23 -83 -27 l-35 -8 58 62 c49 54 78 104 66 115 -2 2
-43 -14 -90 -36 l-87 -40 -49 36 c-99 71 -209 86 -316 42z"/>
<path d="M1437 680 c-23 -30 -35 -56 -30 -63 10 -16 257 -370 300 -429 l35
-48 -139 0 -138 1 -114 164 -114 164 -29 -17 c-15 -9 -40 -26 -54 -37 l-26
-21 138 -197 138 -197 297 0 298 0 -255 365 c-141 201 -259 365 -263 365 -4 0
-24 -23 -44 -50z"/>
<path d="M167 194 l-167 -194 88 0 88 0 109 127 c61 69 125 143 143 164 l32
37 -62 31 c-33 17 -62 31 -62 30 -1 0 -76 -88 -169 -195z"/>
</g>
</svg>
