<?xml version="1.0" standalone="no"?>
<!DOCTYPE svg PUBLIC "-//W3C//DTD SVG 20010904//EN"
 "http://www.w3.org/TR/2001/REC-SVG-20010904/DTD/svg10.dtd">
<svg version="1.0" xmlns="http://www.w3.org/2000/svg"
 width="446.460851pt" height="465.145233pt" viewBox="0 0 446.460851 465.145233"
 preserveAspectRatio="xMidYMid meet">
<metadata>
Created by potrace 1.12, written by Peter Selinger 2001-2015
</metadata>
<g transform="translate(-19.539509,481.703284) scale(0.100000,-0.100000)"
fill="#000000" stroke="none">
<path d="M2260 4814 c-312 -37 -484 -82 -720 -188 -454 -205 -841 -585 -1073
-1054 -242 -488 -312 -1069 -196 -1611 40 -183 140 -456 211 -577 l19 -33 -30
-108 c-28 -104 -222 -826 -258 -965 l-18 -68 23 -22 22 -22 147 37 c82 20 225
57 318 82 94 25 247 65 340 90 94 25 206 55 251 67 l81 21 109 -55 c491 -250
1050 -303 1570 -149 360 107 624 264 903 535 311 303 525 676 630 1101 80 324
93 727 34 1060 -20 115 -25 125 -68 125 -39 0 -355 -47 -379 -56 -26 -10 -27
-36 -5 -160 30 -168 37 -466 15 -630 -77 -580 -404 -1070 -901 -1348 -178 -99
-406 -175 -595 -196 -150 -18 -446 -7 -570 19 -209 46 -424 131 -578 231 -57
36 -89 51 -105 47 -12 -2 -147 -37 -301 -76 -153 -39 -282 -71 -286 -71 -4 0
26 131 66 291 41 160 74 302 74 314 0 13 -19 54 -42 91 -99 164 -195 399 -232
569 -56 263 -47 601 25 879 140 550 527 1001 1037 1212 202 84 348 115 574
121 198 6 313 -4 486 -45 98 -22 114 -24 127 -11 11 11 15 60 17 236 2 147 -1
225 -8 233 -15 15 -134 46 -254 65 -100 16 -386 28 -460 19z m410 -94 c74 -12
160 -27 190 -34 l55 -12 3 -167 c2 -130 0 -167 -10 -167 -7 0 -67 12 -133 26
-175 38 -460 44 -630 15 -396 -67 -733 -244 -1005 -527 -106 -111 -142 -155
-217 -269 -150 -228 -248 -483 -300 -784 -21 -120 -24 -479 -5 -592 40 -238
122 -465 246 -679 l49 -85 -15 -70 c-9 -38 -45 -187 -82 -329 -61 -241 -65
-261 -51 -283 9 -13 18 -23 21 -23 13 0 637 161 646 166 5 3 33 -10 62 -29
129 -86 339 -177 511 -222 238 -62 468 -78 693 -46 391 55 713 210 990 476
287 274 461 585 546 975 57 263 61 567 11 819 -9 41 -13 76 -11 78 7 7 295 48
300 43 2 -3 11 -48 20 -101 64 -376 28 -817 -95 -1177 -230 -670 -775 -1197
-1432 -1386 -519 -150 -1046 -96 -1525 155 l-113 59 -92 -24 c-51 -14 -126
-33 -167 -45 -119 -32 -390 -102 -450 -117 -59 -14 -341 -90 -373 -100 -24 -8
-29 -28 62 304 39 144 103 380 142 524 l71 262 -61 125 c-103 216 -161 399
-203 646 -18 107 -22 169 -21 350 0 122 5 258 12 305 78 536 274 951 618 1311
463 482 1126 721 1743 629z"/>
<path d="M3672 4758 c-9 -9 -12 -81 -12 -275 l0 -263 -253 0 c-183 0 -256 -3
-265 -12 -17 -17 -17 -439 0 -456 9 -9 82 -12 265 -12 l253 0 0 -269 c0 -232
2 -272 16 -285 13 -13 46 -16 203 -16 134 0 192 4 204 13 15 11 17 42 19 282
l3 270 255 3 c159 2 259 7 267 14 16 13 19 419 3 449 -10 18 -24 19 -270 19
l-260 0 -2 273 -3 272 -205 3 c-152 2 -209 -1 -218 -10z m380 -320 l3 -273
263 -3 262 -2 0 -180 0 -180 -254 0 c-199 0 -256 -3 -265 -13 -7 -9 -12 -105
-13 -283 l-3 -269 -160 0 -160 0 -3 269 c-1 178 -6 274 -13 283 -9 10 -66 13
-265 13 l-254 0 0 180 0 180 263 2 262 3 3 273 2 272 165 0 165 0 2 -272z"/>
<path d="M1600 3578 c-63 -24 -184 -138 -219 -206 -61 -120 -74 -171 -78 -317
-6 -189 15 -292 91 -451 168 -350 422 -663 721 -890 298 -226 737 -381 984
-346 180 25 362 149 433 294 31 63 52 198 43 272 -13 97 -28 110 -277 234
-232 116 -260 124 -326 101 -19 -6 -48 -33 -73 -67 -24 -31 -59 -73 -77 -92
-19 -19 -46 -52 -60 -73 -23 -35 -29 -38 -58 -32 -51 9 -181 73 -272 133 -201
131 -281 212 -427 429 -69 102 -79 127 -59 144 25 20 120 152 144 198 40 79
28 120 -156 558 -57 135 -54 133 -176 132 -79 0 -116 -5 -158 -21z m234 -59
c8 -8 87 -193 147 -342 35 -88 59 -163 59 -186 0 -43 -29 -92 -119 -201 -76
-92 -76 -108 -1 -228 161 -261 386 -460 671 -597 130 -62 182 -57 230 22 12
21 43 61 67 88 25 28 56 67 70 88 41 61 77 55 285 -48 95 -46 186 -90 202 -98
49 -22 67 -69 62 -162 -9 -169 -82 -270 -262 -361 l-97 -49 -127 1 c-142 0
-233 18 -398 80 -276 103 -472 231 -699 458 -192 193 -336 391 -452 621 -78
156 -94 217 -100 383 -4 129 -2 149 18 210 53 160 153 287 247 316 43 13 186
17 197 5z"/>
</g>
</svg>
