<?xml version="1.0" standalone="no"?>
<!DOCTYPE svg PUBLIC "-//W3C//DTD SVG 20010904//EN"
 "http://www.w3.org/TR/2001/REC-SVG-20010904/DTD/svg10.dtd">
<svg version="1.0" xmlns="http://www.w3.org/2000/svg"
 width="236.137760pt" height="238.488384pt" viewBox="0 0 236.137760 238.488384"
 preserveAspectRatio="xMidYMid meet">
<metadata>
Created by potrace 1.12, written by Peter Selinger 2001-2015
</metadata>
<g transform="translate(-10.000000,245.884831) scale(0.100000,-0.100000)"
fill="#000000" stroke="none">
<path d="M1190 2454 c-199 -29 -263 -45 -385 -98 -180 -78 -362 -224 -485
-391 -56 -75 -124 -205 -155 -293 -49 -142 -65 -240 -65 -411 0 -189 18 -290
79 -441 110 -274 326 -508 584 -632 9 -4 26 -13 37 -18 34 -17 173 -63 220
-72 144 -29 385 -32 485 -7 124 32 168 46 247 80 245 105 463 314 588 567 141
283 160 624 52 932 -135 380 -499 696 -877 760 -171 29 -249 35 -325 24z m335
-109 c78 -19 75 -18 197 -70 388 -166 658 -578 658 -1002 0 -218 -69 -448
-188 -628 -58 -86 -217 -248 -297 -301 -247 -164 -542 -228 -805 -174 -125 25
-155 33 -215 59 -181 78 -319 177 -429 310 -183 220 -266 447 -266 726 0 293
102 550 302 761 173 182 400 303 633 335 91 12 330 3 410 -16z"/>
<path d="M913 1868 c-18 -13 -37 -33 -42 -46 -7 -15 -11 -205 -11 -560 0 -521
1 -538 20 -570 24 -39 81 -66 122 -58 26 5 188 110 668 433 161 109 195 145
187 204 -3 20 -12 48 -22 62 -9 14 -164 124 -343 245 -180 120 -358 240 -395
265 -81 55 -131 62 -184 25z m265 -185 c95 -65 211 -143 257 -173 162 -105
311 -208 324 -224 7 -8 10 -24 7 -34 -5 -16 -472 -338 -717 -496 -101 -65 -94
-101 -97 500 -1 285 0 525 3 532 11 29 59 6 223 -105z"/>
</g>
</svg>
