<?xml version="1.0" standalone="no"?>
<!DOCTYPE svg PUBLIC "-//W3C//DTD SVG 20010904//EN"
 "http://www.w3.org/TR/2001/REC-SVG-20010904/DTD/svg10.dtd">
<svg version="1.0" xmlns="http://www.w3.org/2000/svg"
 width="254.788496pt" height="255.804613pt" viewBox="0 0 254.788496 255.804613"
 preserveAspectRatio="xMidYMid meet">
<metadata>
Created by potrace 1.12, written by Peter Selinger 2001-2015
</metadata>
<g transform="translate(-0.082884,255.804613) scale(0.100000,-0.100000)"
fill="#000000" stroke="none">
<path d="M1090 2545 c-560 -89 -990 -523 -1075 -1085 -82 -536 206 -1080 700
-1325 157 -78 378 -135 523 -135 l42 0 0 79 0 78 -81 7 c-405 34 -747 267
-925 631 -180 366 -143 796 97 1135 312 442 910 594 1394 356 528 -259 770
-872 557 -1413 -47 -120 -87 -173 -153 -207 -121 -60 -267 -17 -335 99 -47 80
-44 114 45 579 45 230 81 424 81 431 0 8 -29 17 -76 25 -88 14 -89 13 -99 -62
-4 -26 -9 -48 -11 -48 -2 0 -34 30 -71 68 -115 113 -233 162 -398 162 -181 0
-328 -63 -466 -200 -73 -73 -94 -101 -132 -180 -53 -112 -67 -170 -67 -288 0
-104 19 -183 63 -265 163 -307 562 -377 871 -154 l50 36 18 -71 c32 -129 108
-222 226 -280 63 -31 72 -33 177 -33 104 0 114 2 176 32 145 72 232 213 300
487 30 121 37 352 14 486 -67 405 -327 756 -694 940 -216 108 -510 153 -751
115z m324 -800 c197 -52 313 -238 278 -448 -48 -289 -352 -497 -613 -421 -113
33 -211 121 -250 223 -130 348 224 740 585 646z"/>
</g>
</svg>
