<?xml version="1.0" standalone="no"?>
<!DOCTYPE svg PUBLIC "-//W3C//DTD SVG 20010904//EN"
 "http://www.w3.org/TR/2001/REC-SVG-20010904/DTD/svg10.dtd">
<svg version="1.0" xmlns="http://www.w3.org/2000/svg"
 width="510.846131pt" height="510.985016pt" viewBox="0 0 510.846131 510.985016"
 preserveAspectRatio="xMidYMid meet">
<metadata>
Created by potrace 1.12, written by Peter Selinger 2001-2015
</metadata>
<g transform="translate(-0.627734,511.547704) scale(0.100000,-0.100000)"
fill="#000000" stroke="none">
<path d="M2325 5109 c-831 -85 -1545 -538 -1969 -1249 -175 -292 -290 -630
-338 -990 -18 -133 -15 -506 5 -645 92 -648 403 -1212 902 -1632 184 -156 449
-315 670 -403 98 -39 132 -40 163 -5 l22 27 -2 760 -3 760 -28 24 -28 24 -350
0 -349 0 0 295 0 295 351 0 351 0 29 29 c28 29 29 31 29 138 0 345 128 641
390 903 201 202 420 327 690 395 140 35 250 45 488 45 l212 0 0 -294 0 -293
-252 -6 c-182 -4 -274 -10 -328 -22 -390 -87 -610 -354 -610 -742 0 -91 1 -96
29 -124 l29 -29 177 0 c178 0 206 5 232 39 18 24 15 66 -6 92 -18 23 -27 24
-158 29 l-138 5 3 60 c10 229 147 406 370 479 133 43 170 47 470 53 261 5 296
8 315 23 22 18 22 20 25 412 1 216 0 403 -3 416 -3 12 -14 31 -25 42 -19 19
-34 20 -312 20 -295 0 -386 -8 -538 -44 -339 -81 -663 -281 -884 -546 -206
-247 -315 -511 -334 -810 l-7 -105 -360 -5 c-198 -3 -361 -7 -362 -8 -1 -1 -9
-15 -18 -32 -23 -44 -23 -786 0 -830 9 -17 17 -31 18 -32 1 -1 164 -5 362 -8
l360 -5 3 -627 c2 -472 -1 -628 -9 -628 -22 0 -260 129 -363 197 -257 168
-510 419 -679 675 -382 577 -498 1265 -326 1935 80 313 248 643 462 908 84
104 290 304 392 382 265 200 562 347 858 422 410 105 795 105 1211 0 575 -145
1105 -535 1431 -1054 121 -192 230 -445 284 -661 105 -416 105 -801 0 -1211
-75 -296 -222 -593 -422 -858 -78 -102 -278 -308 -382 -392 -265 -214 -595
-382 -908 -462 -182 -47 -426 -81 -580 -81 l-57 0 2 728 3 727 575 5 c316 3
576 6 577 8 1 1 9 15 18 32 13 24 15 89 15 415 0 405 -3 432 -45 449 -9 3
-135 6 -279 6 -250 0 -263 -1 -284 -20 -32 -30 -33 -82 -1 -115 18 -19 35 -20
234 -23 l215 -3 0 -295 0 -294 -566 0 -566 0 -29 -29 -29 -30 2 -835 3 -835
23 -23 c22 -22 28 -23 200 -22 97 0 220 6 272 13 351 44 697 162 990 337 511
305 901 773 1105 1328 51 138 110 376 131 531 22 156 25 508 6 655 -47 358
-163 698 -338 990 -224 375 -529 680 -904 904 -289 173 -634 291 -980 336
-116 15 -445 21 -555 9z"/>
</g>
</svg>
