<?xml version="1.0" standalone="no"?>
<!DOCTYPE svg PUBLIC "-//W3C//DTD SVG 20010904//EN"
 "http://www.w3.org/TR/2001/REC-SVG-20010904/DTD/svg10.dtd">
<svg version="1.0" xmlns="http://www.w3.org/2000/svg"
 width="233.274540pt" height="237.925957pt" viewBox="0 0 233.274540 237.925957"
 preserveAspectRatio="xMidYMid meet">
<metadata>
Created by potrace 1.12, written by Peter Selinger 2001-2015
</metadata>
<g transform="translate(-13.056989,242.925957) scale(0.100000,-0.100000)"
fill="#000000" stroke="none">
<path d="M1125 2418 c-272 -51 -483 -161 -663 -346 -162 -167 -276 -391 -321
-628 -16 -84 -13 -323 4 -421 70 -397 349 -744 717 -891 158 -64 257 -82 437
-82 199 0 346 34 523 121 252 123 468 368 578 654 51 135 63 213 63 410 0 196
-8 251 -59 402 -120 353 -439 654 -794 749 -154 42 -360 55 -485 32z m292 -78
c263 -34 472 -138 648 -321 103 -107 136 -152 198 -270 59 -114 87 -196 111
-328 51 -271 -24 -595 -191 -829 -44 -62 -167 -193 -225 -239 -120 -96 -313
-181 -484 -212 -77 -14 -287 -14 -356 0 -58 12 -152 36 -183 48 -53 20 -199
96 -252 132 -96 64 -265 246 -319 344 -6 11 -22 40 -36 65 -46 84 -108 282
-108 346 0 15 -5 53 -12 85 -17 85 9 286 59 439 62 194 225 416 397 540 74 54
224 130 301 154 33 10 67 21 75 23 27 10 194 31 247 32 28 1 87 -4 130 -9z"/>
<path d="M932 2005 c-86 -21 -179 -73 -241 -135 -65 -65 -134 -193 -151 -278
-16 -85 -13 -665 5 -732 48 -183 171 -313 359 -381 46 -17 83 -19 391 -19 401
0 417 3 553 98 67 47 123 115 164 202 49 104 50 113 51 479 0 376 1 372 -61
500 -40 83 -140 179 -232 223 -41 20 -96 41 -123 47 -68 16 -645 13 -715 -4z
m743 -92 c73 -24 138 -67 195 -130 105 -118 120 -187 120 -543 0 -297 -9 -367
-57 -460 -35 -68 -125 -159 -186 -189 -96 -47 -134 -51 -455 -51 -280 0 -307
2 -365 21 -174 58 -288 197 -308 377 -5 42 -8 205 -6 362 4 303 2 293 58 405
56 113 199 212 324 224 33 3 188 5 345 3 228 -3 295 -6 335 -19z"/>
<path d="M913 1825 c-76 -35 -150 -108 -187 -185 l-31 -65 0 -340 0 -340 28
-56 c40 -83 96 -140 173 -180 l68 -34 335 0 336 0 57 28 c100 50 175 143 203
251 21 79 21 587 1 662 -30 115 -103 205 -204 256 -46 23 -53 23 -387 25 -339
2 -340 2 -392 -22z m741 -81 c67 -33 109 -75 141 -139 l25 -52 0 -314 c0 -309
-1 -315 -24 -365 -28 -61 -85 -119 -146 -148 -43 -20 -59 -21 -355 -21 -303 0
-311 1 -352 23 -56 29 -110 78 -129 115 -39 75 -44 115 -44 399 0 258 1 281
21 335 25 68 113 161 169 179 22 7 148 12 339 13 l303 1 52 -26z"/>
<path d="M1540 1652 c-33 -33 -40 -45 -40 -78 0 -44 28 -97 61 -115 31 -16 91
-16 121 -1 78 42 76 169 -2 216 -49 28 -94 21 -140 -22z m111 -68 c17 -21 0
-49 -32 -49 -24 0 -36 23 -25 51 7 19 40 18 57 -2z"/>
<path d="M1164 1490 c-101 -57 -144 -133 -144 -250 0 -93 20 -146 76 -204 61
-62 107 -81 204 -81 100 0 147 20 203 86 59 69 72 104 72 199 0 97 -18 143
-81 206 -54 53 -111 74 -202 74 -67 0 -84 -4 -128 -30z m226 -74 c54 -27 98
-88 106 -148 25 -181 -183 -305 -317 -190 -111 95 -104 249 15 330 61 40 127
43 196 8z"/>
<path d="M1245 1373 c-61 -32 -95 -83 -95 -142 0 -38 47 -106 87 -125 96 -46
203 23 203 131 0 61 -27 106 -79 133 -48 24 -76 25 -116 3z m95 -95 c27 -29
25 -54 -5 -83 -29 -30 -45 -31 -73 -5 -29 27 -29 74 0 94 31 22 54 20 78 -6z"/>
</g>
</svg>
