<?xml version="1.0" standalone="no"?>
<!DOCTYPE svg PUBLIC "-//W3C//DTD SVG 20010904//EN"
 "http://www.w3.org/TR/2001/REC-SVG-20010904/DTD/svg10.dtd">
<svg version="1.0" xmlns="http://www.w3.org/2000/svg"
 width="395.679610pt" height="374.969930pt" viewBox="0 0 395.679610 374.969930"
 preserveAspectRatio="xMidYMid meet">
<metadata>
Created by potrace 1.12, written by Peter Selinger 2001-2015
</metadata>
<g transform="translate(-12.320390,387.969930) scale(0.100000,-0.100000)"
fill="#000000" stroke="none">
<path d="M2117 3869 c-47 -27 -59 -106 -27 -178 25 -54 25 -94 0 -150 -11 -24
-20 -65 -20 -91 0 -74 -9 -77 -150 -50 -107 21 -127 22 -206 12 -54 -7 -137
-29 -218 -58 -196 -69 -281 -93 -355 -100 -88 -8 -170 9 -217 47 -58 46 -123
38 -152 -18 -17 -32 -15 -57 10 -108 l23 -46 -22 -57 c-11 -31 -94 -244 -183
-472 -89 -228 -215 -554 -281 -725 -66 -170 -124 -320 -129 -332 -5 -13 -18
-23 -29 -23 -54 0 -50 -57 11 -152 216 -333 719 -442 1113 -240 117 60 254
193 300 290 32 69 29 92 -16 102 -21 5 -41 49 -172 385 -438 1124 -469 1207
-459 1217 6 6 35 6 88 -2 116 -18 210 -7 380 45 171 52 242 62 343 46 124 -19
260 -89 300 -154 l21 -34 0 -1061 0 -1060 -39 -47 c-29 -35 -44 -67 -61 -133
-30 -112 -77 -165 -197 -224 -71 -34 -96 -41 -166 -45 -93 -6 -107 -16 -107
-74 0 -54 -17 -62 -141 -68 -100 -6 -111 -8 -135 -32 -35 -35 -46 -115 -19
-136 16 -11 189 -13 968 -13 634 0 955 3 968 10 38 21 17 134 -30 160 -11 5
-62 10 -113 10 -119 0 -141 11 -148 70 -8 65 -14 70 -78 70 -98 0 -188 32
-279 99 -59 43 -89 93 -113 186 -12 48 -30 89 -44 105 -13 14 -29 35 -35 47
-8 16 -11 317 -11 1078 0 1159 -4 1080 62 1141 44 40 71 56 143 84 51 20 78
23 180 23 113 0 127 -2 245 -41 216 -71 357 -78 514 -27 42 14 82 25 90 25 25
0 60 49 60 85 0 72 -80 102 -141 52 -56 -47 -168 -66 -273 -47 -36 6 -151 40
-257 75 -273 92 -335 97 -590 58 l-33 -5 0 53 c0 37 -8 70 -25 104 -30 61 -31
87 -5 144 47 102 9 191 -82 191 -24 0 -51 -5 -61 -11z m-1290 -2346 c-2 -2
-130 -2 -284 -1 l-281 3 65 165 c166 427 333 855 411 1055 l87 220 3 -719 c1
-396 1 -721 -1 -723z m252 987 c244 -619 381 -972 381 -981 0 -5 -124 -9 -275
-9 l-275 0 0 702 c0 386 2 699 4 697 3 -2 77 -187 165 -409z"/>
<path d="M2472 3038 c-17 -17 -17 -2079 0 -2096 19 -19 124 -16 132 4 3 9 6
60 6 115 l0 99 187 -2 187 -3 3 -35 c8 -69 24 -109 54 -134 74 -62 158 -3 175
122 6 45 10 52 29 52 19 0 23 -7 28 -51 9 -77 44 -132 91 -144 70 -17 122 37
135 138 5 47 8 52 31 52 22 0 25 -5 32 -53 18 -125 94 -178 167 -117 31 27 45
60 56 133 l7 42 64 0 64 0 0 -103 c0 -67 4 -107 12 -115 16 -16 120 -16 136 0
9 9 12 256 12 1050 0 1015 0 1038 -19 1048 -27 14 -114 13 -129 -2 -7 -7 -12
-43 -12 -90 l0 -78 -64 0 c-71 0 -68 -3 -81 75 -4 22 -18 55 -31 73 -22 27
-31 32 -69 32 -36 0 -48 -5 -69 -30 -26 -31 -46 -87 -46 -127 0 -19 -6 -23
-30 -23 -24 0 -30 4 -30 23 0 40 -20 96 -46 127 -34 39 -93 42 -129 6 -21 -21
-55 -109 -55 -143 0 -7 -11 -13 -24 -13 -21 0 -25 7 -35 59 -16 80 -53 121
-109 121 -64 0 -112 -65 -112 -152 l0 -28 -190 0 -190 0 0 78 c0 47 -5 83 -12
90 -16 16 -110 16 -126 0z m513 -300 c11 -73 25 -106 56 -133 75 -62 155 -4
174 128 6 41 10 47 31 47 21 0 24 -5 24 -34 0 -74 43 -151 91 -161 68 -15 113
29 134 135 10 48 14 55 36 55 21 0 25 -5 30 -50 15 -125 95 -181 168 -120 32
28 48 66 53 130 l4 40 67 3 67 3 0 -226 0 -226 -67 3 -68 3 -6 46 c-13 88 -47
129 -109 129 -56 0 -110 -78 -110 -157 0 -19 -6 -23 -30 -23 -24 0 -30 4 -30
23 0 44 -22 101 -50 129 -67 67 -153 11 -175 -114 l-7 -38 -169 0 -168 0 -6
38 c-18 99 -51 142 -112 142 -52 0 -88 -42 -104 -119 l-13 -61 -43 0 -43 0 0
218 c0 120 3 222 7 225 3 4 86 7 184 7 l177 0 7 -42z m-287 -529 c2 -13 10
-47 18 -76 39 -140 175 -117 204 35 l13 62 158 0 c88 0 162 1 167 2 4 1 10
-19 13 -43 10 -69 34 -116 68 -133 38 -20 54 -20 91 -1 37 19 58 59 68 127 6
47 10 52 32 52 23 0 26 -5 31 -50 11 -89 54 -144 112 -144 41 0 94 55 102 106
14 87 9 82 76 86 33 1 63 1 65 -1 2 -2 4 -103 4 -223 l0 -218 -65 0 -64 0 -6
38 c-14 86 -58 142 -110 142 -53 0 -102 -61 -112 -141 l-6 -39 -167 0 -167 0
-7 42 c-15 95 -65 146 -131 134 -18 -4 -39 -14 -48 -24 -24 -26 -47 -87 -47
-122 0 -26 -3 -30 -29 -30 -26 0 -29 3 -35 46 -8 59 -38 108 -76 124 -65 27
-123 -18 -142 -111 l-12 -59 -43 0 -43 0 0 218 c0 120 2 221 4 223 2 2 22 4
43 3 32 -1 38 -5 41 -25z m8 -576 c14 -71 34 -105 70 -121 36 -17 58 -15 88 9
35 28 52 63 61 127 7 50 8 52 33 49 25 -3 28 -9 34 -61 15 -118 98 -171 169
-108 24 21 36 45 49 96 l17 67 164 1 164 0 7 -51 c5 -29 15 -65 23 -81 17 -32
61 -60 96 -60 33 0 86 60 94 106 13 81 14 83 48 89 18 4 46 5 62 2 l30 -4 3
-221 2 -222 -64 0 -65 0 -7 48 c-13 88 -50 132 -112 132 -58 0 -112 -76 -112
-157 0 -19 -6 -23 -30 -23 -26 0 -30 3 -30 29 0 42 -20 93 -48 124 -61 65
-149 15 -172 -97 -10 -49 -14 -56 -36 -56 -18 0 -24 5 -24 23 0 44 -22 101
-50 129 -33 33 -82 37 -119 12 -29 -21 -60 -89 -61 -131 l0 -33 -190 0 -190 0
0 218 c0 120 3 221 6 225 3 3 22 5 42 3 35 -2 36 -3 48 -63z"/>
</g>
</svg>
