<?xml version="1.0" standalone="no"?>
<!DOCTYPE svg PUBLIC "-//W3C//DTD SVG 20010904//EN"
 "http://www.w3.org/TR/2001/REC-SVG-20010904/DTD/svg10.dtd">
<svg version="1.0" xmlns="http://www.w3.org/2000/svg"
 width="241.828303pt" height="241.378523pt" viewBox="0 0 241.828303 241.378523"
 preserveAspectRatio="xMidYMid meet">
<metadata>
Created by potrace 1.12, written by Peter Selinger 2001-2015
</metadata>
<g transform="translate(-8.645140,247.690687) scale(0.100000,-0.100000)"
fill="#000000" stroke="none">
<path d="M1165 2470 c-229 -32 -362 -82 -552 -205 -176 -115 -364 -339 -432
-515 -8 -19 -20 -48 -26 -65 -14 -32 -34 -106 -56 -195 -19 -82 -16 -376 5
-465 62 -259 154 -425 340 -611 253 -252 570 -370 936 -348 428 25 813 285
1010 682 22 44 40 85 40 91 0 6 4 19 9 29 11 18 32 94 53 182 17 75 17 357 -1
435 -110 489 -433 832 -896 953 -132 35 -316 48 -430 32z m377 -105 c107 -27
160 -46 238 -85 142 -69 208 -116 311 -219 148 -148 224 -279 297 -511 16 -49
42 -221 42 -273 0 -74 -29 -248 -57 -337 -90 -292 -303 -542 -574 -676 -206
-102 -435 -141 -645 -110 -174 26 -321 78 -454 160 -86 54 -99 65 -206 171
-215 213 -326 479 -326 785 -1 507 345 954 842 1087 30 8 82 18 115 23 91 13
342 4 417 -15z"/>
<path d="M1815 1831 c-27 -10 -326 -110 -663 -221 -338 -112 -624 -211 -635
-221 -18 -14 -20 -22 -11 -36 10 -19 227 -131 255 -132 8 -1 60 15 115 35 54
20 110 40 124 44 14 4 47 17 73 29 50 21 103 28 93 12 -4 -5 -45 -35 -94 -66
-145 -96 -132 -63 -132 -320 0 -228 3 -245 42 -245 9 0 42 31 73 70 31 38 62
70 68 70 8 0 19 -35 31 -97 53 -294 61 -317 100 -311 21 3 61 75 163 293 38
83 105 223 220 465 25 52 63 131 83 175 21 44 63 134 95 200 120 253 114 235
89 259 -19 20 -27 19 -89 -3z m-25 -110 c0 -5 -31 -74 -69 -153 -37 -78 -86
-181 -108 -228 -115 -242 -138 -291 -168 -355 -140 -300 -165 -347 -179 -336
-8 6 -17 33 -20 59 -4 26 -11 61 -15 77 -5 17 -21 97 -37 178 l-28 149 -43 25
c-24 14 -43 29 -43 34 0 4 37 34 83 65 404 277 392 268 392 299 0 28 -3 30
-35 29 -19 0 -66 -13 -105 -28 -38 -15 -95 -36 -125 -46 -30 -11 -73 -26 -95
-34 -84 -31 -332 -119 -378 -133 -37 -11 -54 -12 -81 -3 -42 14 -66 38 -47 49
6 4 119 43 249 86 130 43 296 98 367 122 72 24 164 55 205 68 41 12 113 36
160 53 91 32 120 37 120 23z m-705 -664 c26 -37 18 -88 -19 -132 -19 -22 -37
-37 -41 -33 -8 8 -8 176 0 188 8 13 45 -1 60 -23z"/>
</g>
</svg>
