<?xml version="1.0" standalone="no"?>
<!DOCTYPE svg PUBLIC "-//W3C//DTD SVG 20010904//EN"
 "http://www.w3.org/TR/2001/REC-SVG-20010904/DTD/svg10.dtd">
<svg version="1.0" xmlns="http://www.w3.org/2000/svg"
 width="627.000000pt" height="627.000000pt" viewBox="0 0 627.000000 627.000000"
 preserveAspectRatio="xMidYMid meet">
<metadata>
Created by potrace 1.12, written by Peter Selinger 2001-2015
</metadata>
<g transform="translate(0.500000,626.500000) scale(0.100000,-0.100000)"
fill="#BFA46F" fill-opacity="0.03" stroke="none">
<path d="M651 6239 c-1 -34 -9 -40 -31 -27 -28 18 -50 -6 -50 -55 l0 -40 -38
41 c-22 23 -46 42 -54 42 -39 0 -39 -85 -2 -217 22 -77 8 -92 -45 -47 -20 17
-40 24 -58 22 -25 -3 -28 -7 -28 -40 0 -20 -3 -34 -6 -30 -14 15 -131 231
-133 245 -3 22 -33 63 -40 56 -7 -6 13 -59 25 -69 3 -3 52 -88 108 -190 57
-102 106 -189 111 -193 6 -7 314 156 397 210 11 8 23 10 25 5 1 -5 14 5 28 22
20 24 21 29 7 23 -10 -4 -27 -7 -38 -7 -10 0 -16 -5 -14 -12 3 -8 -20 -27 -58
-47 -34 -18 -121 -67 -193 -107 -72 -41 -136 -74 -142 -74 -15 0 -58 96 -67
147 -9 56 11 65 63 29 43 -29 70 -33 78 -12 3 8 -4 52 -15 97 -39 152 -20 211
43 136 40 -48 54 -47 58 6 3 41 4 42 35 39 27 -2 34 2 39 23 3 13 4 30 1 37
-3 7 -6 1 -6 -13z"/>
<path d="M1181 6205 c-1 -33 -19 -122 -40 -200 -22 -77 -36 -143 -33 -146 4
-4 188 -10 410 -14 379 -7 402 -6 402 10 0 10 -18 76 -40 147 -27 89 -41 151
-42 197 l-1 66 -6 -60 -6 -60 -80 0 c-44 0 -186 2 -315 5 l-235 5 -6 55 -6 55
-2 -60z m647 -80 c3 -3 34 -103 69 -226 3 -9 -1 -18 -9 -20 -7 -2 -143 -2
-303 1 -159 3 -301 2 -315 -2 -14 -3 76 -7 200 -8 124 -2 272 -6 330 -10 74
-6 37 -7 -130 -4 -129 2 -307 4 -395 4 -144 1 -157 2 -130 15 l30 13 -27 1
-27 1 23 83 c13 45 29 102 36 125 l14 44 315 -7 c174 -4 317 -9 319 -10z"/>
<path d="M1206 6102 c-2 -4 -7 -30 -11 -58 l-6 -51 83 -6 c46 -4 190 -7 322
-7 l238 0 -6 33 c-13 69 -15 80 -18 82 -7 7 -598 13 -602 7z m590 -24 c6 -9
-565 0 -575 9 -3 2 124 3 282 2 168 -1 290 -5 293 -11z m-121 -17 c129 -7 120
-8 -105 -8 -135 -1 -272 3 -305 7 -80 10 218 10 410 1z m105 -31 c25 -6 6 -8
-71 -9 -160 -2 -499 11 -499 19 0 9 526 0 570 -10z m-83 -21 c70 1 114 -2 118
-9 5 -8 -55 -10 -202 -6 -114 3 -254 5 -310 5 -70 1 -103 5 -103 12 0 9 51 10
193 4 105 -4 242 -7 304 -6z"/>
<path d="M1212 6218 l-2 -46 63 -7 c34 -3 170 -5 302 -3 l240 3 3 48 c2 28 -1
47 -7 47 -6 0 -11 -20 -11 -44 l0 -43 -277 4 c-153 2 -283 6 -290 8 -6 2 -14
21 -16 42 -3 36 -4 36 -5 -9z"/>
<path d="M2110 6190 c-41 -38 -70 -69 -65 -69 6 0 44 31 85 69 41 39 71 70 65
70 -5 -1 -44 -32 -85 -70z"/>
<path d="M2622 6038 l-2 -228 43 -1 c23 -1 65 -3 92 -4 33 -1 43 0 30 6 -11 4
-32 8 -46 8 -24 1 -52 31 -30 31 5 0 11 -6 14 -12 2 -7 8 -10 12 -6 12 11 -4
28 -27 28 -15 0 -19 -5 -15 -20 4 -17 0 -20 -29 -20 l-34 0 -3 223 -2 222 -3
-227z"/>
<path d="M2702 6209 l-2 -57 124 -7 c115 -6 123 -8 119 -26 -4 -14 0 -19 16
-19 22 0 43 31 25 37 -5 2 -7 30 -6 63 2 33 0 60 -5 60 -4 0 -6 -22 -5 -50 l4
-50 -131 0 -130 0 -4 53 -3 52 -2 -56z"/>
<path d="M3038 6038 l-3 -223 -110 -6 -110 -5 118 -2 117 -2 0 230 c0 127 -2
230 -5 230 -2 0 -6 -100 -7 -222z"/>
<path d="M3781 6239 c-1 -32 -10 -42 -27 -28 -9 7 -19 7 -33 -1 -16 -8 -21
-21 -21 -52 l0 -41 -38 41 c-43 46 -53 50 -73 26 -18 -21 -14 -82 11 -178 25
-97 17 -111 -39 -72 -23 16 -49 26 -63 24 -19 -2 -23 -9 -23 -40 0 -20 -3 -34
-7 -30 -14 15 -137 246 -133 251 5 9 -33 57 -40 50 -6 -6 14 -59 26 -69 3 -3
52 -88 108 -190 57 -102 106 -189 111 -193 4 -5 99 43 211 106 112 63 206 111
209 107 3 -4 16 7 30 24 20 24 21 29 7 23 -10 -4 -27 -7 -38 -7 -10 0 -16 -5
-14 -12 3 -8 -21 -27 -58 -47 -34 -18 -121 -67 -192 -107 -72 -41 -136 -74
-142 -74 -16 0 -59 95 -68 147 -9 56 11 65 63 29 43 -29 70 -33 78 -12 3 8 -4
52 -15 97 -39 152 -20 211 43 136 40 -48 54 -47 58 6 3 41 4 42 35 39 27 -2
34 2 39 23 3 13 4 30 1 37 -3 7 -6 1 -6 -13z"/>
<path d="M4312 6205 c-1 -34 -19 -121 -41 -200 -22 -77 -37 -143 -33 -146 4
-4 188 -10 410 -14 383 -7 402 -7 402 11 0 9 -16 70 -36 133 -21 65 -40 151
-44 196 -7 74 -7 76 -9 24 -1 -46 -4 -58 -20 -62 -21 -5 -590 2 -608 8 -7 2
-14 28 -16 57 l-3 53 -2 -60z m544 -75 l101 0 16 -52 c49 -164 57 -191 53
-196 -3 -2 -151 -5 -328 -5 l-323 0 324 -8 c177 -4 326 -11 330 -15 3 -4 -104
-4 -238 0 -134 3 -312 6 -395 7 -136 1 -148 2 -121 14 l30 14 -26 1 -26 0 24
88 c14 48 29 105 35 126 l11 39 216 -6 c119 -4 262 -7 317 -7z"/>
<path d="M4336 6101 c-2 -3 -7 -29 -11 -57 l-6 -51 92 -6 c140 -10 549 -8 549
2 0 5 -5 32 -12 60 l-11 51 -181 2 c-100 1 -234 2 -299 3 -65 1 -119 -1 -121
-4z m589 -22 c4 -5 -39 -10 -107 -11 l-113 -2 120 -6 c93 -5 65 -6 -125 -7
-135 0 -272 3 -305 7 -46 5 -16 8 125 11 l185 3 -180 6 c-169 5 -162 6 107 7
172 1 290 -2 293 -8z m-20 -49 c30 -6 14 -8 -66 -9 -160 -2 -499 11 -499 19 0
9 514 0 565 -10z m-123 -21 c99 0 160 -5 164 -11 5 -7 -63 -9 -222 -5 -126 4
-266 7 -311 7 -55 0 -83 4 -83 11 0 9 40 10 148 5 81 -4 218 -7 304 -7z"/>
<path d="M4342 6218 l-2 -47 53 -6 c28 -3 165 -5 302 -3 l250 3 3 48 c2 26 -1
47 -7 47 -5 0 -11 -19 -13 -42 l-3 -43 -280 3 c-154 2 -283 7 -287 10 -4 4 -8
23 -11 42 -3 30 -4 29 -5 -12z"/>
<path d="M5240 6190 c-41 -38 -70 -69 -65 -69 6 0 44 31 85 69 41 39 71 70 65
70 -5 -1 -44 -32 -85 -70z"/>
<path d="M5752 6039 l-2 -226 107 -6 c58 -4 155 -7 215 -7 l108 0 -2 233 -2
232 -6 -225 -5 -225 -158 0 c-127 0 -160 3 -167 15 -5 8 -6 17 -3 20 3 3 8 -1
10 -7 6 -18 23 -16 23 2 0 10 -10 15 -26 15 -21 0 -25 -4 -21 -20 4 -17 0 -20
-29 -20 l-34 0 -3 223 -2 222 -3 -226z"/>
<path d="M5832 6208 l-2 -58 63 -1 c75 -1 102 -9 102 -29 0 -8 10 -16 23 -18
16 -3 22 1 21 15 0 10 -3 13 -6 6 -2 -7 -11 -13 -19 -13 -8 0 -11 6 -8 15 4 9
19 15 39 15 28 0 32 -3 28 -20 -4 -16 0 -20 21 -20 19 0 26 5 26 20 0 11 -3
20 -7 20 -5 0 -6 27 -5 60 l4 60 -29 -1 c-23 -1 -24 -2 -5 -6 19 -4 22 -11 22
-49 l0 -44 -129 0 -130 0 -4 53 -3 52 -2 -57z"/>
<path d="M2690 6126 c0 -8 7 -17 16 -20 14 -5 15 -4 4 9 -10 12 -10 15 3 15 8
0 18 -6 20 -12 3 -8 6 -6 6 5 1 12 -7 17 -24 17 -15 0 -25 -6 -25 -14z"/>
<path d="M5822 6123 c2 -9 10 -19 18 -21 13 -5 13 -3 1 11 -11 15 -11 17 2 17
8 0 18 -6 20 -12 3 -8 6 -6 6 5 1 12 -7 17 -25 17 -18 0 -25 -5 -22 -17z"/>
<path d="M5914 6129 c-3 -6 -2 -15 4 -21 13 -13 42 -3 42 14 0 9 -3 9 -12 0
-17 -17 -31 -15 -24 3 6 17 0 20 -10 4z"/>
<path d="M2782 6120 c3 -8 13 -15 23 -15 10 0 21 7 23 15 4 12 2 13 -10 3 -11
-10 -17 -10 -27 0 -11 10 -13 9 -9 -3z"/>
<path d="M2862 6118 c3 -7 14 -14 26 -16 16 -3 22 2 21 15 0 10 -3 13 -6 6 -2
-7 -11 -13 -19 -13 -9 0 -12 5 -9 10 3 6 1 10 -5 10 -7 0 -10 -6 -8 -12z"/>
<path d="M2775 6080 c-4 -7 -3 -16 3 -22 14 -14 47 -6 47 12 0 18 -40 26 -50
10z"/>
<path d="M2867 6083 c-4 -3 -7 -12 -7 -20 0 -18 46 -17 53 1 8 19 -31 35 -46
19z"/>
<path d="M2934 6079 c-3 -6 -2 -15 4 -21 15 -15 46 -5 50 15 3 12 -3 17 -22
17 -14 0 -28 -5 -32 -11z"/>
<path d="M5850 6077 c0 -20 -16 -23 -23 -4 -3 7 -6 5 -6 -5 -1 -11 6 -18 18
-18 25 0 37 18 22 33 -8 8 -11 6 -11 -6z"/>
<path d="M5905 6080 c-4 -7 -3 -16 3 -22 14 -14 47 -6 47 12 0 18 -40 26 -50
10z"/>
<path d="M6003 6083 c-23 -9 -14 -33 11 -33 28 0 42 26 20 34 -9 3 -16 6 -17
5 -1 0 -8 -3 -14 -6z"/>
<path d="M6070 6069 c0 -15 5 -20 22 -17 34 5 37 38 4 38 -20 0 -26 -5 -26
-21z"/>
<path d="M2690 6068 c0 -20 34 -25 45 -7 11 16 -5 25 -16 9 -8 -13 -10 -13
-19 0 -8 13 -10 12 -10 -2z"/>
<path d="M2690 6009 c0 -15 5 -20 22 -17 34 5 37 38 4 38 -20 0 -26 -5 -26
-21z"/>
<path d="M2770 6015 c0 -8 5 -15 11 -15 5 0 7 5 4 10 -3 6 4 10 16 10 19 0 20
-2 8 -17 -12 -14 -12 -16 1 -11 8 2 16 12 18 21 3 13 -4 17 -27 17 -21 0 -31
-5 -31 -15z"/>
<path d="M2854 6019 c-3 -6 -2 -15 4 -21 15 -15 46 -5 50 15 3 12 -3 17 -22
17 -14 0 -28 -5 -32 -11z"/>
<path d="M2947 6023 c-16 -15 -6 -34 15 -31 29 4 38 38 10 38 -10 0 -22 -3
-25 -7z"/>
<path d="M5816 6015 c-6 -18 16 -30 39 -21 8 3 15 12 15 21 0 20 -46 20 -54 0z"/>
<path d="M5900 6015 c0 -8 5 -15 11 -15 5 0 7 5 4 10 -3 6 4 10 16 10 19 0 20
-2 8 -17 -12 -14 -12 -16 1 -11 8 2 16 12 18 21 3 13 -4 17 -27 17 -21 0 -31
-5 -31 -15z"/>
<path d="M5984 6019 c-3 -6 -2 -15 4 -21 15 -15 46 -5 50 15 3 12 -3 17 -22
17 -14 0 -28 -5 -32 -11z"/>
<path d="M6077 6023 c-16 -15 -6 -34 15 -31 29 4 38 38 10 38 -10 0 -22 -3
-25 -7z"/>
<path d="M2683 5955 c-3 -9 -3 -18 0 -22 11 -10 57 7 57 22 0 20 -49 20 -57 0z"/>
<path d="M2777 5963 c-17 -17 -6 -34 20 -31 36 4 45 38 10 38 -13 0 -27 -3
-30 -7z"/>
<path d="M2860 5949 c0 -15 5 -20 22 -17 34 5 37 38 4 38 -20 0 -26 -5 -26
-21z"/>
<path d="M2942 5953 c2 -10 12 -18 23 -18 11 0 21 8 23 18 3 13 -3 17 -23 17
-20 0 -26 -4 -23 -17z"/>
<path d="M5813 5955 c-3 -9 -3 -18 0 -22 11 -10 57 7 57 22 0 20 -49 20 -57 0z"/>
<path d="M5907 5963 c-17 -17 -6 -34 20 -31 36 4 45 38 10 38 -13 0 -27 -3
-30 -7z"/>
<path d="M5990 5949 c0 -15 5 -20 22 -17 34 5 37 38 4 38 -20 0 -26 -5 -26
-21z"/>
<path d="M6072 5953 c2 -10 12 -18 23 -18 11 0 21 8 23 18 3 13 -3 17 -23 17
-20 0 -26 -4 -23 -17z"/>
<path d="M2109 5931 c-24 -19 -24 -19 -23 -247 0 -284 -11 -266 173 -262 l126
3 20 40 c17 36 19 61 20 237 0 162 -3 200 -15 212 -18 18 -122 36 -211 36 -51
0 -72 -5 -90 -19z m200 -1 c40 -5 80 -15 88 -22 12 -10 14 -48 11 -218 -4
-271 3 -260 -152 -260 -167 0 -157 -17 -154 260 l3 224 25 13 c30 15 79 16
179 3z"/>
<path d="M2232 5883 l-102 -4 2 -207 3 -207 116 -3 117 -3 6 43 c3 24 8 111
12 194 7 158 0 196 -34 192 -9 -1 -63 -4 -120 -5z m138 -145 c0 -73 -3 -163
-7 -200 l-6 -68 -86 0 c-143 0 -131 -18 -131 199 0 103 3 191 7 194 3 4 55 7
115 7 l108 0 0 -132z"/>
<path d="M2154 5595 c-7 -18 3 -35 21 -35 16 0 38 34 28 44 -12 11 -44 6 -49
-9z m36 -11 c0 -9 -5 -14 -12 -12 -18 6 -21 28 -4 28 9 0 16 -7 16 -16z"/>
<path d="M2230 5584 c0 -21 4 -25 23 -22 14 2 23 11 25 26 3 18 -1 22 -22 22
-21 0 -26 -5 -26 -26z m38 4 c-6 -18 -28 -21 -28 -4 0 9 7 16 16 16 9 0 14 -5
12 -12z"/>
<path d="M2304 5595 c-8 -20 4 -35 27 -35 14 0 19 7 19 25 0 18 -5 25 -20 25
-11 0 -23 -7 -26 -15z m36 -10 c0 -8 -4 -15 -10 -15 -5 0 -10 7 -10 15 0 8 5
15 10 15 6 0 10 -7 10 -15z"/>
<path d="M2164 5525 c-8 -20 4 -35 27 -35 14 0 19 7 19 25 0 18 -5 25 -20 25
-11 0 -23 -7 -26 -15z"/>
<path d="M2237 5533 c-4 -3 -7 -15 -7 -25 0 -13 7 -18 25 -18 20 0 25 5 25 25
0 18 -5 25 -18 25 -10 0 -22 -3 -25 -7z m24 -26 c-13 -13 -26 -3 -16 12 3 6
11 8 17 5 6 -4 6 -10 -1 -17z"/>
<path d="M2307 5533 c-4 -3 -7 -15 -7 -25 0 -13 7 -18 25 -18 20 0 25 5 25 25
0 18 -5 25 -18 25 -10 0 -22 -3 -25 -7z"/>
<path d="M5239 5931 c-24 -19 -24 -20 -24 -246 1 -284 -11 -267 174 -263 l126
3 20 40 c17 36 19 61 20 237 0 163 -3 200 -15 212 -17 18 -126 36 -216 36 -46
0 -68 -5 -85 -19z m205 -1 c38 -6 76 -16 83 -22 12 -9 14 -50 11 -218 -4 -271
2 -260 -151 -260 -156 0 -152 -4 -159 157 -3 70 -3 173 1 228 6 93 8 100 31
112 30 15 91 16 184 3z"/>
<path d="M5362 5883 l-102 -4 2 -207 3 -207 116 -3 117 -3 5 43 c4 24 9 111
13 194 7 159 0 196 -34 192 -9 -1 -63 -4 -120 -5z m138 -145 c0 -73 -3 -163
-7 -200 l-6 -68 -86 0 c-143 0 -131 -18 -131 199 0 103 3 191 7 194 3 4 55 7
115 7 l108 0 0 -132z"/>
<path d="M5283 5594 c-3 -8 -1 -20 5 -26 16 -16 42 -2 42 22 0 24 -38 28 -47
4z m37 -10 c0 -17 -22 -14 -28 4 -2 7 3 12 12 12 9 0 16 -7 16 -16z"/>
<path d="M5360 5584 c0 -21 4 -25 23 -22 14 2 23 11 25 26 3 18 -1 22 -22 22
-21 0 -26 -5 -26 -26z m38 4 c-6 -18 -28 -21 -28 -4 0 9 7 16 16 16 9 0 14 -5
12 -12z"/>
<path d="M5434 5595 c-8 -20 4 -35 27 -35 14 0 19 7 19 25 0 18 -5 25 -20 25
-11 0 -23 -7 -26 -15z m36 -10 c0 -8 -4 -15 -10 -15 -5 0 -10 7 -10 15 0 8 5
15 10 15 6 0 10 -7 10 -15z"/>
<path d="M5303 5533 c-7 -2 -13 -13 -13 -24 0 -14 7 -19 25 -19 20 0 25 5 25
25 0 24 -11 29 -37 18z m24 -29 c-9 -9 -28 6 -21 18 4 6 10 6 17 -1 6 -6 8
-13 4 -17z"/>
<path d="M5367 5533 c-4 -3 -7 -15 -7 -25 0 -13 7 -18 25 -18 20 0 25 5 25 25
0 18 -5 25 -18 25 -10 0 -22 -3 -25 -7z m24 -26 c-13 -13 -26 -3 -16 12 3 6
11 8 17 5 6 -4 6 -10 -1 -17z"/>
<path d="M5437 5533 c-4 -3 -7 -15 -7 -25 0 -13 7 -18 25 -18 20 0 25 5 25 25
0 18 -5 25 -18 25 -10 0 -22 -3 -25 -7z"/>
<path d="M2775 5912 c-15 -15 -2 -32 25 -32 37 0 41 26 5 32 -13 3 -27 3 -30
0z"/>
<path d="M2857 5913 c-15 -15 -6 -33 17 -33 22 0 44 16 35 24 -10 9 -46 15
-52 9z"/>
<path d="M2937 5914 c-17 -18 -6 -35 21 -32 16 2 27 9 27 18 0 16 -36 26 -48
14z"/>
<path d="M5905 5912 c-15 -15 -2 -32 25 -32 37 0 41 26 5 32 -13 3 -27 3 -30
0z"/>
<path d="M5987 5914 c-4 -4 -7 -13 -7 -21 0 -18 46 -17 54 2 3 8 1 15 -3 15
-5 0 -16 2 -23 5 -8 3 -17 2 -21 -1z"/>
<path d="M6067 5914 c-17 -18 -6 -35 21 -32 16 2 27 9 27 18 0 16 -36 26 -48
14z"/>
<path d="M2690 5890 c0 -15 7 -20 25 -20 18 0 25 5 25 20 0 15 -7 20 -25 20
-18 0 -25 -5 -25 -20z"/>
<path d="M5820 5890 c0 -15 7 -20 25 -20 18 0 25 5 25 20 0 15 -7 20 -25 20
-18 0 -25 -5 -25 -20z"/>
<path d="M2764 5849 c-8 -13 15 -30 36 -26 8 1 16 10 18 20 3 12 -3 17 -22 17
-14 0 -28 -5 -32 -11z"/>
<path d="M2860 5845 c0 -9 9 -15 25 -15 16 0 25 6 25 15 0 9 -9 15 -25 15 -16
0 -25 -6 -25 -15z"/>
<path d="M2935 5850 c-4 -7 -3 -16 3 -22 14 -14 47 -6 47 12 0 18 -40 26 -50
10z"/>
<path d="M5894 5849 c-8 -13 15 -30 36 -26 8 1 16 10 18 20 3 12 -3 17 -22 17
-14 0 -28 -5 -32 -11z"/>
<path d="M5987 5854 c-11 -12 3 -24 29 -24 15 0 24 6 24 15 0 15 -40 21 -53 9z"/>
<path d="M6065 5850 c-4 -7 -3 -16 3 -22 14 -14 47 -6 47 12 0 18 -40 26 -50
10z"/>
<path d="M23 5768 c-13 -6 -23 -15 -23 -20 0 -5 13 -2 28 6 27 14 29 13 44
-12 37 -62 238 -435 238 -441 0 -3 -70 -44 -155 -91 -85 -47 -155 -89 -155
-93 0 -4 33 11 73 33 39 22 111 62 159 88 48 26 88 53 88 60 0 22 -253 482
-265 481 -5 0 -20 -5 -32 -11z"/>
<path d="M3005 5685 c-93 -52 -170 -98 -170 -104 0 -16 259 -481 269 -481 20
0 345 186 346 198 0 21 -253 482 -265 482 -5 0 -86 -43 -180 -95z m292 -115
c103 -188 146 -271 141 -275 -27 -22 -322 -176 -331 -172 -10 4 -90 141 -236
409 -14 26 -23 49 -21 51 3 3 79 45 169 95 149 82 166 89 176 74 7 -9 52 -91
102 -182z"/>
<path d="M3047 5589 c-59 -34 -106 -64 -103 -66 2 -3 58 25 123 61 65 36 111
66 103 66 -8 0 -64 -28 -123 -61z"/>
<path d="M3130 5574 c-119 -66 -152 -86 -147 -91 5 -5 193 100 212 118 16 16
2 10 -65 -27z"/>
<path d="M3122 5511 c-57 -32 -108 -64 -115 -71 -15 -15 0 -8 128 63 101 56
100 55 94 61 -2 2 -50 -22 -107 -53z"/>
<path d="M3140 5458 c-58 -32 -109 -64 -115 -70 -13 -14 188 91 217 114 44 33
2 16 -102 -44z"/>
<path d="M3171 5410 c-101 -58 -161 -100 -91 -65 63 32 210 116 210 121 0 9
-19 0 -119 -56z"/>
<path d="M6115 5674 c-77 -42 -144 -80 -148 -84 -8 -7 231 -451 258 -479 7 -7
19 -10 26 -6 9 6 7 10 -7 16 -12 4 -67 91 -142 227 -67 121 -122 224 -122 228
0 5 56 40 124 77 116 64 168 96 156 97 -3 0 -68 -34 -145 -76z"/>
<path d="M4725 5650 l-200 -36 -8 -139 c-4 -77 -6 -196 -5 -264 3 -119 4 -125
28 -142 24 -18 29 -18 235 19 l210 37 3 110 c2 61 0 179 -3 262 l-7 153 -23
-6 c-19 -5 -24 -1 -27 18 l-3 23 -200 -35z m195 6 c0 -18 -5 -20 -178 -51
-132 -24 -182 -25 -182 -7 0 6 294 65 348 71 6 0 12 -5 12 -13z m54 -268 c3
-133 3 -245 -1 -248 -9 -7 -349 -70 -379 -70 -18 0 -19 11 -16 207 1 115 5
226 7 248 l6 40 167 31 c92 18 176 32 188 33 20 1 21 -4 28 -241z m-416 190
c14 -14 15 -125 5 -357 -6 -149 -6 -151 -26 -134 -18 17 -19 28 -13 208 3 105
6 214 6 243 0 53 6 62 28 40z"/>
<path d="M4610 5390 c-11 -7 -12 -12 -3 -21 14 -14 84 0 91 19 5 15 -65 17
-88 2z m79 -4 c-11 -9 -69 -15 -64 -6 3 6 20 10 37 10 17 0 29 -2 27 -4z"/>
<path d="M4615 5270 c-9 -15 4 -30 26 -30 25 0 59 17 59 30 0 13 -77 13 -85 0z
m55 -10 c-20 -13 -50 -13 -50 0 0 6 15 10 33 10 24 0 28 -3 17 -10z"/>
<path d="M1570 5646 l-175 -31 -8 -140 c-4 -77 -6 -196 -5 -264 3 -119 4 -125
28 -142 24 -18 29 -18 235 19 l210 37 3 130 c2 72 0 190 -3 262 l-7 133 -24
-6 c-20 -5 -24 -2 -24 15 0 27 -10 27 -230 -13z m220 10 c0 -18 -5 -20 -178
-51 -133 -24 -182 -25 -182 -6 0 4 75 21 168 38 204 37 192 36 192 19z m52
-201 c1 -96 3 -207 3 -247 l0 -72 -150 -27 c-82 -16 -172 -31 -200 -34 l-50
-7 2 189 c2 103 5 215 9 248 l5 61 167 31 c92 17 177 31 190 32 22 1 22 1 24
-174z m-401 7 c0 -54 -4 -163 -7 -245 -7 -145 -7 -147 -26 -130 -19 17 -19 28
-13 258 4 132 9 244 12 248 3 5 12 -1 20 -13 12 -16 15 -47 14 -118z"/>
<path d="M1481 5391 c-17 -11 -6 -31 17 -30 11 0 12 2 4 6 -22 9 -2 23 31 22
31 -1 31 -1 7 -10 l-25 -8 24 2 c14 1 26 8 29 15 4 14 -65 17 -87 3z"/>
<path d="M1485 5270 c-9 -15 4 -30 26 -30 25 0 59 17 59 30 0 13 -77 13 -85 0z
m55 -10 c-20 -13 -50 -13 -50 0 0 6 15 10 33 10 24 0 28 -3 17 -10z"/>
<path d="M10 5640 c-13 -9 -13 -10 0 -10 8 0 22 5 30 10 13 9 13 10 0 10 -8 0
-22 -5 -30 -10z"/>
<path d="M6157 5578 c-48 -28 -86 -53 -83 -55 5 -5 174 85 182 98 10 17 -11 8
-99 -43z"/>
<path d="M33 5593 c-18 -9 -33 -20 -33 -25 0 -9 24 2 55 26 25 19 19 19 -22
-1z"/>
<path d="M786 5595 c-14 -8 -35 -15 -46 -17 -16 -2 -26 -17 -39 -55 -10 -28
-30 -70 -45 -93 -56 -85 -43 -145 42 -182 67 -30 269 -32 327 -3 22 11 42 29
44 39 2 11 -5 53 -14 94 -12 50 -16 92 -11 133 l6 59 -35 0 c-19 0 -38 6 -42
14 -12 20 -153 28 -187 11z m62 -12 c-10 -2 -28 -2 -40 0 -13 2 -5 4 17 4 22
1 32 -1 23 -4z m102 -3 c0 -5 -14 -7 -32 -3 -46 8 -48 13 -5 13 21 0 37 -4 37
-10z m80 -30 c0 -6 -58 -10 -155 -10 -97 0 -155 4 -155 10 0 6 58 10 155 10
97 0 155 -4 155 -10z m0 -76 c0 -31 7 -83 16 -116 8 -33 13 -67 10 -75 -3 -8
-21 -20 -41 -28 -47 -20 -253 -20 -300 -1 -31 13 -35 19 -35 53 0 21 9 67 20
101 11 35 20 77 20 93 l0 29 155 0 155 0 0 -56z m-349 -79 c-12 -37 -21 -76
-21 -87 0 -10 -4 -16 -10 -13 -19 12 -10 77 17 125 15 27 29 47 31 45 2 -2 -6
-33 -17 -70z"/>
<path d="M3916 5595 c-14 -8 -35 -15 -46 -17 -16 -2 -26 -17 -39 -55 -10 -28
-30 -70 -45 -93 -56 -85 -43 -145 42 -182 67 -30 269 -32 327 -3 22 11 42 29
44 39 2 11 -5 53 -14 94 -12 50 -16 92 -11 133 l6 59 -35 0 c-19 0 -38 6 -42
14 -12 20 -153 28 -187 11z m62 -12 c-10 -2 -28 -2 -40 0 -13 2 -5 4 17 4 22
1 32 -1 23 -4z m102 -3 c0 -5 -14 -7 -32 -3 -46 8 -48 13 -5 13 21 0 37 -4 37
-10z m80 -30 c0 -6 -58 -10 -155 -10 -97 0 -155 4 -155 10 0 6 58 10 155 10
97 0 155 -4 155 -10z m0 -77 c0 -32 7 -83 15 -113 18 -68 12 -88 -31 -106 -46
-19 -252 -19 -299 0 -31 13 -35 19 -35 53 0 21 9 67 20 101 11 35 20 77 20 93
l0 29 155 0 155 0 0 -57z m-349 -79 c-11 -38 -22 -78 -24 -89 -3 -17 -6 -16
-16 9 -11 27 -9 37 20 93 18 35 34 61 36 59 2 -2 -5 -35 -16 -72z"/>
<path d="M45 5540 c-28 -16 -45 -30 -38 -30 6 0 29 10 50 22 47 27 47 27 42
32 -3 3 -27 -8 -54 -24z"/>
<path d="M6225 5556 c-11 -7 -42 -25 -68 -40 -27 -15 -47 -30 -44 -32 6 -6
135 64 143 77 7 13 -7 10 -31 -5z"/>
<path d="M63 5487 c-28 -18 -55 -36 -60 -41 -11 -12 88 39 112 58 34 27 2 16
-52 -17z"/>
<path d="M6197 5481 c-72 -43 -81 -59 -12 -22 63 35 86 51 70 50 -6 0 -32 -13
-58 -28z"/>
<path d="M70 5425 c-41 -25 -71 -45 -66 -45 10 0 156 80 156 86 0 9 -19 1 -90
-41z"/>
<path d="M6203 5420 c-69 -40 -68 -47 2 -13 30 15 55 31 55 35 0 11 1 11 -57
-22z"/>
<path d="M6213 5360 c-46 -28 -41 -35 7 -10 38 19 49 30 33 30 -5 0 -23 -9
-40 -20z"/>
<path d="M2586 5194 c-54 -80 -95 -148 -92 -151 3 -3 48 61 101 142 53 81 94
149 92 151 -2 2 -48 -62 -101 -142z"/>
<path d="M5716 5194 c-54 -80 -95 -148 -92 -151 3 -3 48 61 101 142 53 81 95
149 92 151 -2 2 -48 -62 -101 -142z"/>
<path d="M2520 5255 c-18 -22 -8 -50 19 -50 32 0 49 28 32 49 -17 20 -35 20
-51 1z m43 -9 c7 -17 -18 -40 -33 -31 -14 9 -13 32 3 38 20 9 25 8 30 -7z"/>
<path d="M5650 5255 c-18 -22 -8 -50 19 -50 32 0 49 28 32 49 -17 20 -35 20
-51 1z m43 -9 c7 -17 -18 -40 -33 -31 -14 9 -13 32 3 38 20 9 25 8 30 -7z"/>
<path d="M2611 5121 c-7 -13 -6 -24 3 -37 13 -17 15 -17 40 -1 29 19 32 27 14
45 -18 18 -46 15 -57 -7z m49 -10 c0 -21 -26 -36 -36 -20 -9 15 3 39 21 39 8
0 15 -9 15 -19z"/>
<path d="M5741 5121 c-7 -13 -6 -24 3 -37 13 -17 15 -17 40 -1 29 19 32 27 14
45 -18 18 -46 15 -57 -7z m49 -11 c0 -13 -7 -20 -20 -20 -19 0 -27 20 -13 33
13 14 33 6 33 -13z"/>
<path d="M742 4992 c-207 -61 -217 -67 -214 -126 1 -17 41 -168 89 -336 86
-299 88 -305 113 -302 14 1 106 25 206 53 163 46 182 53 197 79 17 28 15 35
-75 359 -72 261 -95 331 -107 330 -9 -1 -103 -26 -209 -57z m218 18 c0 -15
-12 -23 -47 -33 -29 -9 -52 -11 -59 -6 -7 6 -46 -1 -100 -17 -168 -49 -183
-52 -188 -38 -3 8 22 19 77 34 45 12 127 35 182 50 123 35 135 36 135 10z m20
-64 c0 -17 -9 -24 -43 -33 -24 -7 -53 -10 -64 -7 -11 3 -39 1 -61 -5 -32 -9
-40 -15 -36 -29 5 -16 5 -16 -6 0 -9 14 -15 15 -38 6 -65 -26 -142 -45 -147
-38 -7 11 40 36 80 44 65 12 120 28 132 38 7 6 13 8 13 5 0 -3 35 7 78 23 42
15 80 26 85 23 4 -2 7 -14 7 -27z m-344 -346 c4 -25 10 -47 13 -50 15 -11 80
-273 72 -288 -9 -16 -29 44 -81 237 -15 58 -45 163 -65 232 -28 92 -36 134
-30 155 6 25 13 10 46 -106 21 -74 41 -155 45 -180z m356 298 c0 -4 1 -13 2
-19 1 -16 -85 -41 -99 -29 -7 6 -62 -7 -150 -35 -76 -25 -141 -43 -143 -40
-13 12 51 42 81 36 4 0 27 8 51 20 25 11 51 22 58 23 39 7 84 19 93 25 13 8
77 27 93 27 6 1 13 -3 14 -8z m25 -94 c-11 -12 -218 -65 -267 -69 -73 -6 -111
-22 -102 -43 5 -15 4 -15 -12 1 -15 14 -16 20 -6 33 7 8 15 12 18 9 3 -3 10
-1 16 3 6 5 31 14 56 21 25 7 56 18 70 24 14 6 33 12 44 14 10 2 33 10 52 19
18 9 52 22 76 29 42 12 43 12 52 -12 4 -13 6 -26 3 -29z m13 -23 c0 -5 3 -16
6 -24 4 -11 -5 -18 -32 -26 -21 -6 -42 -7 -48 -2 -7 5 -50 -3 -106 -20 -52
-16 -107 -31 -121 -34 -15 -3 -39 -11 -55 -20 -15 -8 -30 -12 -33 -9 -8 8 13
20 59 34 25 7 52 19 60 25 14 11 45 21 205 69 61 18 65 18 65 7z m18 -77 c2
-15 -6 -22 -37 -30 -25 -7 -44 -7 -49 -2 -14 14 -51 -12 -44 -31 5 -13 2 -12
-12 2 -12 11 -22 14 -30 8 -6 -5 -31 -12 -56 -17 -51 -9 -50 -9 -70 -17 -28
-11 -94 -26 -98 -23 -2 3 21 12 51 22 39 12 54 21 52 33 -1 9 0 10 2 4 3 -7 7
-13 10 -13 14 0 152 44 188 60 78 34 88 35 93 4z m16 -50 c3 -9 6 -19 6 -24 0
-13 -69 -33 -92 -27 -11 3 -59 -6 -107 -20 -173 -50 -192 -55 -198 -49 -4 3
-4 7 -2 9 12 10 172 57 194 57 27 0 32 9 13 28 -7 7 -8 12 -4 12 5 0 14 -7 20
-15 10 -14 19 -12 70 15 67 34 91 37 100 14z m16 -64 c9 -17 5 -21 -37 -33
-31 -9 -52 -11 -60 -5 -7 6 -18 5 -30 -1 -16 -9 -121 -42 -148 -47 -5 -1 -13
-3 -17 -4 -5 -1 -12 -4 -18 -5 -5 -1 -13 -4 -17 -5 -5 -1 -12 -2 -16 -1 -4 1
-17 -3 -27 -9 -12 -7 -20 -7 -20 -1 0 5 13 12 29 16 22 5 28 11 24 23 -3 12
-2 13 4 5 10 -13 59 -11 102 6 14 5 35 12 46 17 11 4 26 8 33 10 8 1 21 5 30
9 14 5 14 7 2 16 -13 9 -12 10 2 5 13 -4 77 10 105 23 1 1 7 -8 13 -19z m18
-61 c2 -12 -9 -19 -40 -28 -24 -6 -50 -10 -58 -9 -37 3 -49 -2 -44 -19 4 -12
3 -14 -3 -6 -8 12 -41 12 -73 0 -25 -9 -105 -28 -110 -27 -3 1 -18 -5 -35 -14
-16 -8 -31 -13 -33 -11 -8 7 9 25 25 25 13 0 13 3 3 15 -9 10 -9 15 -1 15 6 0
11 -4 11 -10 0 -5 7 -10 15 -10 10 0 12 6 8 18 -7 16 -6 16 11 -1 10 -9 23
-14 29 -10 7 4 17 8 22 9 29 5 150 46 161 55 35 29 107 34 112 8z m10 -51 c3
-16 -71 -44 -88 -33 -6 3 -16 3 -22 -2 -7 -4 -21 -9 -30 -10 -10 -2 -70 -20
-133 -41 -88 -30 -115 -35 -119 -25 -3 7 -1 13 4 13 5 0 7 8 4 18 -5 13 -4 14
4 3 8 -11 16 -11 46 -1 19 6 48 13 63 15 16 2 47 11 71 19 23 8 42 13 42 9 0
-3 7 0 15 7 8 7 15 9 15 5 0 -4 7 -1 16 6 19 16 83 38 99 35 6 -2 11 -9 13
-18z m20 -65 c2 -14 -3 -23 -15 -27 -192 -60 -368 -104 -375 -94 -4 7 -3 17 2
24 6 6 8 13 5 15 -2 3 9 4 25 3 15 -1 40 4 54 11 14 8 26 11 26 7 0 -3 5 -1
12 6 7 7 20 12 29 12 10 0 28 4 41 9 13 5 26 9 31 10 4 0 22 9 40 18 70 39
120 41 125 6z m-9 -49 c-7 -9 -25 -20 -39 -26 -29 -11 -281 -83 -322 -92 -34
-8 -38 10 -5 24 46 20 310 90 318 84 5 -3 9 -1 9 5 0 5 10 12 23 14 12 2 24 5
26 6 2 0 -3 -6 -10 -15z"/>
<path d="M3875 4994 c-113 -33 -195 -61 -202 -71 -24 -31 -13 -87 75 -393 85
-299 88 -305 112 -302 14 1 106 25 206 53 163 46 182 53 197 79 17 28 15 35
-75 359 -72 261 -95 331 -107 330 -9 -1 -101 -26 -206 -55z m215 17 c0 -23
-58 -46 -98 -38 -15 3 -65 -6 -112 -20 -164 -48 -179 -51 -184 -37 -3 8 22 19
77 34 45 12 127 35 182 50 122 35 135 36 135 11z m20 -65 c0 -19 -7 -25 -37
-32 -21 -4 -53 -7 -70 -5 -50 4 -103 -16 -97 -37 5 -15 5 -16 -5 -1 -10 15
-18 14 -93 -11 -46 -16 -87 -26 -92 -22 -12 7 23 32 54 38 20 4 96 24 145 39
6 1 12 3 15 4 3 0 41 14 85 30 44 16 83 27 88 24 4 -2 7 -15 7 -27z m12 -46
c0 -5 1 -15 2 -21 1 -16 -85 -41 -99 -29 -7 6 -62 -7 -150 -35 -77 -24 -141
-42 -143 -40 -13 13 53 42 82 36 4 -1 19 5 32 14 13 8 24 13 24 9 0 -4 6 -2
13 4 7 6 24 13 37 15 44 9 85 20 95 26 13 8 77 29 93 30 6 1 13 -3 14 -9z
m-403 -112 c16 -62 32 -124 35 -138 12 -67 20 -95 26 -100 14 -11 79 -274 71
-288 -9 -16 -29 43 -82 242 -17 61 -31 116 -33 121 -6 24 -48 163 -56 191 -6
17 -10 42 -10 57 0 56 19 23 49 -85z m429 17 c-12 -13 -220 -67 -268 -71 -73
-5 -111 -21 -102 -42 5 -15 3 -14 -12 1 -17 16 -17 20 -4 33 8 8 24 16 36 19
43 8 212 65 227 76 6 4 33 14 60 22 50 14 50 14 59 -10 4 -13 6 -26 4 -28z
m12 -24 c0 -5 2 -16 5 -23 7 -18 -63 -42 -80 -28 -10 8 -180 -35 -240 -61 -58
-25 -77 -29 -73 -17 3 7 15 15 29 16 13 2 28 8 34 13 5 5 16 9 24 9 8 0 22 6
30 13 14 12 44 23 206 71 61 18 65 18 65 7z m20 -80 c0 -20 -73 -44 -88 -29
-14 14 -51 -12 -44 -31 5 -13 2 -12 -12 2 -12 11 -22 14 -30 8 -6 -5 -31 -12
-56 -17 -51 -9 -50 -9 -70 -17 -28 -11 -94 -26 -98 -23 -2 3 21 12 51 22 39
12 54 21 52 33 -1 9 0 10 2 3 3 -10 13 -12 31 -7 15 3 34 7 42 9 8 2 28 8 43
15 16 6 31 11 33 11 3 0 24 9 47 19 73 33 97 34 97 2z m14 -47 c3 -9 6 -19 6
-24 0 -13 -68 -33 -91 -27 -19 5 -62 -5 -228 -54 -74 -22 -81 -23 -81 -9 0 6
7 10 16 10 8 0 25 5 37 12 12 7 27 13 32 14 6 2 37 8 70 15 72 16 71 15 55 34
-7 8 -9 15 -5 15 4 0 13 -8 20 -17 11 -14 15 -15 28 -4 9 7 21 10 27 6 5 -3
10 -1 10 5 0 12 55 39 81 40 9 0 20 -7 23 -16z m13 -77 c-7 -19 -82 -38 -96
-24 -7 7 -14 7 -23 0 -12 -10 -98 -34 -115 -32 -7 0 30 19 50 24 4 2 8 3 10 5
1 1 10 3 20 5 10 2 26 6 35 10 14 5 14 7 2 16 -13 9 -12 10 2 5 9 -3 36 1 60
8 45 14 65 7 55 -17z m21 -48 c2 -12 -9 -19 -40 -28 -24 -6 -50 -10 -58 -9
-37 3 -49 -2 -44 -19 4 -12 3 -14 -3 -6 -8 12 -41 12 -73 0 -25 -9 -105 -28
-110 -27 -3 1 -18 -5 -35 -14 -16 -8 -31 -13 -33 -11 -8 7 9 25 25 25 13 0 13
3 3 15 -9 10 -9 15 -1 15 6 0 11 -4 11 -10 0 -5 7 -10 15 -10 10 0 12 6 8 18
-6 16 -6 16 11 -1 14 -14 21 -15 32 -6 8 6 14 8 14 4 0 -4 7 -2 15 5 8 7 15
10 15 7 0 -7 121 32 136 44 35 29 107 34 112 8z m-316 -14 c16 4 29 2 34 -6 5
-8 2 -11 -8 -6 -9 3 -19 2 -24 -3 -5 -5 -24 -12 -43 -15 -19 -3 -38 -8 -43
-11 -4 -3 -8 -1 -8 5 0 5 13 12 29 16 22 5 28 11 24 23 -4 13 -2 14 5 4 5 -8
18 -11 34 -7z m328 -33 c0 -13 -12 -22 -40 -31 -22 -7 -45 -9 -50 -6 -6 3 -16
3 -22 -2 -14 -8 -19 -10 -43 -12 -9 -1 -12 -7 -9 -18 5 -14 4 -15 -4 -4 -15
21 -123 -13 -116 -37 5 -14 4 -15 -5 -2 -9 13 -15 13 -55 -2 -38 -14 -45 -14
-50 -2 -3 8 -1 14 4 14 5 0 7 8 4 18 -5 13 -4 14 4 3 6 -8 17 -11 32 -6 19 6
33 10 60 14 3 1 -2 5 -10 11 -8 5 -11 12 -7 16 4 4 13 0 20 -10 11 -16 16 -15
70 3 31 11 57 17 57 14 0 -3 7 0 15 7 8 7 15 9 15 5 0 -4 7 -1 16 6 16 14 76
36 102 38 6 1 12 -7 12 -17z m20 -79 c0 -7 -2 -13 -4 -13 -2 0 -50 -14 -107
-31 -223 -66 -277 -78 -283 -63 -3 7 0 16 6 20 7 4 6 9 -3 14 -7 5 3 7 23 5
20 -2 48 3 62 10 14 8 26 11 26 7 0 -3 5 -1 12 6 7 7 20 12 29 12 10 0 28 4
41 9 13 5 26 9 31 10 4 0 22 8 40 18 61 33 101 42 115 25 6 -9 12 -22 12 -29z
m-15 -43 c-21 -20 -371 -127 -382 -116 -15 14 23 29 198 80 216 63 209 61 184
36z"/>
<path d="M2037 5012 c-3 -4 -8 -109 -12 -235 l-8 -227 41 0 c22 0 43 3 45 8 3
4 8 109 12 235 l7 227 -40 0 c-23 0 -43 -3 -45 -8z m68 -184 c-3 -101 -8 -202
-11 -225 -5 -40 -7 -43 -35 -43 l-30 0 6 213 c4 116 8 218 10 225 3 6 18 12
36 12 l31 0 -7 -182z"/>
<path d="M5167 5012 c-3 -4 -8 -109 -12 -235 l-8 -227 41 0 c22 0 43 3 45 8 3
4 8 109 12 235 l7 227 -41 0 c-22 0 -42 -3 -44 -8z m68 -184 c-3 -101 -8 -202
-11 -225 -5 -40 -7 -43 -35 -43 l-30 0 6 213 c4 116 8 218 10 225 3 6 18 12
35 12 l31 0 -6 -182z"/>
<path d="M1875 4828 c-3 -68 -5 -159 -3 -203 l3 -80 41 -3 41 -3 6 83 c4 46 7
135 7 199 l0 117 -31 6 c-58 11 -57 15 -64 -116z m82 -20 c-4 -66 -7 -150 -7
-185 l0 -63 -36 0 -37 0 7 77 c3 42 6 125 6 185 l0 108 37 0 36 0 -6 -122z"/>
<path d="M5005 4828 c-3 -68 -5 -159 -3 -203 l3 -80 41 -3 41 -3 6 92 c4 51 7
140 7 199 l0 108 -31 6 c-58 11 -57 15 -64 -116z m80 -80 c-4 -101 -8 -184 -9
-185 0 0 -14 -3 -31 -5 l-30 -3 0 58 c1 31 2 116 3 187 l2 130 36 0 36 0 -7
-182z"/>
<path d="M2386 4853 c-3 -21 -6 -161 -6 -310 0 -266 0 -273 20 -273 19 0 20 7
20 258 0 255 -6 362 -20 362 -4 0 -10 -17 -14 -37z m24 -49 c0 -8 -4 -14 -10
-14 -5 0 -10 9 -10 21 0 11 5 17 10 14 6 -3 10 -13 10 -21z m0 -279 c0 -157
-4 -245 -10 -245 -6 0 -10 88 -10 245 0 157 4 245 10 245 6 0 10 -88 10 -245z"/>
<path d="M5514 4828 c-5 -35 -8 -174 -6 -310 3 -239 3 -248 22 -248 19 0 20 8
20 264 0 260 -5 356 -20 356 -4 0 -12 -28 -16 -62z m26 -24 c0 -8 -4 -14 -10
-14 -5 0 -10 9 -10 21 0 11 5 17 10 14 6 -3 10 -13 10 -21z m0 -279 c0 -157
-4 -245 -10 -245 -6 0 -10 88 -10 245 0 157 4 245 10 245 6 0 10 -88 10 -245z"/>
<path d="M5 4845 c6 -2 29 -9 52 -15 44 -11 73 -47 73 -87 -1 -12 -5 -7 -14
12 -7 17 -20 36 -29 43 -19 17 -87 33 -87 22 0 -4 15 -11 34 -14 36 -7 60 -28
70 -63 7 -22 5 -23 -48 -23 -31 0 -56 -4 -56 -10 0 -5 63 -9 156 -9 87 -1 158
-2 160 -4 2 -1 0 -68 -3 -149 l-6 -146 -51 -6 c-28 -3 -91 -6 -139 -6 -81 0
-89 2 -94 20 -9 34 -18 22 -18 -25 0 -25 3 -45 7 -45 5 0 8 9 8 20 0 19 7 20
145 20 l146 0 -3 -77 -3 -78 -155 -5 -155 -6 161 -2 162 -2 7 244 c4 134 4
249 1 255 -5 7 -42 11 -97 11 -89 0 -89 0 -89 25 0 62 -51 106 -119 104 -14 0
-22 -2 -16 -4z"/>
<path d="M1724 4837 c-2 -7 -3 -76 -2 -152 l3 -140 43 -3 42 -3 0 155 0 156
-40 0 c-24 0 -43 -5 -46 -13z m76 -137 l0 -140 -30 0 -30 0 0 140 0 140 30 0
30 0 0 -140z"/>
<path d="M3040 4839 c-42 -17 -80 -60 -80 -91 l0 -28 -105 0 c-104 0 -106 0
-115 -26 -6 -14 -10 -129 -10 -255 l0 -229 359 0 358 0 7 245 c4 134 5 249 1
255 -3 6 -44 10 -96 10 -88 0 -89 0 -89 25 0 38 -21 75 -51 91 -32 16 -141 18
-179 3z m152 -10 c26 -7 43 -19 53 -39 22 -42 18 -61 -4 -24 -25 40 -34 46
-101 60 -47 11 -50 12 -20 13 19 1 52 -4 72 -10z m-157 -16 c-39 -20 -35 -16
-50 -60 -11 -28 -14 -32 -15 -15 0 13 5 32 10 42 10 20 56 49 75 49 6 0 -3 -7
-20 -16z m174 -28 c10 -11 22 -30 26 -42 6 -23 6 -23 -114 -23 -119 0 -121 0
-121 23 0 50 36 68 123 64 51 -2 72 -7 86 -22z m233 -232 c-2 -82 -5 -149 -6
-150 -2 -2 -50 -6 -108 -9 -116 -8 -178 0 -178 21 0 8 -16 16 -41 20 -40 7
-51 2 -62 -28 -2 -7 -296 -13 -301 -5 -2 2 -1 69 2 151 l5 147 346 0 347 0 -4
-147z m-304 -165 c-3 -28 -7 -32 -35 -35 -32 -4 -33 -3 -33 31 0 35 1 36 36
36 34 0 35 -1 32 -32z m-83 -28 c5 -16 15 -20 51 -20 37 0 44 3 44 20 0 19 7
20 145 20 l146 0 -3 -77 -3 -78 -345 0 -345 0 -3 78 -3 77 155 0 c146 0 155
-1 161 -20z"/>
<path d="M4854 4837 c-2 -7 -3 -76 -2 -152 l3 -140 43 -3 42 -3 0 155 0 156
-40 0 c-24 0 -43 -5 -46 -13z m76 -137 l0 -140 -30 0 -30 0 0 140 0 140 30 0
30 0 0 -140z"/>
<path d="M6170 4839 c-42 -17 -80 -60 -80 -91 l0 -28 -105 0 c-104 0 -106 0
-115 -26 -6 -14 -10 -129 -10 -255 l0 -229 203 2 202 2 -195 6 -195 5 -3 78
-3 77 154 0 c146 0 155 -1 160 -20 4 -15 14 -20 41 -20 20 0 36 4 36 10 0 5
-13 7 -30 4 -29 -6 -30 -5 -30 29 0 33 3 36 33 39 l32 4 -29 8 c-25 8 -32 5
-48 -14 -19 -23 -24 -24 -164 -23 -79 0 -146 2 -148 4 -2 2 -2 70 1 152 l6
147 188 0 c119 0 189 4 189 10 0 6 -28 10 -65 10 -61 0 -65 1 -65 23 0 42 35
67 94 67 42 0 49 19 9 21 l-28 1 30 8 30 8 -35 0 c-19 0 -46 -4 -60 -9z m-5
-26 c-39 -20 -35 -16 -50 -60 -11 -28 -14 -32 -15 -15 0 13 5 32 10 42 10 20
56 49 75 49 6 0 -3 -7 -20 -16z"/>
<path d="M1587 4743 c-4 -3 -7 -48 -7 -99 0 -100 2 -104 61 -104 l29 0 0 105
0 105 -38 0 c-21 0 -42 -3 -45 -7z m73 -98 l0 -95 -30 0 -30 0 0 95 0 95 30 0
30 0 0 -95z"/>
<path d="M4714 4737 c-3 -8 -4 -54 -2 -103 l3 -89 43 -3 42 -3 0 105 0 106
-40 0 c-25 0 -43 -5 -46 -13z m74 -94 l3 -93 -30 0 -30 0 -3 91 c-2 50 -1 93
2 95 2 3 16 4 30 2 25 -3 25 -5 28 -95z"/>
<path d="M1462 4613 l3 -68 40 0 40 0 0 65 0 65 -43 3 -43 3 3 -68z m68 -4 c0
-60 0 -60 -27 -57 -25 3 -28 7 -31 47 -4 57 2 71 33 71 24 0 25 -2 25 -61z"/>
<path d="M4592 4613 l3 -68 40 0 40 0 -1 65 0 65 -43 3 -42 3 3 -68z m68 -4
c0 -60 0 -60 -27 -57 -25 3 -28 7 -31 47 -4 57 2 71 33 71 24 0 25 -2 25 -61z"/>
<path d="M1377 4346 c-4 -10 -7 -73 -7 -142 0 -120 1 -124 23 -128 34 -7 398
-14 435 -9 l32 5 0 134 c0 73 -4 135 -9 138 -5 3 -112 9 -238 12 -212 7 -230
6 -236 -10z m346 -3 l127 -6 0 -129 0 -128 -232 2 -233 3 -3 80 c-2 44 0 104
3 133 l6 52 102 0 c56 0 159 -3 230 -7z"/>
<path d="M1415 4277 c-12 -48 -3 -62 40 -62 37 0 40 2 46 35 4 19 7 36 5 37
-1 1 -20 5 -43 9 -39 6 -42 5 -48 -19z m55 -22 c0 -14 -4 -25 -10 -25 -11 0
-14 33 -3 43 11 11 13 8 13 -18z"/>
<path d="M1580 4274 c-13 -33 -13 -44 1 -44 5 0 7 5 4 10 -3 6 -1 10 4 10 6 0
11 -5 11 -12 0 -8 3 -8 9 -2 11 11 3 64 -10 64 -5 0 -14 -12 -19 -26z"/>
<path d="M1641 4269 c-9 -27 -8 -30 7 -27 10 2 18 14 20 31 4 37 -13 34 -27
-4z"/>
<path d="M1686 4274 c-13 -33 -6 -49 9 -20 18 33 18 36 6 36 -5 0 -12 -7 -15
-16z"/>
<path d="M1720 4275 c-6 -8 -10 -22 -8 -32 3 -13 7 -9 15 15 13 35 12 39 -7
17z"/>
<path d="M1751 4257 c0 -18 3 -26 6 -19 2 6 10 9 16 5 6 -4 8 0 4 9 -3 9 -1
20 4 25 5 5 1 9 -11 10 -16 1 -20 -4 -19 -30z"/>
<path d="M4507 4346 c-4 -10 -7 -73 -7 -142 0 -120 1 -124 23 -128 33 -7 397
-14 435 -9 l32 5 0 134 c0 73 -4 135 -9 139 -5 3 -113 8 -239 12 -211 6 -229
5 -235 -11z m336 -3 l137 -6 0 -129 0 -128 -232 2 -233 3 -3 100 c-2 55 0 115
3 133 l6 32 93 0 c51 0 154 -3 229 -7z"/>
<path d="M4544 4286 c-3 -8 -4 -27 -2 -43 3 -25 7 -28 44 -31 l42 -3 4 40 c3
37 1 40 -26 45 -44 9 -56 7 -62 -8z m56 -31 c0 -14 -4 -25 -10 -25 -11 0 -14
33 -3 43 11 11 13 8 13 -18z"/>
<path d="M4714 4288 c-4 -7 -3 -8 4 -4 7 4 12 3 12 -2 0 -6 -7 -12 -15 -16
-17 -6 -21 -36 -4 -36 5 0 8 4 4 9 -3 5 -1 12 5 16 5 3 10 -2 10 -11 0 -11 3
-14 9 -8 11 10 3 64 -10 64 -4 0 -11 -5 -15 -12z"/>
<path d="M4772 4271 c-9 -25 -8 -29 6 -27 10 2 18 14 20 29 4 36 -13 34 -26
-2z"/>
<path d="M4816 4274 c-13 -33 -6 -49 9 -20 18 33 18 36 6 36 -5 0 -12 -7 -15
-16z"/>
<path d="M4852 4278 c-14 -14 -16 -42 -3 -34 7 5 23 46 17 46 -1 0 -7 -5 -14
-12z"/>
<path d="M4881 4257 c0 -18 3 -26 6 -19 2 6 10 9 16 5 6 -4 8 0 4 9 -3 9 -1
20 4 25 5 5 1 9 -11 10 -16 1 -20 -4 -19 -30z"/>
<path d="M2075 3871 c-4 -93 -4 -174 -1 -180 5 -8 113 -11 346 -11 299 0 339
2 344 16 3 9 6 90 6 180 l0 164 -344 0 -344 0 -7 -169z m683 -8 l-3 -168 -329
-3 c-182 -1 -333 1 -337 5 -4 5 -5 81 -2 171 l6 162 334 0 333 0 -2 -167z"/>
<path d="M2403 3949 c-33 -12 -55 -53 -55 -104 -1 -56 22 -85 67 -85 41 0 67
35 73 102 7 69 -31 107 -85 87z m61 -25 c37 -36 2 -154 -46 -154 -36 0 -58 28
-58 75 0 75 62 122 104 79z"/>
<path d="M2390 3898 c-34 -57 -18 -113 31 -106 18 2 28 13 38 45 28 80 -27
129 -69 61z m60 7 c26 -32 -22 -128 -50 -99 -19 21 -19 51 0 82 22 36 32 39
50 17z"/>
<path d="M2557 3940 c-68 -53 -51 -180 24 -180 71 0 110 134 53 179 -33 26
-45 26 -77 1z m15 -20 c-45 -42 -40 -122 9 -128 21 -2 29 3 43 31 22 48 20 83
-6 101 -12 9 -18 16 -14 16 5 0 18 -7 28 -17 29 -26 21 -99 -17 -136 -58 -58
-117 59 -64 127 11 14 25 26 32 26 6 0 1 -9 -11 -20z m49 -16 c11 -13 10 -23
-2 -57 -17 -50 -44 -60 -61 -22 -9 21 -8 32 5 60 18 38 37 44 58 19z"/>
<path d="M2235 3898 c-33 -37 -42 -53 -33 -59 7 -5 19 -2 28 5 40 35 43 32 36
-33 -7 -57 -6 -62 11 -59 22 4 30 39 32 131 1 84 -10 86 -74 15z m60 -54 c-4
-41 -10 -74 -14 -74 -4 0 -4 27 -1 61 3 33 3 62 -1 64 -3 3 -17 -7 -29 -20
-13 -14 -28 -25 -34 -25 -6 0 10 20 34 45 25 25 46 41 48 35 3 -7 1 -45 -3
-86z"/>
<path d="M5205 3888 c-4 -84 -6 -164 -4 -178 l4 -25 345 0 345 0 3 178 2 177
-344 0 -344 0 -7 -152z m685 -12 c0 -85 -3 -161 -6 -170 -5 -14 -44 -16 -334
-16 -181 0 -331 3 -333 8 -2 4 -2 80 1 170 l5 162 333 0 334 0 0 -154z"/>
<path d="M5533 3949 c-33 -12 -56 -55 -56 -105 0 -55 23 -84 69 -84 26 0 36 7
53 34 50 81 7 182 -66 155z m62 -26 c35 -35 -1 -153 -47 -153 -36 0 -58 29
-58 75 0 76 62 122 105 78z"/>
<path d="M5526 3911 c-25 -27 -32 -93 -13 -110 30 -24 61 -9 76 36 25 72 -19
123 -63 74z m64 -33 c0 -24 -31 -78 -45 -78 -26 0 -37 46 -20 80 8 15 20 30
27 33 13 5 38 -19 38 -35z"/>
<path d="M5687 3940 c-67 -53 -51 -180 22 -180 49 0 81 44 81 111 0 39 -5 51
-26 68 -33 26 -45 26 -77 1z m15 -20 c-45 -42 -40 -122 9 -128 22 -3 29 3 44
34 9 20 15 49 13 65 -3 15 -1 26 4 23 21 -13 4 -97 -27 -127 -58 -58 -117 59
-64 127 11 14 25 26 32 26 6 0 1 -9 -11 -20z m49 -16 c10 -13 10 -23 -3 -57
-17 -49 -43 -59 -59 -24 -8 18 -7 32 5 60 16 40 36 47 57 21z"/>
<path d="M5365 3898 c-33 -37 -42 -53 -33 -59 7 -5 19 -2 28 5 40 35 43 32 36
-33 -7 -57 -6 -62 11 -59 22 4 30 39 32 131 1 84 -10 86 -74 15z m60 -54 c-4
-41 -10 -74 -14 -74 -4 0 -4 27 -1 61 3 33 3 62 -1 64 -3 3 -17 -7 -29 -20
-13 -14 -28 -25 -34 -25 -6 0 10 20 34 45 25 25 46 41 48 35 3 -7 1 -45 -3
-86z"/>
<path d="M531 3992 c-4 -9 -12 -50 -15 -90 -4 -40 -16 -119 -27 -175 l-20
-102 30 -26 c25 -24 41 -28 125 -34 52 -4 106 -5 120 -1 30 7 33 24 42 241 7
186 6 189 -84 197 -40 4 -57 1 -70 -11 -15 -15 -15 -15 -10 0 5 12 0 17 -18
17 -13 0 -21 -4 -18 -9 3 -5 -6 -5 -20 1 -21 7 -27 6 -35 -8z m34 -42 c7 0 16
6 18 13 4 9 8 8 17 -3 9 -12 13 -12 17 -2 4 10 8 10 21 0 12 -10 16 -10 19 0
5 14 24 17 21 3 -2 -5 2 -9 7 -9 6 0 9 4 8 9 -2 5 2 9 7 9 6 0 10 -7 10 -16 0
-9 6 -14 13 -11 6 2 11 10 10 16 -2 6 4 11 12 11 9 0 12 -6 9 -15 -4 -9 0 -15
10 -15 14 0 15 -16 10 -127 -2 -71 -7 -152 -10 -181 l-6 -53 -111 3 -111 3 1
190 c2 202 3 220 10 193 2 -10 11 -18 18 -18z m-42 -223 c-5 -115 -8 -127 -21
-113 -14 14 -14 27 3 130 10 64 20 114 21 113 2 -1 0 -60 -3 -130z"/>
<path d="M643 3873 c15 -2 37 -2 50 0 12 2 0 4 -28 4 -27 0 -38 -2 -22 -4z"/>
<path d="M648 3823 c18 -2 45 -2 60 0 15 2 0 4 -33 4 -33 0 -45 -2 -27 -4z"/>
<path d="M643 3773 c15 -2 39 -2 55 0 15 2 2 4 -28 4 -30 0 -43 -2 -27 -4z"/>
<path d="M3714 4001 c3 -4 -8 -5 -24 -3 -33 5 -35 1 -45 -103 -3 -33 -15 -107
-27 -165 l-20 -104 30 -27 c26 -24 41 -27 130 -34 55 -4 109 -4 120 -1 25 8
29 33 38 241 8 196 10 191 -119 198 -48 3 -85 2 -83 -2z m-19 -51 c7 0 16 6
18 13 4 9 8 8 16 -3 10 -13 12 -13 21 0 6 10 10 11 10 3 0 -7 7 -13 15 -13 8
0 15 6 15 13 0 6 5 4 11 -6 6 -9 15 -15 20 -12 5 4 7 11 4 16 -4 5 -1 9 4 9 6
0 11 -7 11 -16 0 -9 6 -14 13 -11 6 2 11 10 10 16 -2 6 2 11 7 11 6 0 10 -7
10 -15 0 -8 7 -15 15 -15 12 0 14 -19 9 -127 -2 -71 -7 -152 -10 -181 l-6 -53
-111 3 -112 3 2 185 c2 208 3 223 10 198 2 -10 11 -18 18 -18z m-42 -223 c-5
-115 -8 -127 -21 -113 -14 14 -14 27 3 130 10 64 20 114 21 113 2 -1 0 -60 -3
-130z"/>
<path d="M3750 3876 c0 -2 18 -6 40 -8 22 -2 40 0 40 4 0 5 -18 8 -40 8 -22 0
-40 -2 -40 -4z"/>
<path d="M3778 3823 c18 -2 45 -2 60 0 15 2 0 4 -33 4 -33 0 -45 -2 -27 -4z"/>
<path d="M3773 3773 c15 -2 39 -2 55 0 15 2 2 4 -28 4 -30 0 -43 -2 -27 -4z"/>
<path d="M1054 3970 c-32 -13 -64 -59 -64 -92 0 -41 48 -88 90 -88 65 0 111
82 79 142 -8 15 -68 50 -81 47 -2 0 -13 -4 -24 -9z m85 -36 c60 -76 -36 -175
-110 -115 -33 27 -33 95 0 122 35 28 85 25 110 -7z"/>
<path d="M1084 3908 c-10 -12 -13 -18 -5 -13 11 7 13 2 7 -26 -4 -19 -3 -29 3
-24 8 9 23 85 17 85 -2 0 -11 -10 -22 -22z"/>
<path d="M4193 3972 c-32 -5 -73 -58 -73 -94 0 -41 48 -88 90 -88 45 0 90 47
90 93 0 60 -46 98 -107 89z m76 -38 c24 -30 26 -55 9 -87 -36 -68 -127 -60
-143 12 -7 31 15 85 37 94 36 15 77 6 97 -19z"/>
<path d="M4214 3908 c-10 -12 -13 -18 -5 -13 10 6 12 1 6 -25 -5 -21 -4 -30 3
-26 7 4 23 86 16 86 0 0 -9 -10 -20 -22z"/>
<path d="M27 3960 c18 -6 30 -16 28 -23 -29 -89 -55 -191 -52 -200 2 -6 16 34
31 89 15 55 31 105 35 112 5 9 19 6 52 -11 24 -13 44 -28 44 -34 0 -6 -37 -50
-82 -97 -46 -48 -83 -91 -83 -95 0 -5 43 -46 95 -91 77 -66 93 -85 84 -96 -21
-26 -82 -58 -133 -70 -32 -8 -41 -13 -25 -13 110 -4 228 112 245 242 18 132
-94 276 -228 292 -40 5 -41 4 -11 -5z m197 -140 c39 -72 42 -154 7 -228 -14
-29 -28 -52 -32 -52 -6 0 -138 109 -183 150 -10 10 154 191 169 187 6 -2 23
-27 39 -57z"/>
<path d="M3060 3961 c-48 -15 -85 -39 -121 -78 -58 -60 -73 -98 -73 -183 -1
-66 3 -82 30 -130 130 -231 464 -162 500 103 14 98 -55 220 -149 269 -45 22
-145 33 -187 19z m116 -9 c9 -5 4 -34 -16 -102 -15 -52 -31 -108 -34 -123 l-7
-28 -122 3 -122 3 3 30 c9 98 83 185 180 211 54 14 102 17 118 6z m103 -41
l25 -19 -80 -85 c-43 -46 -80 -83 -82 -82 -4 3 10 57 39 157 19 66 20 67 47
57 15 -5 38 -18 51 -28z m75 -91 c39 -72 42 -154 7 -228 -14 -29 -28 -52 -32
-52 -6 0 -138 109 -183 150 -10 10 154 192 169 187 5 -2 23 -28 39 -57z m-167
-179 c32 -27 76 -64 97 -83 l39 -34 -36 -28 c-111 -85 -261 -70 -350 35 -31
36 -67 117 -67 151 0 4 58 8 129 8 l130 0 58 -49z"/>
<path d="M6190 3961 c-46 -14 -85 -39 -121 -78 -58 -60 -73 -98 -73 -183 0
-64 4 -83 29 -129 16 -29 45 -66 64 -82 39 -31 111 -59 150 -58 17 0 8 5 -24
13 -71 18 -108 39 -149 88 -30 35 -66 116 -66 150 0 4 59 8 130 8 117 0 130 2
130 18 0 12 -2 14 -8 4 -7 -9 -39 -12 -128 -10 l-119 3 3 35 c10 95 98 189
198 210 30 6 54 13 54 16 0 6 -42 3 -70 -5z"/>
<path d="M1556 3794 c-54 -80 -96 -148 -93 -151 3 -3 49 61 102 142 53 80 95
148 93 151 -3 2 -48 -62 -102 -142z"/>
<path d="M4686 3794 c-54 -79 -96 -147 -93 -150 3 -3 49 60 102 141 53 80 95
148 93 150 -2 3 -48 -61 -102 -141z"/>
<path d="M1492 3858 c-19 -19 -14 -46 8 -53 27 -8 52 12 48 39 -3 24 -37 33
-56 14z m44 -9 c10 -17 -23 -46 -37 -32 -7 7 -9 19 -6 27 7 18 33 21 43 5z"/>
<path d="M4622 3858 c-19 -19 -14 -46 8 -53 27 -8 52 12 48 39 -3 24 -37 33
-56 14z m44 -9 c10 -17 -23 -46 -37 -32 -7 7 -9 19 -6 27 7 18 33 21 43 5z"/>
<path d="M1587 3733 c-13 -12 -7 -51 8 -56 21 -9 58 25 50 46 -7 17 -45 24
-58 10z m43 -23 c0 -13 -7 -20 -20 -20 -19 0 -27 20 -13 33 13 14 33 6 33 -13z"/>
<path d="M4717 3733 c-13 -12 -7 -51 8 -56 21 -9 58 25 50 46 -7 17 -45 24
-58 10z m43 -23 c0 -13 -7 -20 -20 -20 -19 0 -27 20 -13 33 13 14 33 6 33 -13z"/>
<path d="M880 3493 c-28 -32 -32 -41 -27 -77 15 -109 166 -118 193 -12 16 63
-32 126 -96 126 -31 0 -44 -7 -70 -37z m118 11 c69 -48 34 -164 -49 -164 -41
0 -58 10 -74 41 -23 43 -18 77 14 110 33 33 74 38 109 13z"/>
<path d="M949 3481 c21 -6 22 -8 7 -20 -16 -13 -23 -37 -8 -27 4 2 14 1 22 -4
21 -13 -8 -43 -37 -37 -13 2 -23 0 -23 -4 0 -15 57 -10 71 7 10 13 10 20 0 36
-8 14 -9 23 -2 32 14 17 4 26 -28 25 l-26 -1 24 -7z"/>
<path d="M4010 3493 c-28 -32 -32 -41 -27 -77 7 -53 44 -86 95 -86 48 0 77 21
92 66 23 69 -21 134 -90 134 -31 0 -44 -7 -70 -37z m118 11 c33 -23 45 -60 32
-100 -26 -78 -121 -88 -158 -17 -20 37 -14 73 17 104 33 33 74 38 109 13z"/>
<path d="M4079 3481 c21 -6 22 -8 7 -20 -16 -13 -23 -37 -8 -27 4 2 14 1 22
-4 21 -13 -8 -43 -37 -37 -13 2 -23 0 -23 -4 0 -5 13 -9 30 -9 35 0 59 32 39
56 -8 10 -9 18 0 27 14 18 4 27 -28 26 l-26 -1 24 -7z"/>
<path d="M1238 3443 l-58 -4 0 -212 0 -212 -39 -140 c-22 -77 -37 -143 -33
-147 4 -3 188 -9 410 -13 372 -7 402 -6 402 9 0 9 -18 76 -40 147 l-40 130 0
220 0 219 -138 0 c-77 0 -199 2 -273 4 -74 2 -160 2 -191 -1z m592 -223 l0
-211 -107 5 c-60 2 -204 5 -320 5 l-213 1 0 205 0 205 320 0 320 0 0 -210z
m-2 -225 c3 -3 39 -120 69 -228 5 -17 -13 -17 -333 -16 -187 1 -362 4 -390 6
l-52 5 20 71 c10 40 23 81 28 92 5 11 12 35 15 53 l7 34 317 -7 c174 -4 317
-9 319 -10z m-48 -265 c77 -4 -23 -6 -260 -3 -212 3 -388 8 -392 12 -9 8 492
2 652 -9z"/>
<path d="M1210 3227 l0 -185 93 -7 c50 -3 187 -5 302 -3 l210 3 -4 180 c-2 99
-4 181 -5 182 0 1 -135 5 -298 9 l-298 7 0 -186z m336 163 l254 0 0 -177 0
-176 -97 6 c-54 4 -185 7 -290 7 l-193 0 0 168 c0 93 3 172 7 176 5 4 21 5 37
2 16 -3 143 -6 282 -6z"/>
<path d="M1206 2968 c-3 -7 -7 -24 -9 -38 -3 -14 -7 -34 -10 -46 -5 -20 0 -21
85 -28 50 -3 197 -6 326 -6 l234 0 -6 33 c-13 69 -15 80 -18 82 -2 2 -137 6
-301 9 -234 5 -298 3 -301 -6z m589 -19 c5 -7 -79 -8 -282 -3 -158 4 -290 8
-292 10 -2 2 124 4 282 4 190 0 288 -4 292 -11z m-120 -18 c130 -7 123 -8
-100 -8 -132 0 -269 3 -305 7 -88 10 213 10 405 1z m105 -31 c26 -6 9 -8 -65
-9 -160 -2 -505 12 -505 19 0 9 525 0 570 -10z m34 -31 c6 -5 -49 -9 -130 -9
-216 0 -484 12 -484 22 0 11 602 -2 614 -13z"/>
<path d="M4368 3443 l-58 -4 0 -212 0 -212 -39 -140 c-22 -77 -37 -143 -33
-147 4 -3 188 -9 410 -13 372 -7 402 -6 402 9 0 9 -18 76 -40 147 l-40 130 0
220 0 219 -147 0 c-82 0 -204 2 -273 4 -69 2 -151 2 -182 -1z m592 -223 l0
-211 -117 5 c-65 3 -209 5 -320 5 l-203 1 0 205 0 205 320 0 320 0 0 -210z
m-3 -224 c3 -3 73 -233 73 -240 0 -8 -638 -5 -716 3 l-61 6 23 80 c12 44 28
100 34 124 l11 43 317 -7 c174 -4 318 -8 319 -9z m-42 -266 c100 -7 83 -8
-100 -4 -121 2 -298 4 -393 4 -95 0 -171 3 -169 8 6 9 504 3 662 -8z"/>
<path d="M4340 3227 l0 -185 103 -7 c56 -3 192 -5 302 -3 l200 3 -4 180 c-2
99 -4 181 -5 181 0 1 -135 5 -298 9 l-298 7 0 -185z m336 163 l254 0 0 -177 0
-176 -107 6 c-58 4 -189 7 -290 7 l-183 0 0 168 c0 93 3 172 7 176 5 4 21 5
37 2 16 -3 143 -6 282 -6z"/>
<path d="M4336 2969 c-16 -45 -23 -100 -13 -106 6 -3 152 -9 324 -11 352 -5
323 -12 302 74 l-11 44 -118 0 c-64 0 -198 3 -298 7 -151 5 -182 4 -186 -8z
m589 -19 c4 -6 -35 -11 -107 -12 l-113 -2 120 -6 c94 -5 68 -6 -120 -7 -132 0
-269 3 -305 7 -51 5 -25 8 120 11 l185 3 -180 6 c-172 5 -167 6 107 8 183 1
289 -2 293 -8z m-15 -50 c26 -6 9 -8 -65 -9 -157 -2 -505 11 -505 19 0 9 526
0 570 -10z m34 -31 c12 -11 -145 -12 -417 -2 -109 3 -197 10 -197 15 0 11 602
-2 614 -13z"/>
<path d="M333 3425 c-70 -30 -90 -120 -39 -174 16 -17 41 -33 56 -36 40 -9 96
18 114 54 50 95 -35 197 -131 156z m111 -36 c30 -35 33 -67 11 -109 -18 -35
-43 -50 -85 -50 -44 0 -69 16 -85 53 -18 43 -9 82 27 112 44 37 98 34 132 -6z"/>
<path d="M373 3360 c-10 -27 -9 -30 5 -28 12 2 17 -4 17 -22 0 -20 -6 -26 -30
-31 -25 -5 -27 -7 -12 -14 12 -5 24 -1 37 10 24 21 26 60 5 69 -18 7 -9 33 13
39 13 4 12 5 -3 6 -14 1 -24 -8 -32 -29z"/>
<path d="M3463 3425 c-70 -30 -90 -120 -39 -174 16 -17 41 -33 56 -36 40 -9
96 18 114 54 50 95 -35 197 -131 156z m111 -36 c30 -35 33 -67 11 -109 -18
-35 -43 -50 -85 -50 -45 0 -70 16 -86 57 -17 41 -11 68 24 106 20 21 35 27 68
27 35 0 47 -5 68 -31z"/>
<path d="M3497 3346 c-3 -8 1 -13 11 -12 12 1 17 -7 17 -24 0 -20 -6 -26 -30
-30 -21 -4 -26 -8 -17 -14 19 -12 62 20 62 47 0 27 -35 54 -43 33z"/>
<path d="M2433 3380 c-24 -11 -58 -22 -78 -26 -39 -7 -43 -15 -18 -35 14 -12
16 -12 11 2 -5 12 6 20 50 34 32 10 62 19 68 22 6 2 0 -21 -15 -51 -16 -35
-31 -53 -39 -50 -8 2 -12 -1 -10 -8 7 -19 38 -22 38 -5 0 8 14 41 30 72 17 31
30 59 30 61 0 8 -26 2 -67 -16z"/>
<path d="M5580 3385 c-14 -8 -49 -20 -77 -26 -57 -13 -62 -19 -36 -40 14 -12
16 -12 11 2 -5 12 6 20 50 34 32 10 62 19 68 22 6 2 0 -21 -15 -51 -16 -35
-31 -53 -39 -50 -8 2 -12 -1 -10 -8 7 -19 38 -22 38 -5 0 8 14 41 30 72 17 31
30 59 30 61 0 8 -26 3 -50 -11z"/>
<path d="M2223 3163 c-100 -92 -180 -169 -178 -171 2 -3 77 62 166 144 89 82
173 159 188 171 14 12 22 22 16 22 -5 0 -92 -75 -192 -166z"/>
<path d="M5353 3163 c-100 -92 -180 -169 -178 -171 2 -3 77 62 166 144 89 82
173 159 188 171 14 12 22 22 16 22 -5 0 -92 -75 -192 -166z"/>
<path d="M659 3178 c-8 -101 -12 -112 -39 -96 -28 18 -50 -6 -50 -55 l0 -40
-38 41 c-22 23 -43 42 -48 42 -39 0 -44 -77 -13 -195 25 -96 17 -110 -40 -71
-23 16 -49 26 -63 24 -19 -2 -23 -9 -23 -40 0 -20 -3 -34 -6 -30 -14 15 -131
231 -133 245 -3 22 -33 63 -40 56 -7 -6 13 -59 25 -69 4 -3 52 -88 109 -190
56 -102 105 -189 110 -193 4 -5 99 43 211 106 112 63 206 111 209 107 3 -4 16
7 30 24 20 24 21 29 7 23 -10 -4 -27 -7 -38 -7 -11 0 -16 -5 -14 -13 3 -7 -28
-30 -82 -59 -49 -26 -135 -74 -193 -107 -58 -34 -110 -61 -117 -61 -15 0 -59
94 -68 147 -9 56 11 65 63 29 43 -29 70 -33 78 -12 3 8 -4 52 -15 97 -23 89
-26 145 -11 169 7 12 16 7 48 -28 21 -23 44 -42 50 -42 6 0 12 19 14 43 3 41
4 42 35 40 30 -3 33 0 43 37 6 22 10 69 8 103 -3 61 -3 61 -9 -25z"/>
<path d="M3789 3178 c-8 -101 -12 -112 -39 -96 -28 18 -50 -6 -50 -56 l0 -41
-39 43 c-43 46 -52 50 -72 26 -18 -21 -14 -74 11 -175 25 -100 17 -114 -39
-75 -23 16 -49 26 -63 24 -19 -2 -23 -9 -23 -40 0 -20 -3 -34 -7 -30 -12 13
-130 231 -132 244 -2 19 -35 63 -41 56 -6 -6 15 -59 26 -68 4 -3 52 -88 109
-190 56 -102 105 -189 110 -193 4 -5 99 43 211 106 112 63 206 111 209 107 3
-4 16 7 30 24 20 24 21 29 7 23 -10 -4 -27 -7 -38 -7 -10 0 -17 -5 -14 -12 4
-12 -368 -228 -393 -228 -15 0 -60 99 -68 149 -9 54 12 63 64 27 43 -29 70
-33 78 -12 3 8 -4 52 -15 97 -39 152 -20 211 43 136 40 -48 54 -47 58 6 3 41
4 42 35 40 30 -3 33 0 43 37 6 22 10 69 8 103 -3 61 -3 61 -9 -25z"/>
<path d="M2620 2946 l0 -263 83 -6 c45 -4 142 -7 215 -7 l132 0 0 264 0 263
-67 6 c-38 4 -134 7 -215 7 l-148 0 0 -264z m269 247 l151 -6 -2 -251 -3 -251
-108 -1 c-60 -1 -151 1 -203 4 l-94 5 0 253 0 254 53 0 c30 0 122 -3 206 -7z"/>
<path d="M2700 3080 l0 -60 58 -1 c80 0 200 -13 208 -22 4 -4 4 -10 0 -14 -4
-4 -11 -1 -16 7 -8 13 -10 12 -10 -2 0 -11 8 -18 19 -18 23 0 35 15 25 32 -4
6 -6 36 -5 66 2 37 -2 58 -11 63 -7 5 -70 9 -140 9 l-128 0 0 -60z m224 44
l46 -7 0 -43 0 -44 -130 0 -130 0 0 43 c0 24 3 47 7 50 8 9 146 9 207 1z"/>
<path d="M2690 2995 c0 -8 5 -15 11 -15 5 0 7 5 4 10 -3 6 0 10 9 10 8 0 17
-6 19 -12 3 -8 6 -6 6 5 1 12 -7 17 -24 17 -16 0 -25 -6 -25 -15z"/>
<path d="M2784 2988 c2 -7 11 -13 21 -13 10 0 19 6 21 13 1 7 0 8 -3 2 -2 -5
-11 -10 -18 -10 -7 0 -16 5 -18 10 -3 6 -4 5 -3 -2z"/>
<path d="M2864 2988 c1 -7 12 -14 24 -16 16 -3 22 2 21 15 0 10 -3 13 -6 6 -6
-16 -29 -17 -36 -3 -3 6 -4 5 -3 -2z"/>
<path d="M2775 2950 c-4 -7 -3 -16 3 -22 14 -14 47 -6 47 12 0 18 -40 26 -50
10z"/>
<path d="M2873 2953 c-7 -2 -13 -11 -13 -19 0 -19 46 -18 54 1 3 8 1 15 -4 15
-6 0 -10 -4 -10 -10 0 -5 -7 -10 -16 -10 -14 0 -14 3 -4 15 13 16 13 16 -7 8z"/>
<path d="M2940 2939 c0 -15 5 -20 22 -17 34 5 37 38 4 38 -20 0 -26 -5 -26
-21z"/>
<path d="M2691 2937 c-1 -13 5 -18 21 -15 22 3 39 28 18 28 -6 0 -8 -4 -5 -10
3 -5 0 -10 -9 -10 -8 0 -17 6 -19 13 -3 7 -6 4 -6 -6z"/>
<path d="M2690 2879 c0 -15 5 -20 22 -17 34 5 37 38 4 38 -20 0 -26 -5 -26
-21z"/>
<path d="M2770 2885 c0 -8 5 -15 11 -15 5 0 7 5 4 10 -3 6 4 10 16 10 19 0 20
-2 8 -17 -12 -14 -12 -16 1 -11 8 2 16 12 18 21 3 13 -4 17 -27 17 -21 0 -31
-5 -31 -15z"/>
<path d="M2854 2889 c-3 -6 -2 -15 4 -21 15 -15 46 -5 50 15 3 12 -3 17 -22
17 -14 0 -28 -5 -32 -11z"/>
<path d="M2944 2889 c-3 -6 -1 -16 6 -22 10 -9 12 -8 7 6 -4 11 -1 17 9 17 8
0 12 -4 9 -10 -3 -5 -1 -10 4 -10 6 0 11 7 11 15 0 17 -35 20 -46 4z"/>
<path d="M2685 2830 c-7 -12 2 -30 15 -30 5 0 7 7 4 15 -4 10 0 15 11 15 9 0
13 -4 10 -10 -3 -5 -1 -10 4 -10 6 0 11 7 11 15 0 17 -45 21 -55 5z"/>
<path d="M2775 2830 c-4 -7 -3 -16 3 -22 13 -13 54 0 49 15 -5 16 -43 21 -52
7z"/>
<path d="M2860 2826 c0 -19 14 -28 34 -20 25 10 19 34 -9 34 -15 0 -25 -6 -25
-14z"/>
<path d="M2940 2826 c0 -16 19 -25 38 -19 22 8 13 33 -13 33 -15 0 -25 -6 -25
-14z"/>
<path d="M2777 2783 c-17 -16 -6 -34 20 -31 30 3 45 28 16 28 -15 0 -16 -2 -3
-10 12 -8 11 -10 -7 -10 -16 0 -21 4 -17 15 6 16 2 20 -9 8z"/>
<path d="M2855 2780 c-3 -5 -3 -14 0 -20 9 -15 42 -12 49 5 3 8 1 15 -4 15 -6
0 -10 -4 -10 -10 0 -5 -5 -10 -11 -10 -6 0 -9 7 -5 15 6 17 -9 21 -19 5z"/>
<path d="M2937 2783 c-15 -15 -6 -33 17 -33 23 0 41 22 29 34 -8 8 -38 8 -46
-1z"/>
<path d="M2690 2760 c0 -15 7 -20 25 -20 18 0 25 5 25 20 0 15 -7 20 -25 20
-18 0 -25 -5 -25 -20z m40 0 c0 -5 -7 -10 -15 -10 -8 0 -15 5 -15 10 0 6 7 10
15 10 8 0 15 -4 15 -10z"/>
<path d="M2691 2713 c0 -10 3 -13 6 -5 2 6 11 12 19 12 9 0 12 -4 9 -10 -3 -5
-1 -10 5 -10 21 0 4 25 -18 28 -16 3 -22 -2 -21 -15z"/>
<path d="M2767 2723 c-10 -10 -8 -23 4 -23 5 0 7 5 4 10 -3 6 3 10 15 10 12 0
18 -4 15 -10 -3 -5 -1 -10 4 -10 6 0 11 7 11 15 0 15 -40 21 -53 8z"/>
<path d="M2860 2716 c0 -11 9 -16 26 -16 31 0 28 23 -4 28 -15 2 -22 -2 -22
-12z"/>
<path d="M2935 2720 c-9 -15 3 -30 25 -30 18 0 34 23 23 34 -10 10 -41 7 -48
-4z"/>
<path d="M5750 2946 l0 -263 80 -6 c67 -5 84 -4 100 11 29 24 26 44 -7 40 -26
-3 -46 -28 -23 -28 6 0 8 5 5 10 -3 6 4 10 16 10 18 0 19 -2 9 -15 -9 -11 -33
-15 -91 -15 l-79 0 0 255 0 255 53 0 c30 0 122 -3 205 -7 l152 -6 0 -254 0
-254 -105 2 c-58 1 -109 -1 -112 -5 -4 -3 46 -6 110 -6 l117 0 0 264 0 263
-67 6 c-38 4 -134 7 -215 7 l-148 0 0 -264z"/>
<path d="M5830 3080 l0 -60 43 0 c23 0 79 -3 123 -6 73 -6 81 -9 77 -25 -4
-14 0 -19 15 -19 24 0 36 15 26 32 -4 6 -6 36 -5 66 2 37 -2 58 -11 63 -7 5
-70 9 -140 9 l-128 0 0 -60z m218 44 l52 -7 0 -43 0 -44 -130 0 -130 0 0 43
c0 24 3 47 7 50 8 9 131 9 201 1z"/>
<path d="M5820 2995 c0 -8 5 -15 11 -15 5 0 7 5 4 10 -3 6 0 10 9 10 8 0 17
-6 19 -12 3 -8 6 -6 6 5 1 12 -7 17 -24 17 -16 0 -25 -6 -25 -15z"/>
<path d="M5914 2988 c2 -7 11 -13 21 -13 10 0 19 6 21 13 1 7 0 8 -3 2 -2 -5
-11 -10 -18 -10 -7 0 -16 5 -18 10 -3 6 -4 5 -3 -2z"/>
<path d="M5994 2988 c1 -7 12 -14 24 -16 16 -3 22 2 21 15 0 10 -3 13 -6 6 -6
-16 -29 -17 -36 -3 -3 6 -4 5 -3 -2z"/>
<path d="M5910 2950 c-11 -7 -12 -12 -3 -21 15 -15 48 -7 48 11 0 18 -24 24
-45 10z"/>
<path d="M6003 2953 c-7 -2 -13 -11 -13 -19 0 -19 46 -18 54 1 3 8 1 15 -4 15
-6 0 -10 -4 -10 -10 0 -5 -7 -10 -16 -10 -14 0 -14 3 -4 15 13 16 13 16 -7 8z"/>
<path d="M6070 2939 c0 -15 5 -20 22 -17 34 5 37 38 4 38 -20 0 -26 -5 -26
-21z"/>
<path d="M5820 2938 c0 -20 34 -25 45 -7 11 16 -5 25 -16 9 -8 -13 -10 -13
-19 0 -8 13 -10 12 -10 -2z"/>
<path d="M5820 2879 c0 -15 5 -20 22 -17 34 5 37 38 4 38 -20 0 -26 -5 -26
-21z"/>
<path d="M5900 2885 c0 -8 5 -15 11 -15 5 0 7 5 4 10 -3 6 4 10 16 10 19 0 20
-2 8 -17 -12 -14 -12 -16 1 -11 8 2 16 12 18 21 3 13 -4 17 -27 17 -21 0 -31
-5 -31 -15z"/>
<path d="M5984 2889 c-3 -6 -2 -15 4 -21 15 -15 46 -5 50 15 3 12 -3 17 -22
17 -14 0 -28 -5 -32 -11z"/>
<path d="M6074 2889 c-3 -6 -2 -15 3 -20 13 -13 43 -1 43 17 0 16 -36 19 -46
3z"/>
<path d="M5815 2830 c-7 -12 2 -30 15 -30 5 0 7 7 4 15 -4 10 0 15 11 15 9 0
13 -4 10 -10 -3 -5 -1 -10 4 -10 6 0 11 7 11 15 0 17 -45 21 -55 5z"/>
<path d="M5905 2830 c-4 -7 -3 -16 3 -22 14 -14 47 -6 47 12 0 18 -40 26 -50
10z"/>
<path d="M5990 2826 c0 -19 14 -28 34 -20 25 10 19 34 -9 34 -15 0 -25 -6 -25
-14z"/>
<path d="M6070 2826 c0 -16 19 -25 38 -19 22 8 13 33 -13 33 -15 0 -25 -6 -25
-14z"/>
<path d="M2109 2801 c-24 -19 -24 -19 -23 -247 1 -284 -11 -266 173 -262 l126
3 19 40 c17 35 20 63 20 237 1 163 -2 200 -14 212 -18 18 -122 36 -211 36 -51
0 -72 -5 -90 -19z m205 -1 c38 -6 75 -15 83 -21 10 -9 13 -57 13 -208 0 -167
-3 -201 -18 -231 l-17 -35 -114 -3 c-90 -2 -118 1 -137 13 l-24 16 2 227 3
226 25 13 c30 15 91 16 184 3z"/>
<path d="M2228 2753 l-98 -4 0 -203 c0 -177 2 -205 16 -210 9 -3 62 -6 119 -6
l103 0 5 43 c4 23 9 110 13 193 7 165 1 196 -39 192 -12 -1 -66 -4 -119 -5z
m142 -145 c0 -73 -3 -163 -7 -200 l-6 -68 -86 0 c-144 0 -131 -19 -131 206 l0
194 115 0 115 0 0 -132z"/>
<path d="M2153 2464 c-3 -8 -1 -20 5 -26 16 -16 42 -2 42 22 0 24 -38 28 -47
4z m37 -10 c0 -9 -5 -14 -12 -12 -18 6 -21 28 -4 28 9 0 16 -7 16 -16z"/>
<path d="M2232 2458 c2 -15 10 -23 23 -23 13 0 21 8 23 23 3 18 -1 22 -23 22
-22 0 -26 -4 -23 -22z m36 0 c-6 -18 -28 -21 -28 -4 0 9 7 16 16 16 9 0 14 -5
12 -12z"/>
<path d="M2302 2458 c2 -15 11 -24 26 -26 18 -3 22 1 22 22 0 21 -5 26 -26 26
-21 0 -25 -4 -22 -22z m38 -3 c0 -8 -4 -15 -10 -15 -5 0 -10 7 -10 15 0 8 5
15 10 15 6 0 10 -7 10 -15z"/>
<path d="M2171 2401 c-19 -12 -6 -41 19 -41 15 0 20 7 20 25 0 26 -14 31 -39
16z m29 -16 c0 -8 -4 -15 -9 -15 -13 0 -22 16 -14 24 11 11 23 6 23 -9z"/>
<path d="M2237 2403 c-4 -3 -7 -15 -7 -25 0 -13 7 -18 25 -18 20 0 25 5 25 25
0 18 -5 25 -18 25 -10 0 -22 -3 -25 -7z m31 -15 c-6 -18 -28 -21 -28 -4 0 9 7
16 16 16 9 0 14 -5 12 -12z"/>
<path d="M2300 2384 c0 -21 4 -25 23 -22 14 2 23 11 25 26 3 18 -1 22 -22 22
-21 0 -26 -5 -26 -26z"/>
<path d="M5240 2802 l-25 -20 0 -227 c1 -281 -9 -265 162 -265 63 0 123 4 133
10 10 5 23 23 28 40 15 41 24 279 15 370 -7 68 -10 76 -35 88 -15 7 -78 15
-140 19 -104 5 -115 4 -138 -15z m204 -2 c38 -6 76 -16 83 -22 12 -9 14 -50
11 -218 -4 -271 2 -260 -151 -260 -159 0 -153 -7 -160 177 -3 81 -3 184 1 228
6 71 10 81 32 92 30 15 91 16 184 3z"/>
<path d="M5363 2753 l-103 -4 0 -203 c0 -177 2 -205 16 -210 9 -3 62 -6 119
-6 l103 0 6 48 c3 26 8 113 12 193 6 154 0 191 -34 187 -9 -1 -63 -4 -119 -5z
m137 -145 c0 -73 -3 -163 -7 -200 l-6 -68 -86 0 c-144 0 -131 -19 -131 206 l0
194 115 0 115 0 0 -132z"/>
<path d="M5283 2464 c-3 -8 -1 -20 5 -26 16 -16 42 -2 42 22 0 24 -38 28 -47
4z m37 -9 c0 -8 -7 -15 -15 -15 -8 0 -15 7 -15 15 0 8 7 15 15 15 8 0 15 -7
15 -15z"/>
<path d="M5362 2458 c2 -15 10 -23 23 -23 13 0 21 8 23 23 3 18 -1 22 -23 22
-22 0 -26 -4 -23 -22z m36 0 c-6 -18 -28 -21 -28 -4 0 9 7 16 16 16 9 0 14 -5
12 -12z"/>
<path d="M5432 2458 c2 -15 11 -24 26 -26 18 -3 22 1 22 22 0 21 -5 26 -26 26
-21 0 -25 -4 -22 -22z m38 -3 c0 -8 -4 -15 -10 -15 -5 0 -10 7 -10 15 0 8 5
15 10 15 6 0 10 -7 10 -15z"/>
<path d="M5301 2401 c-19 -12 -6 -41 19 -41 15 0 20 7 20 25 0 26 -14 31 -39
16z m29 -16 c0 -8 -4 -15 -9 -15 -13 0 -22 16 -14 24 11 11 23 6 23 -9z"/>
<path d="M5367 2403 c-4 -3 -7 -15 -7 -25 0 -29 44 -20 48 10 3 16 -2 22 -16
22 -10 0 -22 -3 -25 -7z m31 -15 c-6 -18 -28 -21 -28 -4 0 9 7 16 16 16 9 0
14 -5 12 -12z"/>
<path d="M5437 2403 c-4 -3 -7 -15 -7 -25 0 -14 6 -19 23 -16 29 4 38 48 9 48
-10 0 -22 -3 -25 -7z"/>
<path d="M5907 2783 c-17 -16 -5 -33 23 -33 20 0 30 5 30 15 0 8 -7 15 -16 15
-8 0 -12 -4 -9 -10 3 -5 -1 -10 -9 -10 -10 0 -13 6 -10 15 6 16 2 20 -9 8z"/>
<path d="M5985 2780 c-3 -5 -3 -14 0 -20 9 -15 42 -12 49 5 3 8 1 15 -4 15 -6
0 -10 -4 -10 -10 0 -5 -5 -10 -11 -10 -6 0 -9 7 -5 15 6 17 -9 21 -19 5z"/>
<path d="M6067 2783 c-15 -15 -6 -33 17 -33 23 0 41 22 29 34 -8 8 -38 8 -46
-1z"/>
<path d="M5820 2760 c0 -15 7 -20 25 -20 18 0 25 5 25 20 0 15 -7 20 -25 20
-18 0 -25 -5 -25 -20z m40 0 c0 -5 -7 -10 -15 -10 -8 0 -15 5 -15 10 0 6 7 10
15 10 8 0 15 -4 15 -10z"/>
<path d="M5820 2713 c0 -15 2 -16 10 -3 9 13 11 13 19 0 11 -16 27 -7 16 9
-11 18 -45 13 -45 -6z"/>
<path d="M5990 2715 c0 -9 9 -15 25 -15 16 0 25 6 25 15 0 9 -9 15 -25 15 -16
0 -25 -6 -25 -15z"/>
<path d="M6064 2719 c-7 -12 12 -29 32 -29 14 0 26 25 17 34 -10 10 -41 7 -49
-5z"/>
<path d="M23 2638 c-13 -6 -23 -15 -23 -20 0 -5 13 -2 29 7 l29 15 40 -73
c146 -268 212 -391 212 -396 0 -3 -70 -44 -155 -91 -85 -47 -155 -89 -155 -93
0 -5 19 2 43 16 23 13 93 53 156 87 62 35 115 69 118 76 6 16 -248 484 -262
483 -5 0 -20 -5 -32 -11z"/>
<path d="M3008 2557 c-91 -51 -169 -95 -172 -98 -7 -6 236 -454 259 -478 11
-11 40 2 184 80 94 52 171 100 171 107 0 21 -253 482 -265 482 -5 -1 -85 -42
-177 -93z m240 -27 c83 -148 195 -361 191 -364 -34 -26 -323 -177 -332 -173
-10 4 -89 141 -236 409 -14 26 -23 49 -21 52 8 7 334 185 336 183 1 -1 29 -49
62 -107z"/>
<path d="M3053 2462 c-57 -31 -103 -60 -103 -64 0 -7 198 97 215 113 22 22
-17 4 -112 -49z"/>
<path d="M3130 2444 c-117 -64 -152 -86 -147 -90 4 -5 195 100 212 117 16 16
2 10 -65 -27z"/>
<path d="M3122 2381 c-57 -32 -108 -64 -115 -71 -7 -7 15 2 48 20 198 109 180
98 174 104 -2 2 -50 -22 -107 -53z"/>
<path d="M3140 2328 c-58 -32 -109 -64 -115 -70 -13 -14 188 91 217 114 44 33
2 16 -102 -44z"/>
<path d="M3171 2280 c-57 -33 -109 -65 -115 -71 -13 -14 -18 -17 122 60 103
58 125 72 105 70 -5 0 -55 -27 -112 -59z"/>
<path d="M6115 2544 c-77 -42 -144 -79 -148 -84 -8 -7 232 -452 259 -480 11
-11 16 -11 26 -2 9 9 8 12 -5 12 -9 0 -32 27 -55 68 -68 116 -212 382 -212
390 0 4 56 38 123 75 115 62 169 96 157 97 -3 0 -68 -34 -145 -76z"/>
<path d="M1595 2519 l-200 -35 -8 -140 c-4 -76 -6 -195 -5 -263 3 -119 4 -125
28 -142 24 -18 29 -18 235 19 l210 37 3 130 c2 72 0 190 -3 262 -7 133 -7 133
-30 127 -19 -5 -24 -1 -27 18 l-3 23 -200 -36z m195 7 c0 -18 -5 -20 -178 -51
-132 -24 -182 -25 -182 -6 0 6 293 66 343 70 9 0 17 -5 17 -13z m55 -238 c4
-117 5 -229 3 -248 l-3 -34 -150 -28 c-82 -15 -172 -30 -200 -33 l-50 -7 3
199 c1 109 5 221 8 248 l5 51 167 31 c92 17 177 31 188 32 21 1 22 -3 29 -211z
m-405 22 c0 -70 -3 -182 -7 -249 -6 -119 -6 -121 -25 -104 -19 17 -19 29 -12
258 3 132 9 244 12 249 3 5 11 1 19 -9 9 -14 13 -55 13 -145z"/>
<path d="M1480 2260 c-11 -7 -12 -12 -3 -21 14 -14 84 0 91 19 5 15 -65 17
-88 2z m79 -4 c-11 -9 -69 -15 -64 -6 3 6 20 10 37 10 17 0 29 -2 27 -4z"/>
<path d="M1485 2140 c-9 -15 4 -30 26 -30 25 0 59 17 59 30 0 13 -77 13 -85 0z
m55 -10 c-20 -13 -50 -13 -50 0 0 6 15 10 33 10 24 0 28 -3 17 -10z"/>
<path d="M4700 2516 l-175 -32 -6 -104 c-4 -58 -7 -176 -8 -262 -1 -156 -1
-157 24 -177 20 -15 35 -18 61 -14 20 3 115 20 213 37 l176 31 3 100 c2 55 0
173 -3 262 l-7 163 -24 -6 c-20 -5 -24 -2 -24 15 0 27 -12 27 -230 -13z m220
10 c0 -18 -3 -19 -178 -51 -133 -24 -182 -25 -182 -6 0 6 297 66 348 70 6 1
12 -5 12 -13z m54 -268 c4 -133 3 -244 -1 -248 -9 -7 -348 -70 -379 -70 -18 0
-19 11 -16 217 1 120 4 232 7 248 l5 30 168 31 c92 18 176 32 188 33 20 1 21
-4 28 -241z m-404 72 c0 -58 -3 -169 -7 -248 -6 -140 -6 -142 -25 -125 -19 17
-19 28 -13 258 4 132 10 244 12 248 3 5 11 0 19 -10 9 -13 13 -50 14 -123z"/>
<path d="M4610 2260 c-10 -6 -12 -12 -4 -20 13 -13 86 1 92 18 5 15 -65 17
-88 2z m79 -4 c-11 -9 -69 -15 -64 -6 3 6 20 10 37 10 17 0 29 -2 27 -4z"/>
<path d="M4615 2140 c-9 -15 4 -30 26 -30 25 0 59 17 59 30 0 13 -77 13 -85 0z
m55 -10 c-20 -13 -50 -13 -50 0 0 6 15 10 33 10 24 0 28 -3 17 -10z"/>
<path d="M6157 2448 c-48 -28 -86 -52 -84 -54 4 -5 167 82 181 96 21 21 -11 7
-97 -42z"/>
<path d="M33 2463 c-18 -9 -33 -20 -33 -25 0 -9 24 2 55 26 25 19 19 19 -22
-1z"/>
<path d="M786 2465 c-14 -8 -35 -15 -47 -17 -16 -2 -25 -14 -34 -43 -6 -23
-28 -70 -48 -106 -42 -75 -46 -105 -17 -141 29 -38 86 -56 197 -64 78 -5 111
-3 156 10 78 23 86 41 62 142 -12 52 -16 94 -11 135 l6 59 -35 0 c-19 0 -38 6
-42 14 -12 20 -153 28 -187 11z m57 -12 c-13 -2 -33 -2 -45 0 -13 2 -3 4 22 4
25 0 35 -2 23 -4z m107 -3 c0 -5 -14 -7 -32 -3 -46 8 -48 13 -5 13 21 0 37 -4
37 -10z m85 -30 c-4 -6 -68 -10 -161 -10 -96 0 -154 4 -154 10 0 6 60 10 161
10 104 0 158 -3 154 -10z m-5 -76 c0 -31 7 -83 16 -116 8 -33 13 -67 10 -75
-3 -8 -21 -20 -41 -28 -47 -20 -253 -20 -300 -1 -31 13 -35 19 -35 53 0 21 9
67 20 101 11 35 20 77 20 93 l0 29 155 0 155 0 0 -56z m-344 -61 c-8 -27 -18
-65 -22 -86 -7 -42 -22 -38 -26 6 -2 26 54 152 60 135 2 -4 -3 -29 -12 -55z"/>
<path d="M3916 2465 c-14 -8 -35 -15 -46 -17 -16 -2 -26 -17 -39 -55 -10 -28
-30 -70 -45 -93 -56 -85 -43 -145 42 -182 67 -30 269 -32 327 -3 22 11 42 29
44 39 2 11 -5 53 -14 94 -12 50 -16 92 -11 133 l6 59 -35 0 c-19 0 -38 6 -42
14 -12 20 -153 28 -187 11z m62 -12 c-10 -2 -28 -2 -40 0 -13 2 -5 4 17 4 22
1 32 -1 23 -4z m102 -3 c0 -5 -14 -7 -32 -3 -46 8 -48 13 -5 13 21 0 37 -4 37
-10z m80 -30 c0 -6 -58 -10 -155 -10 -97 0 -155 4 -155 10 0 6 58 10 155 10
97 0 155 -4 155 -10z m0 -76 c0 -31 7 -83 16 -116 8 -33 13 -67 10 -75 -3 -8
-21 -20 -41 -28 -47 -20 -253 -20 -300 -1 -31 13 -35 19 -35 53 0 21 9 67 20
101 11 35 20 77 20 93 l0 29 155 0 155 0 0 -56z m-349 -81 c-11 -37 -22 -77
-24 -88 -3 -17 -5 -16 -16 9 -10 26 -8 37 21 97 18 37 34 63 36 59 2 -5 -6
-39 -17 -77z"/>
<path d="M45 2410 c-28 -16 -45 -30 -38 -30 6 0 29 10 50 22 47 27 47 27 42
32 -3 3 -27 -8 -54 -24z"/>
<path d="M6225 2426 c-11 -7 -42 -25 -68 -40 -27 -15 -47 -30 -44 -32 4 -5
125 61 142 77 14 14 -6 10 -30 -5z"/>
<path d="M63 2357 c-28 -18 -55 -36 -60 -41 -9 -11 107 52 122 65 20 19 -12 7
-62 -24z"/>
<path d="M6197 2351 c-72 -43 -81 -59 -12 -22 63 35 86 51 70 50 -6 0 -32 -13
-58 -28z"/>
<path d="M70 2295 c-41 -25 -71 -45 -66 -45 10 0 156 80 156 86 0 9 -19 1 -90
-41z"/>
<path d="M6203 2290 c-69 -40 -68 -47 2 -13 30 15 55 31 55 35 0 11 1 11 -57
-22z"/>
<path d="M6213 2229 c-45 -29 -41 -34 7 -9 38 19 50 30 33 30 -5 0 -23 -10
-40 -21z"/>
<path d="M2586 2064 c-54 -80 -95 -148 -92 -151 3 -3 48 61 101 142 53 81 94
149 92 151 -2 2 -48 -62 -101 -142z"/>
<path d="M5716 2064 c-54 -80 -96 -148 -93 -151 3 -3 49 61 102 142 53 81 95
149 92 151 -2 2 -47 -62 -101 -142z"/>
<path d="M2520 2125 c-18 -22 -8 -50 19 -50 32 0 49 28 32 49 -17 20 -35 20
-51 1z m43 -9 c8 -20 -20 -43 -35 -28 -14 14 -3 42 16 42 7 0 16 -6 19 -14z"/>
<path d="M5650 2125 c-18 -22 -8 -50 19 -50 32 0 49 28 32 49 -17 20 -35 20
-51 1z m43 -9 c8 -20 -20 -43 -35 -28 -14 14 -3 42 16 42 7 0 16 -6 19 -14z"/>
<path d="M2611 1991 c-7 -13 -6 -24 3 -37 13 -17 15 -17 40 -1 29 19 32 27 14
45 -18 18 -46 15 -57 -7z m49 -11 c0 -13 -7 -20 -20 -20 -19 0 -27 20 -13 33
13 14 33 6 33 -13z"/>
<path d="M5741 1996 c-9 -11 -10 -20 -1 -35 13 -26 21 -26 51 -2 20 16 21 21
10 35 -17 20 -45 21 -60 2z m49 -16 c0 -13 -7 -20 -20 -20 -19 0 -27 20 -13
33 13 14 33 6 33 -13z"/>
<path d="M745 1864 c-113 -33 -195 -61 -202 -71 -24 -31 -13 -86 75 -393 85
-299 87 -305 112 -302 14 1 106 25 206 53 241 67 230 49 165 286 -132 477
-134 483 -150 482 -9 -1 -101 -26 -206 -55z m215 16 c0 -15 -12 -23 -47 -33
-29 -9 -52 -11 -59 -6 -7 6 -46 -1 -100 -17 -49 -15 -109 -31 -132 -36 -32 -7
-41 -13 -33 -21 13 -13 14 -27 3 -27 -4 0 -13 13 -19 29 l-11 29 117 32 c64
17 145 40 181 50 86 24 100 24 100 0z m22 -64 c2 -15 -7 -22 -45 -33 -31 -9
-53 -11 -60 -5 -11 9 -134 -21 -202 -48 -49 -20 -85 -28 -90 -21 -7 12 19 32
47 35 20 2 114 29 158 44 8 3 26 7 40 9 13 2 30 9 36 14 17 14 98 37 106 30 3
-3 8 -14 10 -25z m16 -59 c2 -11 -10 -19 -45 -29 -28 -8 -51 -10 -54 -5 -4 5
-71 -12 -150 -37 -78 -25 -145 -43 -148 -41 -9 10 15 25 42 27 15 1 27 5 27 9
0 3 6 6 13 7 30 3 72 16 77 23 3 4 19 10 35 13 17 3 64 16 105 30 82 27 94 27
98 3z m-433 -14 c8 -33 7 -28 45 -168 16 -60 30 -120 30 -132 0 -12 4 -23 8
-25 14 -6 81 -271 73 -286 -9 -16 -31 48 -76 224 -23 88 -68 244 -95 330 -12
38 -13 84 -1 84 5 0 12 -12 16 -27z m450 -44 c4 -11 5 -22 3 -24 -3 -3 -156
-49 -203 -60 -16 -4 -50 -9 -74 -11 -63 -4 -101 -22 -93 -42 5 -15 3 -14 -12
1 -14 14 -16 21 -7 30 12 12 99 47 118 47 6 0 24 5 40 12 15 6 32 10 37 9 5
-1 24 5 43 14 99 47 139 54 148 24z m25 -80 c0 -13 -73 -29 -85 -19 -7 6 -49
-3 -118 -24 -59 -19 -107 -31 -107 -29 0 3 -6 0 -13 -6 -8 -6 -22 -12 -33 -14
-10 -1 -25 -6 -33 -11 -9 -6 -12 -5 -9 4 2 7 27 20 55 29 27 9 56 21 64 27 13
10 63 26 204 67 45 14 51 13 63 -1 6 -9 12 -19 12 -23z m5 -40 c8 -24 10 -22
-37 -36 -23 -7 -40 -7 -46 -1 -14 14 -51 -12 -44 -31 5 -13 2 -12 -12 2 -12
11 -22 14 -30 8 -6 -5 -31 -12 -56 -17 -51 -9 -49 -9 -70 -17 -41 -16 -92 -28
-97 -24 -2 3 20 13 50 23 39 12 54 21 52 33 -1 9 0 10 2 4 3 -7 7 -13 10 -13
14 0 152 44 188 60 81 35 82 35 90 9z m19 -55 c3 -9 6 -19 6 -24 0 -12 -64
-32 -92 -28 -28 3 -109 -11 -123 -22 -5 -4 -26 -11 -45 -15 -19 -4 -54 -13
-78 -21 -51 -17 -62 -17 -62 -4 0 6 7 10 16 10 8 0 25 5 37 12 25 14 25 14 92
28 78 17 79 18 65 35 -7 8 -9 15 -5 15 4 0 13 -7 19 -15 10 -14 19 -12 70 15
67 34 91 37 100 14z m13 -76 c-8 -21 -78 -40 -94 -26 -10 8 -17 8 -25 0 -7 -7
-20 -12 -30 -12 -12 0 -16 -5 -12 -17 5 -15 4 -15 -4 -4 -9 12 -17 13 -46 4
-20 -6 -36 -10 -36 -8 0 7 65 36 94 41 38 6 51 15 37 24 -7 3 2 8 19 9 71 5
80 6 80 16 0 5 5 4 11 -2 7 -7 9 -18 6 -25z m21 -49 c2 -12 -9 -19 -40 -28
-24 -6 -50 -10 -58 -9 -37 3 -49 -2 -44 -19 4 -12 3 -14 -3 -6 -8 12 -41 12
-73 0 -23 -8 -104 -28 -115 -28 -5 -1 -14 -4 -20 -8 -19 -14 -45 -20 -45 -10
0 11 42 29 80 34 14 2 26 4 28 6 1 1 7 3 12 4 6 1 11 3 13 5 1 1 9 3 17 5 42
8 124 36 136 46 35 29 107 34 112 8z m-316 -14 c16 4 29 2 34 -6 5 -9 2 -11
-9 -6 -9 3 -19 2 -22 -3 -4 -6 -17 -10 -31 -10 -14 0 -34 -5 -45 -10 -11 -7
-19 -7 -19 -1 0 5 13 12 29 16 22 5 28 11 24 23 -4 13 -2 14 5 4 5 -8 18 -11
34 -7z m328 -37 c0 -13 -70 -40 -87 -34 -8 4 -20 3 -26 -1 -7 -4 -19 -8 -27
-10 -8 -1 -68 -20 -132 -41 -90 -30 -118 -35 -122 -25 -3 7 -1 13 4 13 5 0 7
8 4 18 -5 13 -4 14 4 3 8 -11 16 -11 46 -1 19 6 48 13 63 15 16 2 47 11 71 19
23 8 42 13 42 9 0 -3 7 0 15 7 8 7 15 9 15 5 0 -4 7 -1 16 6 36 30 114 42 114
17z m20 -69 c0 -9 -8 -19 -17 -22 -10 -2 -97 -28 -193 -56 -127 -37 -176 -47
-182 -39 -4 7 -2 18 3 24 7 8 6 14 -3 17 -7 2 3 3 23 2 20 -2 49 3 63 10 14 8
26 11 26 8 0 -3 6 -1 13 5 7 6 28 14 47 17 19 3 40 11 47 17 7 6 13 8 13 4 0
-4 13 0 30 9 16 8 31 15 32 14 2 0 14 4 28 9 49 18 55 19 62 8 4 -6 8 -18 8
-27z m-20 -54 c-17 -17 -368 -120 -377 -111 -4 4 -2 11 3 16 10 10 268 87 311
93 12 2 25 6 29 10 4 4 17 7 28 7 18 0 18 -2 6 -15z"/>
<path d="M3875 1863 c-113 -32 -195 -61 -203 -71 -22 -28 -8 -98 80 -407 81
-284 84 -290 108 -287 14 1 106 25 206 53 243 68 231 46 159 306 -30 109 -71
258 -92 331 -27 100 -40 132 -52 131 -9 -1 -101 -26 -206 -56z m215 17 c0 -15
-12 -23 -47 -33 -29 -9 -53 -11 -59 -6 -7 6 -50 -2 -110 -20 -125 -37 -170
-45 -178 -33 -3 5 45 23 112 41 64 18 146 41 182 51 86 24 100 24 100 0z m22
-64 c2 -15 -7 -22 -45 -33 -31 -9 -53 -11 -60 -5 -11 9 -134 -21 -202 -48 -49
-20 -85 -28 -90 -21 -7 12 19 32 47 35 21 2 119 30 158 44 8 3 25 6 38 7 13 0
26 6 30 12 9 13 104 42 114 34 3 -3 8 -14 10 -25z m16 -58 c4 -19 -86 -52
-103 -38 -7 6 -64 -8 -150 -35 -77 -24 -141 -42 -143 -40 -9 9 10 23 40 30 18
4 38 9 43 11 6 2 24 7 40 10 17 4 32 11 35 15 3 4 19 10 35 13 17 3 64 16 105
30 82 27 94 27 98 4z m-428 -45 c7 -32 17 -63 22 -69 4 -6 9 -24 11 -40 2 -17
6 -34 9 -39 3 -6 11 -35 17 -65 7 -30 16 -64 21 -75 25 -55 79 -279 71 -293
-9 -15 -24 29 -71 203 -12 44 -32 116 -45 160 -40 135 -65 234 -65 255 0 40
17 19 30 -37z m443 -13 c3 -10 0 -23 -7 -28 -10 -8 -111 -38 -158 -47 -12 -3
-36 -9 -54 -15 -19 -6 -38 -9 -43 -6 -4 3 -31 -1 -59 -9 -41 -13 -50 -19 -45
-33 6 -16 5 -16 -11 1 -14 14 -16 20 -6 32 7 8 16 12 21 9 5 -3 9 -1 9 4 0 5
6 9 13 10 15 1 181 53 257 81 70 25 77 25 83 1z m17 -49 c0 -5 3 -16 6 -24 7
-19 -63 -42 -81 -27 -10 8 -187 -37 -240 -62 -12 -5 -27 -10 -35 -11 -8 -2
-21 -6 -29 -11 -9 -6 -12 -5 -9 5 3 8 15 16 29 17 13 2 28 8 34 13 5 5 16 9
24 9 8 0 22 6 30 13 9 8 50 24 91 36 41 12 93 29 115 36 49 16 65 18 65 6z
m18 -77 c2 -15 -6 -22 -37 -30 -25 -7 -44 -7 -49 -2 -14 14 -51 -12 -44 -31 5
-13 2 -12 -12 2 -13 13 -22 15 -31 7 -7 -6 -17 -10 -21 -9 -5 1 -21 -1 -35 -5
-14 -4 -32 -9 -40 -10 -8 -2 -21 -6 -29 -9 -29 -11 -94 -26 -98 -23 -2 3 21
12 51 22 39 12 54 21 52 33 -1 9 0 10 2 4 3 -7 7 -13 10 -13 14 0 152 44 188
60 78 34 88 35 93 4z m10 -46 c7 -7 12 -18 12 -24 0 -16 -65 -38 -90 -31 -19
5 -87 -7 -125 -23 -11 -4 -49 -16 -85 -25 -36 -10 -73 -20 -82 -22 -10 -3 -18
-1 -18 5 0 5 10 12 23 15 12 2 42 12 67 21 25 9 64 21 88 27 36 8 41 13 32 25
-7 8 -9 14 -5 14 4 0 13 -7 19 -15 10 -14 19 -12 70 15 66 33 77 35 94 18z
m19 -81 c-7 -18 -82 -38 -95 -25 -6 6 -16 6 -28 -1 -20 -11 -131 -45 -151 -46
-6 0 -15 -4 -19 -8 -4 -4 -18 -7 -31 -7 -14 0 -33 -5 -44 -10 -11 -7 -19 -7
-19 -1 0 5 13 12 29 16 22 5 28 11 24 23 -4 13 -2 14 5 4 5 -8 18 -11 34 -7
13 3 31 7 39 9 8 2 27 8 42 14 15 7 42 14 59 17 40 7 53 16 39 25 -7 3 2 8 19
9 71 5 80 6 80 16 0 5 5 4 11 -2 7 -7 9 -18 6 -26z m21 -48 c2 -12 -9 -19 -40
-28 -24 -6 -50 -10 -58 -9 -37 3 -49 -2 -44 -19 4 -12 3 -14 -3 -6 -8 12 -41
12 -73 0 -25 -9 -105 -28 -110 -27 -3 1 -18 -5 -35 -14 -16 -8 -31 -13 -33
-11 -9 9 10 24 38 30 22 5 27 10 22 23 -5 15 -4 15 12 -1 14 -14 21 -15 32 -6
8 6 14 8 14 4 0 -4 7 -2 15 5 8 7 15 10 15 7 0 -7 121 32 136 44 35 29 107 34
112 8z m12 -47 c0 -21 -66 -47 -93 -36 -8 3 -18 1 -22 -5 -3 -6 -17 -11 -30
-11 -19 0 -23 -4 -19 -17 5 -15 4 -15 -4 -3 -9 12 -26 9 -116 -21 -80 -26
-107 -31 -110 -22 -3 7 -1 13 4 13 5 0 7 8 4 18 -5 13 -4 14 4 3 8 -11 16 -11
46 -1 21 6 51 14 67 17 16 2 54 13 84 23 30 10 55 16 55 13 0 -3 7 1 16 8 16
14 76 36 102 38 6 1 12 -7 12 -17z m20 -73 c0 -12 -32 -26 -127 -54 -223 -66
-261 -74 -267 -60 -6 17 12 32 46 39 14 2 36 9 47 16 12 6 21 8 21 4 0 -3 6
-2 13 4 7 6 28 14 47 17 19 3 40 11 47 17 7 6 13 8 13 4 0 -4 13 0 30 9 16 8
33 16 37 17 5 0 24 6 43 13 37 13 50 6 50 -26z m-15 -49 c-21 -20 -371 -127
-382 -116 -14 14 19 28 148 65 74 21 159 45 189 54 30 8 57 16 60 16 2 1 -4
-8 -15 -19z"/>
<path d="M2037 1882 c-3 -4 -8 -109 -12 -235 l-8 -227 41 0 c22 0 43 3 45 8 3
4 8 109 12 235 l7 227 -40 0 c-23 0 -43 -3 -45 -8z m68 -194 c-8 -256 -8 -258
-46 -258 l-30 0 6 213 c4 116 8 218 10 225 3 6 18 12 35 12 l31 0 -6 -192z"/>
<path d="M5157 1723 c-4 -91 -7 -197 -7 -235 l0 -68 39 0 c22 0 42 3 44 8 3 4
8 109 12 235 l7 227 -45 0 -44 0 -6 -167z m78 -35 c-8 -256 -8 -258 -46 -258
l-30 0 6 213 c4 116 8 218 10 225 3 6 18 12 35 12 l31 0 -6 -192z"/>
<path d="M1875 1698 c-3 -68 -5 -159 -3 -203 l3 -80 41 -3 41 -3 6 83 c4 46 7
135 7 199 l0 117 -31 6 c-58 11 -57 15 -64 -116z m82 -25 c-4 -71 -7 -154 -7
-185 l0 -58 -36 0 -37 0 6 83 c4 45 7 128 7 185 l0 102 37 0 36 0 -6 -127z"/>
<path d="M5005 1698 c-3 -68 -5 -159 -3 -203 l3 -80 41 -3 41 -3 6 92 c4 51 7
140 7 199 l0 108 -31 6 c-58 11 -57 15 -64 -116z m82 -20 c-4 -66 -7 -150 -7
-185 l0 -63 -36 0 -37 0 6 83 c4 45 7 128 7 185 l0 102 37 0 36 0 -6 -122z"/>
<path d="M2386 1723 c-3 -21 -6 -161 -6 -310 0 -266 0 -273 20 -273 19 0 20 7
20 264 0 258 -5 356 -20 356 -4 0 -10 -17 -14 -37z m24 -49 c0 -8 -4 -14 -10
-14 -5 0 -10 9 -10 21 0 11 5 17 10 14 6 -3 10 -13 10 -21z m0 -279 c0 -157
-4 -245 -10 -245 -6 0 -10 88 -10 245 0 157 4 245 10 245 6 0 10 -88 10 -245z"/>
<path d="M5516 1723 c-3 -21 -6 -161 -6 -310 0 -266 0 -273 20 -273 19 0 20 7
20 258 0 255 -6 362 -20 362 -4 0 -10 -17 -14 -37z m24 -49 c0 -8 -4 -14 -10
-14 -5 0 -10 9 -10 21 0 11 5 17 10 14 6 -3 10 -13 10 -21z m0 -279 c0 -157
-4 -245 -10 -245 -6 0 -10 88 -10 245 0 157 4 245 10 245 6 0 10 -88 10 -245z"/>
<path d="M5 1715 c6 -2 29 -9 52 -15 44 -11 73 -47 73 -87 -1 -12 -5 -7 -14
12 -7 17 -20 36 -29 43 -21 17 -87 33 -87 21 0 -5 11 -9 24 -9 29 0 72 -36 81
-67 6 -22 4 -23 -49 -23 -31 0 -56 -4 -56 -9 0 -5 70 -9 156 -10 86 0 158 -2
159 -3 2 -2 1 -69 -2 -149 l-6 -147 -51 -6 c-65 -8 -184 -8 -213 0 -13 4 -23
13 -23 20 0 8 -3 14 -7 14 -5 0 -8 -20 -8 -45 0 -25 3 -45 7 -45 5 0 8 9 8 20
0 19 7 20 145 20 l146 0 -3 -77 -3 -78 -155 -5 -155 -6 161 -2 162 -2 7 244
c4 134 4 249 1 255 -5 7 -42 11 -97 11 -88 0 -89 0 -89 25 0 61 -47 106 -112
104 -18 0 -29 -2 -23 -4z"/>
<path d="M1724 1707 c-2 -7 -3 -76 -2 -152 l3 -140 43 -3 42 -3 0 155 0 156
-40 0 c-24 0 -43 -5 -46 -13z m76 -137 l0 -140 -30 0 -30 0 0 140 0 140 30 0
30 0 0 -140z"/>
<path d="M3034 1706 c-44 -19 -74 -55 -74 -88 l0 -28 -105 0 c-104 0 -106 0
-115 -26 -6 -14 -10 -129 -10 -255 l0 -229 359 0 358 0 7 245 c4 134 5 249 1
255 -3 6 -44 10 -96 10 -89 0 -89 0 -89 25 0 41 -27 82 -61 94 -43 15 -137 13
-175 -3z m158 -7 c39 -10 68 -48 68 -86 -1 -11 -6 -6 -15 14 -18 41 -49 61
-115 72 -52 8 -53 9 -15 10 22 0 57 -4 77 -10z m-157 -16 c-39 -20 -35 -16
-50 -60 -11 -28 -14 -32 -15 -15 0 13 5 32 10 42 10 20 56 49 75 49 6 0 -3 -7
-20 -16z m174 -27 c12 -11 21 -30 21 -43 0 -23 -1 -23 -115 -23 -113 0 -115 0
-115 23 0 50 36 68 122 64 48 -2 72 -8 87 -21z m233 -233 c-2 -82 -5 -149 -6
-150 -1 -1 -45 -5 -97 -9 -110 -8 -189 1 -189 20 0 14 -30 26 -66 26 -13 0
-24 -8 -27 -20 -5 -19 -14 -20 -162 -20 l-158 0 7 53 c3 28 6 96 6 150 l0 97
349 0 348 0 -5 -147z m-304 -165 c-3 -28 -7 -32 -35 -35 -32 -4 -33 -3 -33 31
0 35 1 36 36 36 34 0 35 -1 32 -32z m-83 -28 c5 -16 15 -20 51 -20 37 0 44 3
44 20 0 19 7 20 145 20 l146 0 -3 -77 -3 -78 -345 0 -345 0 -3 78 -3 77 155 0
c146 0 155 -1 161 -20z"/>
<path d="M4857 1713 c-4 -3 -7 -73 -7 -155 l0 -148 45 0 45 0 0 155 0 155 -38
0 c-21 0 -42 -3 -45 -7z m73 -143 l0 -140 -30 0 -30 0 0 140 0 140 30 0 30 0
0 -140z"/>
<path d="M6170 1709 c-42 -17 -80 -60 -80 -91 l0 -28 -105 0 c-104 0 -106 0
-115 -26 -6 -14 -10 -129 -10 -255 l0 -229 203 2 202 2 -195 6 -195 5 -3 78
-3 77 154 0 c146 0 155 -1 160 -20 4 -15 14 -20 41 -20 20 0 36 5 36 11 0 7
-11 8 -30 4 -29 -6 -30 -5 -30 29 0 33 2 36 31 36 17 0 28 4 24 10 -12 19 -63
11 -70 -10 -6 -19 -15 -20 -162 -20 l-156 0 7 61 c3 34 6 102 6 150 l0 89 190
0 c120 0 190 4 190 10 0 6 -28 10 -65 10 -61 0 -65 1 -65 23 0 42 35 67 94 67
42 0 49 19 9 21 l-28 1 30 8 30 8 -35 0 c-19 0 -46 -4 -60 -9z m-11 -32 c-19
-13 -39 -38 -46 -57 -9 -28 -12 -30 -12 -12 -1 33 15 59 47 76 42 23 49 19 11
-7z"/>
<path d="M1584 1607 c-3 -8 -4 -54 -2 -103 l3 -89 43 -3 42 -3 0 105 0 106
-40 0 c-25 0 -43 -5 -46 -13z m76 -92 l0 -95 -30 0 -30 0 0 95 0 95 30 0 30 0
0 -95z"/>
<path d="M4717 1613 c-4 -3 -7 -48 -7 -99 0 -100 2 -104 61 -104 l29 0 0 105
0 105 -38 0 c-21 0 -42 -3 -45 -7z m73 -98 l0 -95 -29 0 -30 0 -3 91 c-2 50
-1 93 1 95 2 2 17 4 33 4 l28 0 0 -95z"/>
<path d="M1462 1483 l3 -68 40 0 40 0 -1 65 0 65 -43 3 -42 3 3 -68z m68 -3
c0 -62 -6 -69 -44 -54 -12 4 -16 20 -16 53 0 54 4 61 37 61 22 0 23 -4 23 -60z"/>
<path d="M4592 1483 l3 -68 40 0 40 0 -1 65 -1 65 -42 3 -42 3 3 -68z m68 -4
c0 -60 0 -60 -27 -57 -25 3 -28 7 -31 47 -4 57 2 71 33 71 24 0 25 -2 25 -61z"/>
<path d="M1377 1216 c-4 -10 -7 -73 -7 -141 0 -109 2 -124 18 -129 16 -4 368
-11 440 -7 l32 1 0 134 c0 74 -4 137 -9 141 -5 3 -113 8 -239 12 -211 6 -229
5 -235 -11z m351 -3 l122 -6 0 -129 0 -128 -232 2 -233 3 -3 110 c-4 165 -12
155 117 155 59 0 163 -3 229 -7z"/>
<path d="M1416 1154 c-14 -35 -6 -64 18 -70 44 -11 60 -1 67 38 5 34 4 37 -24
42 -45 9 -54 7 -61 -10z m50 -52 c-12 -12 -18 8 -10 35 l8 28 4 -28 c2 -16 1
-31 -2 -35z"/>
<path d="M1587 1163 c-4 -3 -7 -11 -7 -17 0 -6 5 -4 11 4 9 13 10 13 8 0 -3
-33 1 -54 10 -44 5 5 7 21 4 37 -5 27 -13 33 -26 20z"/>
<path d="M1642 1141 c-9 -25 -8 -29 6 -27 10 2 18 14 20 29 4 36 -13 34 -26
-2z"/>
<path d="M1686 1144 c-13 -33 -6 -49 9 -20 18 33 18 36 6 36 -5 0 -12 -7 -15
-16z"/>
<path d="M1722 1148 c-14 -14 -16 -42 -3 -34 7 5 23 46 17 46 -1 0 -7 -5 -14
-12z"/>
<path d="M1751 1127 c0 -18 3 -26 6 -19 2 6 10 9 16 5 6 -4 8 0 4 9 -3 9 -1
20 4 25 5 5 1 9 -11 10 -16 1 -20 -4 -19 -30z"/>
<path d="M4507 1216 c-4 -10 -7 -73 -7 -142 0 -120 1 -124 23 -128 32 -7 385
-14 430 -8 l37 4 0 134 c0 74 -4 135 -10 139 -5 3 -112 8 -238 12 -211 6 -229
5 -235 -11z m361 -3 l112 -6 0 -129 0 -128 -232 2 -233 3 -3 100 c-2 55 0 115
3 133 l6 32 117 0 c64 0 168 -3 230 -7z"/>
<path d="M4544 1146 c-11 -47 -2 -61 41 -61 38 0 40 2 46 37 5 34 4 37 -24 42
-48 10 -56 7 -63 -18z m56 -21 c0 -14 -4 -25 -10 -25 -5 0 -10 11 -10 25 0 14
5 25 10 25 6 0 10 -11 10 -25z"/>
<path d="M4714 1158 c-4 -7 -3 -8 4 -4 7 4 12 2 12 -4 0 -6 -7 -13 -15 -16
-17 -7 -21 -34 -4 -34 5 0 8 4 4 9 -3 5 -1 12 5 16 5 3 10 -2 10 -11 0 -11 3
-14 9 -8 11 10 3 64 -10 64 -4 0 -11 -5 -15 -12z"/>
<path d="M4772 1141 c-9 -25 -8 -29 6 -27 10 2 18 14 20 29 4 36 -13 34 -26
-2z"/>
<path d="M4814 1135 c-4 -14 -4 -29 0 -32 3 -4 6 3 6 15 0 12 5 22 10 22 6 0
10 5 10 10 0 21 -20 9 -26 -15z"/>
<path d="M4852 1148 c-14 -14 -16 -42 -3 -34 7 5 23 46 17 46 -1 0 -7 -5 -14
-12z"/>
<path d="M4881 1127 c0 -18 3 -26 6 -19 2 6 10 9 16 5 6 -4 8 0 4 9 -3 9 -1
20 4 25 5 5 1 9 -11 10 -16 1 -20 -4 -19 -30z"/>
<path d="M2075 745 c-4 -90 -5 -171 -2 -180 6 -13 50 -15 346 -15 300 0 340 2
345 16 3 9 6 90 6 180 l0 164 -344 0 -344 0 -7 -165z m683 -12 l-3 -168 -329
-3 c-182 -1 -333 1 -337 5 -4 5 -5 81 -2 171 l6 162 334 0 333 0 -2 -167z"/>
<path d="M2403 820 c-33 -13 -55 -54 -55 -105 -1 -56 22 -85 67 -85 42 0 67
37 73 106 4 46 2 53 -23 72 -31 24 -31 24 -62 12z m67 -29 c27 -51 -7 -151
-52 -151 -57 0 -80 89 -37 144 25 32 73 36 89 7z"/>
<path d="M2390 768 c-34 -57 -18 -113 31 -106 18 2 28 13 38 45 28 80 -27 129
-69 61z m60 7 c10 -12 11 -24 1 -56 -14 -47 -38 -61 -57 -34 -18 25 -18 34 6
73 22 36 32 39 50 17z"/>
<path d="M2557 810 c-66 -52 -50 -180 23 -180 42 0 73 41 78 103 4 49 2 56
-23 75 -34 27 -46 27 -78 2z m15 -20 c-45 -42 -40 -122 9 -128 21 -2 29 3 43
31 22 48 20 83 -6 101 -12 9 -17 16 -11 16 51 0 57 -105 8 -153 -58 -58 -117
59 -64 127 11 14 25 26 32 26 6 0 1 -9 -11 -20z m54 -24 c7 -30 -20 -96 -41
-96 -8 0 -21 11 -27 25 -9 21 -8 32 5 60 20 42 53 48 63 11z"/>
<path d="M2235 768 c-33 -37 -43 -53 -33 -59 8 -5 21 0 33 11 33 31 38 24 31
-41 -7 -55 -6 -60 11 -57 22 4 30 39 32 131 1 84 -10 86 -74 15z m60 -65 c-4
-35 -10 -63 -14 -63 -4 0 -4 27 -1 61 3 33 3 62 -1 64 -3 3 -17 -7 -29 -20
-13 -14 -28 -25 -34 -25 -6 0 10 21 34 46 42 42 45 43 48 23 2 -13 1 -51 -3
-86z"/>
<path d="M5205 745 c-4 -90 -5 -171 -1 -180 5 -13 47 -15 348 -13 l343 3 3
178 2 177 -344 0 -344 0 -7 -165z m685 1 c0 -85 -3 -161 -6 -170 -5 -14 -45
-16 -342 -16 l-335 0 6 68 c4 37 7 113 7 170 l0 102 335 0 335 0 0 -154z"/>
<path d="M5533 819 c-33 -12 -56 -55 -56 -105 0 -55 23 -84 69 -84 26 0 36 7
53 34 50 81 7 182 -66 155z m62 -26 c35 -35 -1 -153 -47 -153 -36 0 -58 29
-58 75 0 76 62 122 105 78z"/>
<path d="M5527 782 c-42 -46 -28 -126 21 -120 22 2 30 11 41 45 25 71 -18 123
-62 75z m53 -7 c26 -32 -22 -128 -50 -99 -19 21 -19 51 0 82 22 36 32 39 50
17z"/>
<path d="M5687 810 c-67 -53 -50 -180 24 -180 70 0 108 122 54 175 -29 30 -45
31 -78 5z m75 -17 c29 -26 21 -99 -17 -136 -58 -58 -117 59 -64 127 23 30 54
33 81 9z"/>
<path d="M5685 770 c-28 -53 -13 -110 29 -110 40 0 74 98 44 128 -22 22 -57
14 -73 -18z m69 2 c9 -26 -18 -96 -37 -100 -10 -2 -22 7 -29 23 -9 21 -8 32 5
60 18 38 52 47 61 17z"/>
<path d="M5365 768 c-33 -37 -43 -53 -33 -59 8 -5 21 0 33 11 33 31 37 25 30
-41 -7 -56 -6 -61 11 -57 23 4 31 38 33 131 1 84 -10 86 -74 15z m60 -54 c-4
-41 -10 -74 -14 -74 -4 0 -4 28 0 63 3 34 4 64 2 66 -2 3 -16 -8 -31 -22 -48
-46 -49 -30 -2 18 25 25 46 41 48 35 3 -7 1 -45 -3 -86z"/>
<path d="M530 860 c-4 -8 -10 -46 -14 -85 -3 -38 -16 -117 -27 -175 l-21 -104
29 -27 c27 -23 41 -27 134 -33 58 -4 112 -4 121 -1 21 8 26 42 34 240 7 186 6
189 -84 197 -40 4 -57 1 -70 -11 -15 -15 -15 -15 -9 2 7 18 -7 24 -18 7 -3 -5
-12 -10 -18 -10 -8 0 -8 3 1 9 9 5 3 8 -18 7 -18 -1 -35 -8 -40 -16z m35 -40
c7 0 16 6 18 13 4 9 8 8 17 -3 9 -12 13 -12 17 -2 4 10 8 10 20 1 11 -10 16
-10 22 0 6 10 10 9 15 -4 3 -9 10 -13 16 -10 6 4 8 11 5 16 -4 5 -1 9 4 9 6 0
11 -7 11 -16 0 -9 6 -14 13 -11 6 2 11 10 10 16 -2 6 2 11 7 11 6 0 10 -7 10
-15 0 -8 7 -15 15 -15 12 0 14 -19 9 -127 -2 -71 -7 -152 -10 -181 l-6 -53
-111 3 -111 3 2 185 c1 206 2 224 9 198 2 -10 11 -18 18 -18z m-41 -219 c-6
-118 -9 -130 -22 -117 -14 13 -13 28 4 135 10 66 20 119 21 117 2 -2 0 -62 -3
-135z"/>
<path d="M638 743 c12 -2 32 -2 45 0 12 2 2 4 -23 4 -25 0 -35 -2 -22 -4z"/>
<path d="M648 693 c18 -2 45 -2 60 0 15 2 0 4 -33 4 -33 0 -45 -2 -27 -4z"/>
<path d="M643 643 c15 -2 39 -2 55 0 15 2 2 4 -28 4 -30 0 -43 -2 -27 -4z"/>
<path d="M3715 871 c2 -4 -9 -5 -25 -3 -33 5 -35 1 -45 -103 -3 -33 -15 -107
-27 -165 l-20 -104 30 -27 c26 -24 41 -27 130 -34 55 -4 109 -4 120 -1 25 8
29 32 37 234 6 133 5 156 -10 178 -15 23 -22 25 -65 22 -26 -1 -46 0 -43 5 9
14 -16 7 -33 -10 -15 -16 -17 -16 -12 -2 5 12 0 17 -18 17 -13 0 -22 -4 -19
-7z m-20 -51 c7 0 16 6 18 13 4 9 8 8 16 -3 10 -13 12 -13 21 0 6 10 10 11 10
3 0 -7 7 -13 15 -13 8 0 15 6 15 13 0 6 5 4 11 -6 6 -9 15 -15 20 -12 5 4 7
11 4 16 -4 5 -1 9 4 9 6 0 11 -7 11 -16 0 -9 6 -14 13 -11 6 2 11 10 10 16 -2
6 2 11 7 11 6 0 10 -7 10 -15 0 -8 7 -15 15 -15 13 0 14 -17 10 -117 -3 -65
-8 -146 -11 -181 l-6 -63 -111 3 -112 3 2 185 c2 207 3 224 10 198 2 -10 11
-18 18 -18z m-42 -219 c-5 -118 -8 -130 -21 -117 -14 13 -13 28 4 135 10 66
20 119 21 117 1 -1 0 -62 -4 -135z"/>
<path d="M3768 743 c12 -2 32 -2 45 0 12 2 2 4 -23 4 -25 0 -35 -2 -22 -4z"/>
<path d="M3778 693 c18 -2 45 -2 60 0 15 2 0 4 -33 4 -33 0 -45 -2 -27 -4z"/>
<path d="M3773 643 c15 -2 39 -2 55 0 15 2 2 4 -28 4 -30 0 -43 -2 -27 -4z"/>
<path d="M1054 840 c-32 -12 -64 -59 -64 -92 0 -41 48 -88 90 -88 45 0 90 47
90 94 0 60 -63 107 -116 86z m83 -32 c62 -58 -11 -163 -92 -132 -25 10 -47 62
-40 95 13 57 88 79 132 37z"/>
<path d="M1084 778 c-10 -12 -13 -18 -5 -13 10 6 12 1 6 -26 -5 -22 -4 -31 3
-24 8 9 25 85 18 85 -2 0 -11 -10 -22 -22z"/>
<path d="M4184 840 c-32 -13 -64 -59 -64 -92 0 -41 48 -88 90 -88 65 0 111 82
79 142 -8 15 -68 50 -81 47 -2 0 -13 -4 -24 -9z m85 -36 c60 -76 -36 -175
-110 -115 -18 14 -24 29 -24 61 0 32 6 47 24 61 35 28 85 25 110 -7z"/>
<path d="M4214 778 c-10 -12 -13 -18 -5 -13 10 6 12 1 6 -25 -5 -21 -4 -30 3
-26 7 4 23 86 16 86 0 0 -9 -10 -20 -22z"/>
<path d="M25 832 c35 -9 35 -10 -1 -130 -14 -46 -23 -89 -21 -95 2 -6 16 34
31 89 15 55 31 105 35 112 5 9 19 6 52 -11 24 -13 44 -28 44 -34 0 -6 -37 -50
-82 -97 -46 -48 -83 -91 -83 -95 0 -5 43 -46 95 -91 77 -66 93 -85 84 -96 -21
-25 -81 -57 -133 -71 -49 -12 -50 -13 -10 -9 114 11 213 113 230 239 18 132
-94 276 -228 291 -31 4 -35 3 -13 -2z m199 -142 c39 -72 42 -154 7 -228 -14
-29 -28 -52 -32 -52 -6 0 -138 109 -183 150 -10 10 154 191 169 187 6 -2 23
-28 39 -57z"/>
<path d="M3060 831 c-48 -15 -85 -39 -121 -78 -59 -62 -74 -98 -73 -183 0 -64
4 -83 29 -128 63 -116 191 -168 319 -130 64 19 150 109 170 177 20 68 20 94 1
158 -18 60 -81 135 -138 165 -45 22 -145 33 -187 19z m123 -8 c3 -5 -8 -51
-23 -103 -15 -52 -31 -108 -34 -123 l-7 -28 -122 3 -122 3 3 35 c9 87 85 178
172 205 49 15 126 19 133 8z m92 -39 c14 -9 24 -20 23 -25 -5 -14 -151 -160
-155 -155 -4 4 15 79 43 168 14 44 17 46 40 38 13 -5 35 -17 49 -26z m79 -94
c39 -72 42 -154 7 -228 -14 -29 -28 -52 -32 -52 -6 0 -138 109 -183 150 -10
10 153 192 168 187 6 -2 24 -28 40 -57z m-135 -206 c50 -41 93 -79 96 -84 3
-5 -13 -23 -36 -40 -155 -112 -366 -24 -402 168 l-6 32 129 0 129 0 90 -76z"/>
<path d="M6190 831 c-73 -23 -136 -75 -172 -145 -17 -31 -22 -59 -22 -116 0
-65 4 -83 29 -129 45 -82 160 -154 221 -138 12 3 8 5 -11 6 -49 2 -129 45
-168 92 -31 36 -67 117 -67 151 0 4 59 8 130 8 128 0 130 0 129 23 -1 17 -2
18 -6 4 -4 -16 -17 -17 -126 -15 l-122 3 3 35 c8 85 87 180 167 201 22 6 51
15 65 19 l25 8 -25 0 c-14 0 -36 -3 -50 -7z"/>
<path d="M1556 664 c-54 -79 -96 -147 -93 -150 3 -4 49 60 102 141 53 81 95
149 93 151 -3 2 -48 -62 -102 -142z"/>
<path d="M4686 664 c-54 -80 -96 -148 -93 -150 3 -3 49 61 102 141 53 81 94
149 92 151 -2 2 -47 -62 -101 -142z"/>
<path d="M1492 728 c-19 -19 -14 -46 8 -53 27 -8 52 12 48 39 -3 24 -37 33
-56 14z m44 -9 c10 -17 -23 -46 -37 -32 -7 7 -9 19 -6 27 7 18 33 21 43 5z"/>
<path d="M4622 728 c-19 -19 -14 -46 8 -53 27 -8 52 12 48 39 -3 24 -37 33
-56 14z m44 -9 c10 -17 -23 -46 -37 -32 -7 7 -9 19 -6 27 7 18 33 21 43 5z"/>
<path d="M1587 603 c-4 -3 -7 -17 -7 -30 0 -18 6 -23 24 -23 29 0 49 22 40 44
-6 16 -44 22 -57 9z m43 -18 c0 -16 -27 -32 -37 -22 -3 4 -3 13 0 22 8 20 37
20 37 0z"/>
<path d="M4712 593 c-13 -26 -4 -43 23 -43 28 0 48 22 39 44 -8 21 -51 21 -62
-1z m48 -8 c0 -16 -27 -32 -37 -22 -3 4 -3 13 0 22 8 20 37 20 37 0z"/>
<path d="M883 365 c-32 -32 -35 -39 -30 -78 7 -54 43 -87 95 -87 48 0 77 21
92 66 15 44 6 79 -27 110 -39 37 -86 33 -130 -11z m115 9 c33 -23 45 -60 32
-100 -26 -78 -121 -88 -158 -17 -20 37 -14 73 17 104 33 33 74 38 109 13z"/>
<path d="M949 351 c21 -6 22 -8 7 -20 -16 -13 -23 -37 -8 -27 4 2 14 1 22 -4
21 -13 -8 -43 -37 -37 -13 2 -23 0 -23 -4 0 -15 57 -10 71 7 10 13 10 20 0 36
-8 14 -9 23 -2 32 14 17 4 26 -28 25 l-26 -1 24 -7z"/>
<path d="M4017 374 c-33 -33 -41 -57 -33 -99 12 -64 99 -98 153 -60 27 19 47
78 39 111 -18 71 -109 98 -159 48z m111 0 c33 -23 45 -60 32 -100 -26 -78
-121 -88 -158 -17 -20 37 -14 73 17 104 33 33 74 38 109 13z"/>
<path d="M4079 351 c21 -6 22 -8 7 -20 -16 -13 -23 -37 -8 -27 4 2 14 1 22 -4
21 -13 -8 -43 -37 -37 -13 2 -23 0 -23 -4 0 -5 13 -9 30 -9 34 0 59 32 41 54
-6 6 -8 22 -4 34 5 19 1 22 -23 21 -27 -1 -28 -1 -5 -8z"/>
<path d="M1183 305 c-2 -6 -2 -78 0 -160 l3 -150 2 153 2 152 320 0 319 0 4
-152 3 -153 2 158 2 157 -187 2 c-358 5 -465 3 -470 -7z"/>
<path d="M4313 305 c-2 -6 -2 -78 0 -160 l3 -150 2 153 2 152 320 0 319 0 4
-152 3 -153 2 158 2 157 -187 2 c-358 5 -465 3 -470 -7z"/>
<path d="M333 295 c-70 -30 -90 -120 -39 -174 36 -38 74 -46 119 -27 87 36 88
166 2 202 -41 17 -42 17 -82 -1z m111 -36 c31 -37 33 -73 6 -116 -32 -54 -117
-59 -153 -10 -49 65 -3 157 79 157 35 0 47 -5 68 -31z"/>
<path d="M376 243 c-3 -10 -8 -23 -11 -29 -4 -7 2 -11 12 -10 13 1 18 -6 18
-24 0 -20 -6 -26 -30 -30 -21 -4 -26 -8 -17 -14 20 -12 62 20 62 48 0 13 -7
26 -15 30 -18 7 -9 33 13 39 13 3 11 5 -4 6 -12 0 -24 -7 -28 -16z"/>
<path d="M3463 295 c-70 -30 -90 -120 -39 -174 38 -39 75 -47 121 -25 126 60
47 254 -82 199z m111 -36 c30 -35 33 -67 11 -109 -18 -35 -43 -50 -85 -50 -45
0 -70 16 -86 57 -17 41 -11 68 24 106 20 21 35 27 68 27 35 0 47 -5 68 -31z"/>
<path d="M3496 223 c-11 -12 -6 -21 12 -19 12 1 17 -6 17 -24 0 -20 -6 -26
-30 -30 -21 -4 -26 -8 -17 -14 19 -12 62 20 62 47 0 22 -32 51 -44 40z"/>
<path d="M1212 139 l2 -144 6 135 5 135 28 -1 c15 0 144 -1 287 -2 l260 -2 0
-130 c0 -72 3 -130 8 -130 5 0 4 261 -1 266 -1 1 -136 5 -299 9 l-298 7 2
-143z"/>
<path d="M4342 138 l2 -143 6 135 5 135 28 -1 c15 0 144 -1 287 -2 l260 -2 0
-130 c0 -72 3 -130 8 -130 5 0 5 261 -1 267 -1 0 -136 4 -299 8 l-298 7 2
-144z"/>
<path d="M2450 255 c-14 -8 -49 -20 -77 -26 -57 -13 -62 -19 -36 -40 14 -12
16 -12 11 2 -5 12 6 20 50 34 32 10 62 19 68 22 6 2 0 -21 -15 -51 -16 -35
-31 -53 -39 -50 -8 2 -12 -1 -10 -8 7 -19 38 -22 38 -5 0 8 14 41 30 72 17 31
30 59 30 61 0 8 -26 3 -50 -11z"/>
<path d="M5580 255 c-14 -8 -49 -20 -77 -26 -57 -13 -62 -19 -36 -40 15 -12
16 -12 10 3 -5 14 5 20 48 33 30 8 61 18 68 21 10 3 6 -12 -12 -50 -16 -35
-31 -53 -39 -50 -8 2 -12 -1 -10 -8 7 -19 38 -22 38 -5 0 8 14 41 30 72 17 31
30 59 30 61 0 8 -26 3 -50 -11z"/>
<path d="M2300 99 c-58 -56 -85 -84 -60 -63 71 59 181 164 173 164 -5 0 -55
-46 -113 -101z"/>
<path d="M5430 99 c-58 -56 -85 -84 -60 -63 71 59 181 164 173 164 -5 0 -55
-46 -113 -101z"/>
<path d="M663 65 c0 -38 2 -53 4 -32 2 20 2 52 0 70 -2 17 -4 1 -4 -38z"/>
<path d="M3793 65 c0 -38 2 -53 4 -32 2 20 2 52 0 70 -2 17 -4 1 -4 -38z"/>
<path d="M2622 38 l1 -43 4 38 4 37 62 0 c34 0 126 -3 204 -7 l142 -6 4 -31
c4 -30 4 -30 5 5 l2 36 -61 7 c-34 3 -131 6 -215 6 l-154 0 2 -42z"/>
<path d="M5752 38 l1 -43 4 38 4 37 62 0 c34 0 126 -3 204 -7 l142 -6 4 -31
c4 -30 4 -30 5 5 l2 36 -77 7 c-42 3 -138 6 -215 6 l-138 0 2 -42z"/>
<path d="M2763 3 c37 -2 97 -2 135 0 37 2 6 3 -68 3 -74 0 -105 -1 -67 -3z"/>
<path d="M5888 3 c34 -2 88 -2 120 0 31 2 3 3 -63 3 -66 0 -92 -1 -57 -3z"/>
</g>
</svg>
